<svg width="36" height="35" viewBox="0 0 36 35" fill="none" xmlns="http://www.w3.org/2000/svg">
<path d="M3.84126 27.974C1.17331 27.5132 0.874174 25.682 0.793327 23.584C0.740776 21.8822 0.61142 19.768 2.20007 18.5513C2.73366 18.1834 3.48554 18.0824 4.13636 18.2037C4.70229 18.3209 4.61335 19.1334 4.26167 20.7301C4.14848 22.6907 4.46379 22.8524 4.77101 24.8008C4.9044 25.4112 4.5608 26.2479 4.81547 26.826C5.26822 27.6466 4.91653 28.2691 3.84126 27.97V27.974Z" fill="#36BC87"/>
<path d="M31.5961 28.0711C30.8967 27.9013 31.305 26.8139 31.1959 26.3207C31.1393 24.8412 31.1069 23.3617 31.0827 21.8822C31.0544 21.0091 30.9937 20.144 30.9331 19.3355C30.921 18.8788 30.8078 18.4058 30.8886 17.9531C31.1635 17.0112 33.0958 18.0824 33.4555 18.4867C34.2559 19.38 34.3125 20.7827 34.3893 21.8863C34.4863 23.3011 34.4985 26.6684 32.6147 27.1737C32.3641 27.5213 32.2226 28.2045 31.5961 28.0711Z" fill="#36BC87"/>
<ellipse cx="18.061" cy="4.00098" rx="2.5" ry="2" fill="#FFCC52"/>
<path d="M9.74305 32.6915C9.73901 31.9881 10.8345 31.9881 10.8304 32.6915C10.8345 33.3948 9.73901 33.3948 9.74305 32.6915Z" fill="#323232"/>
<path d="M18.6685 34.0497C16.6756 33.9486 14.6827 33.795 12.6939 33.6373C12.3988 33.609 12.1926 33.3099 12.229 33.0269C12.4231 32.174 13.7085 32.7521 14.331 32.6833C19.0121 32.9542 24.0529 33.601 28.3378 31.3292C29.8577 30.2741 30.1245 27.0038 30.3469 25.2535C30.4156 22.9251 30.3024 20.5926 30.1892 18.2643C30.0639 16.2956 29.9952 14.2017 28.8391 12.5201C28.4267 11.8612 27.8447 11.2993 27.0443 11.1982C25.7588 10.9435 24.4531 10.8425 23.1515 10.7536C20.8433 10.6282 18.5311 10.7899 16.2188 10.7899C13.0375 10.7818 9.54894 11.1295 7.00225 13.2153C5.66423 14.3917 5.2317 16.3846 5.16298 18.0743C4.97703 21.9711 4.62535 26.9877 6.5293 30.4883C7.25692 31.7819 8.78898 31.7657 8.66366 32.4974C8.3807 33.4918 7.23671 32.6065 6.73141 32.267C3.16201 29.5263 3.87347 20.7018 4.20898 16.5705C4.7547 12.609 7.742 10.8587 11.3842 10.1108C13.656 9.59339 15.9965 9.747 18.3087 9.6702C21.6194 9.64594 25.1161 9.39128 28.2893 10.4746C32.0002 12.9647 31.1351 18.8908 31.4383 22.8159C31.5272 25.3909 31.2443 30.1933 29.2514 31.9961C26.1954 34.0699 22.2258 34.0375 18.6645 34.0497H18.6685Z" fill="#323232"/>
<path d="M5.45812 27.4849C5.53492 27.8487 5.6279 28.2044 5.733 28.552C5.40153 28.5844 5.07005 28.6086 4.73858 28.6127C1.3147 28.6652 -0.0273606 26.3085 0.0292324 23.1595C-0.0394876 20.4754 -0.257775 16.4856 3.21865 16.0167C3.9584 15.8792 4.71433 15.9318 5.46216 15.948C5.36919 16.3037 5.30451 16.6635 5.256 17.0192C5.11452 17.0071 4.97708 17.003 4.85985 17.0192C3.56225 16.9464 1.82404 17.1728 1.4481 18.6563C0.942805 20.3501 1.08833 22.157 1.15301 23.8993C1.18939 26.4379 2.68506 27.7476 5.20345 27.5091C5.28834 27.501 5.36919 27.4929 5.45408 27.4849H5.45812Z" fill="#323232"/>
<path d="M34.1508 16.6959C35.3433 18.7858 35.2382 22.6179 34.8784 24.9706C34.6035 26.248 33.9366 27.5092 32.6996 28.0751C31.7496 28.4955 30.7391 28.823 29.7083 29.013C29.8174 28.637 29.9063 28.2449 29.9831 27.8528C31.1554 27.6103 32.3317 27.1777 33.0472 26.4905C34.4297 24.6593 34.0659 20.9727 33.7708 18.7696C33.3828 16.8172 32.7521 16.4291 30.8037 16.5059C30.5491 16.5059 30.3065 16.514 30.0721 16.5302C30.0397 16.1704 29.9953 15.8106 29.9346 15.4508C30.3672 15.4387 30.7593 15.4428 30.9735 15.4225C32.1539 15.4104 33.5404 15.5236 34.1548 16.6959H34.1508Z" fill="#323232"/>
<path d="M17.4761 10.0017C17.4922 9.38324 17.3831 8.76071 17.3507 8.13819C17.3063 7.57226 17.2537 7.00633 17.2335 6.4404C17.2335 5.73299 18.3088 5.72895 18.3209 6.4404C18.3775 7.51163 18.4786 8.55455 18.5635 9.62174C18.5796 9.86428 18.6241 10.127 18.4624 10.3332C18.1633 10.7415 17.468 10.5151 17.4801 10.0058L17.4761 10.0017Z" fill="#323232"/>
<path d="M15.746 5.98767C15.3013 5.6279 14.9617 5.17516 14.7313 4.64965C14.509 4.1484 14.4443 3.58651 14.4888 3.0408C14.5292 2.54763 14.6949 2.04233 14.9537 1.62193C15.2447 1.14897 15.6328 0.764948 16.1057 0.473898C16.5625 0.190933 17.1042 0.033281 17.6378 0.00498446C18.1552 -0.023312 18.6645 0.0696622 19.1415 0.263695C20.144 0.671973 20.8838 1.60576 21.1102 2.65677C21.2314 3.21462 21.2031 3.79672 21.0374 4.33839C20.9889 4.50009 20.9242 4.65774 20.8515 4.81135C20.8434 4.8356 20.8312 4.85581 20.8191 4.88007C20.6655 5.1792 20.4674 5.45004 20.233 5.69662C19.6751 6.28681 18.8909 6.63445 18.0865 6.70317C18.0865 6.70317 18.0824 6.70317 18.0784 6.70317C18.0541 6.70317 18.0299 6.70721 18.0056 6.70721C18.0016 6.70721 17.9935 6.70721 17.9895 6.70721C17.9814 6.70721 17.9693 6.70721 17.9612 6.70721C17.9248 6.70721 17.8844 6.70721 17.848 6.70721C17.0961 6.70721 16.3361 6.45659 15.746 5.97959V5.98767ZM17.9531 5.6279C18.0703 5.61578 18.1875 5.59961 18.3007 5.5794C18.3977 5.55514 18.4907 5.53089 18.5877 5.49855C18.6848 5.46217 18.7737 5.42174 18.8667 5.37728C18.9475 5.33281 19.0284 5.2843 19.1092 5.23175C19.1901 5.17516 19.2669 5.11452 19.3437 5.04985C19.4164 4.98517 19.4811 4.91241 19.5498 4.84369C19.6105 4.77092 19.667 4.69816 19.7196 4.62136C19.76 4.55668 19.8004 4.492 19.8368 4.42732C19.853 4.39903 19.8651 4.37477 19.8773 4.34648C19.8773 4.33839 19.8853 4.33435 19.8853 4.32626C19.9217 4.24946 19.9541 4.16861 19.9824 4.08372C20.0106 3.99479 20.0349 3.90182 20.0551 3.81289C20.0713 3.71183 20.0875 3.61077 20.0955 3.50971C20.0996 3.40461 20.0996 3.30355 20.0955 3.19845C20.0875 3.09739 20.0713 3.00037 20.0551 2.89931C20.0309 2.8023 20.0066 2.70528 19.9743 2.60826C19.9379 2.51125 19.8975 2.41423 19.853 2.32126C19.8045 2.23232 19.756 2.14743 19.6994 2.06659C19.6428 1.98574 19.5822 1.91298 19.5175 1.83617C19.4528 1.76745 19.3841 1.69873 19.3113 1.63405C19.2386 1.57342 19.1658 1.52087 19.089 1.46428C19.0041 1.41172 18.9192 1.35917 18.8303 1.31471C18.7413 1.27428 18.6484 1.23386 18.5554 1.20152C18.4624 1.17323 18.3695 1.14897 18.2765 1.12472C18.1673 1.10451 18.0582 1.09238 17.945 1.08429C17.848 1.08429 17.751 1.08429 17.654 1.08429C17.5489 1.09642 17.4478 1.10855 17.3467 1.12876C17.2578 1.14897 17.1689 1.17323 17.0799 1.20556C16.987 1.24195 16.894 1.27833 16.8051 1.32279C16.7242 1.36726 16.6434 1.41172 16.5666 1.46023C16.4857 1.51683 16.4089 1.57746 16.3321 1.6381C16.2593 1.70682 16.1906 1.77554 16.1219 1.8483C16.0613 1.92106 16.0006 1.99787 15.9481 2.07467C15.8915 2.1636 15.843 2.24849 15.7945 2.34147C15.754 2.42636 15.7217 2.51125 15.6894 2.59614C15.653 2.70528 15.6247 2.81442 15.6004 2.92761C15.5843 3.01654 15.5721 3.10952 15.5641 3.20249C15.56 3.30759 15.56 3.41673 15.5641 3.52184C15.5721 3.61885 15.5883 3.71183 15.6045 3.80884C15.6287 3.90182 15.653 3.99883 15.6813 4.08777C15.7177 4.18478 15.7581 4.27776 15.7985 4.36669C15.847 4.45562 15.8955 4.54051 15.9521 4.6254C16.0087 4.7022 16.0653 4.77901 16.1259 4.85177C16.1906 4.92453 16.2593 4.98921 16.3321 5.05793C16.4049 5.11857 16.4817 5.1792 16.5625 5.2358C16.6434 5.28835 16.7242 5.33281 16.8091 5.37728C16.898 5.4177 16.991 5.45813 17.084 5.49451C17.1891 5.52685 17.2982 5.55514 17.4074 5.5794C17.5044 5.59557 17.6054 5.60769 17.7025 5.61578C17.7833 5.61578 17.8642 5.61578 17.945 5.61578L17.9531 5.6279Z" fill="#323232"/>
<path d="M12.4473 21.0615C11.3317 20.435 12.2816 17.9934 13.5145 18.8585C15.091 19.2425 13.749 21.8417 12.4473 21.0615Z" fill="#323232"/>
<path d="M21.955 20.9928C20.5563 20.7988 21.2071 18.2238 22.4966 18.6685C23.7538 19.0161 23.2041 21.1424 21.955 20.9928Z" fill="#323232"/>
<path d="M17.2982 26.0094C16.421 25.9002 15.5681 25.4192 15.184 24.5986C14.9779 24.1944 14.6626 23.4748 15.2325 23.2282C15.1921 23.2484 15.1598 23.2646 15.1234 23.2889C16.0733 22.7917 15.9238 24.1216 16.4493 24.5178C17.4033 25.2939 19.0526 25.0271 19.5538 23.8548C19.667 23.4869 19.9621 23.111 20.3865 23.2929C21.1829 23.7214 20.2936 24.7886 19.8934 25.2211C19.2062 25.8598 18.2239 26.167 17.2941 26.0053L17.2982 26.0094Z" fill="#323232"/>
</svg>
