<svg width="111" height="128" viewBox="0 0 111 128" fill="none" xmlns="http://www.w3.org/2000/svg">
<path d="M111 58.2399C110.912 50.2853 105.521 40.5611 98.5184 37.1923C99.4356 34.7642 99.8589 32.1303 99.5767 29.4082C99.0064 23.9641 96.3314 19.1607 92.4687 15.7626C87.5713 11.459 80.4986 9.18371 74.7782 11.165C71.7092 3.88654 63.249 -0.311207 55.3826 0.0180285C48.063 0.323748 39.7263 4.38039 36.4927 11.2885C31.0368 9.22486 24.264 10.971 19.4548 15.0041C15.6156 18.2201 12.3644 22.7235 11.6119 28.1148C11.1651 31.2954 11.5413 34.3173 12.529 37.0865C5.76207 40.4023 0.752998 50.0207 0.0533717 57.7166C-0.505153 63.9133 3.41626 70.1982 7.3083 74.2078C9.12498 76.0891 11.2709 77.6354 13.5579 78.6054C12.6584 81.6156 12.5878 84.955 13.4462 88.4002C15.2864 95.7551 20.9011 101.628 27.2918 104.133C32.2715 106.085 38.4917 105.785 43.636 105.021C47.9748 104.374 52.8899 102.563 55.5061 98.6124C58.0283 102.41 62.667 104.239 66.8412 104.944C72.2912 105.861 78.3821 105.909 83.7146 104.133C90.1758 101.987 95.1673 95.808 97.4014 88.9587C98.5537 85.4195 98.4949 81.8508 97.5013 78.6466C104.868 75.5424 111.076 66.412 110.988 58.234L111 58.2399Z" fill="#8D7459"/>
<path d="M77.0358 66.3769L80.4751 66.8943L87.1539 65.2481L87.1951 64.1899L80.822 64.96L78.7701 64.6484L85.7312 58.4282L85.0962 56.9584L73.4142 66.7297L73.4377 62.8612L74.8605 55.0888L73.7611 55.1417L71.8562 63.0199L71.8327 67.6468L60.962 73.9552C60.4387 65.6185 60.1095 57.9403 59.8979 51.9729L64.6189 47.7104L72.5852 50.1091L77.0299 49.3801L77.2944 48.3336L72.8145 48.5512L66.6648 46.2641L76.5536 36.9221L76.248 35.8579L67.6467 42.8718L67.6173 39.897L68.5815 33.9354L67.6467 33.9766L66.4414 40.0028L66.4767 43.5656L59.7744 48.2689C59.6098 42.9424 59.5627 39.7029 59.5627 39.7029H51.4612C51.4612 39.7029 51.4083 42.9483 51.2496 48.2689L44.8 44.5063L45.3586 40.8435L43.8652 34.8056L42.9305 34.7644L44.1827 40.9141L43.6301 43.8184L35.0288 36.7986L34.7231 37.8628L44.6119 47.1989L38.4623 49.4859L33.9823 49.2625L34.2469 50.309L38.6915 51.0322L46.6579 48.6335L51.1261 51.9552C50.9144 57.9226 50.5793 65.6009 50.062 73.9376L39.1913 67.6292L39.1619 63.0023L37.257 55.1241L36.1576 55.0712L37.5804 62.8435L37.6039 66.712L25.916 56.9408L25.2811 58.4106L32.2421 64.6308L30.1902 64.9424L23.8171 64.1722L23.8583 65.2305L30.5371 66.8767L33.9764 66.3593L39.3442 70.9451L30.7958 74.0023L24.7872 73.626L25.0871 74.4844L30.9898 75.4603L41.1549 72.2503L49.7621 78.4587L47.1458 127.756H63.8781L61.2618 78.4587L69.869 72.2503L80.0283 75.4603L85.931 74.4844L86.2368 73.626L80.2281 74.0023L71.6798 70.9451L77.0475 66.3593L77.0358 66.3769Z" fill="#C8BC93"/>
<path d="M57.5343 19.5723C58.7925 18.3377 59.3569 16.668 59.4921 14.9042C59.5274 14.4809 59.545 13.9459 59.4921 13.4168C59.5979 12.2174 59.4392 10.8535 58.2046 10.4654C56.87 10.0421 55.5237 12.0175 54.9475 12.8936C54.5124 13.5638 54.1185 14.334 53.8422 15.1512C53.4777 16.0213 53.3366 16.9208 53.4248 17.838C53.4483 18.2848 53.5247 18.7257 53.66 19.1549C53.707 19.296 53.7658 19.4136 53.8246 19.5312C53.8775 19.6723 53.9245 19.8075 53.9833 19.9486C54.0186 20.0192 54.0833 20.0486 54.1479 20.0427C54.3713 20.9128 54.8593 21.5771 55.8412 21.1244C56.5173 20.8187 57.0699 20.2602 57.5226 19.5723H57.5343ZM57.4168 11.1063C57.552 11.0592 57.6637 11.0416 57.7754 11.0416C57.7754 11.0416 57.7636 11.0416 57.7636 11.0534C57.746 11.1004 57.6343 11.4002 57.6167 11.4414C57.2345 11.4767 56.3879 12.1175 56.0175 12.3762C56.2586 11.8647 57.0993 11.218 57.4168 11.1004V11.1063ZM56.6466 19.296C56.7466 19.1314 56.8347 18.9609 56.917 18.7904C56.9229 18.7904 56.9288 18.7786 56.9347 18.7728C57.3639 18.0085 57.9165 17.1089 58.3633 16.1448C58.1282 16.9091 57.9694 17.7498 57.6519 18.3318C57.5108 18.5787 57.0288 18.9315 56.6466 19.296ZM58.6749 14.1517C58.522 14.9454 58.1575 15.6803 57.7989 16.4152C57.7989 16.4152 57.4814 16.4975 57.4873 16.474C57.7637 15.645 58.4045 14.6867 58.4927 13.8225C58.522 13.6696 58.5514 13.505 58.5691 13.3404C58.6338 13.6049 58.669 13.8695 58.6749 14.1517ZM57.5873 12.435C57.6637 12.6466 57.7225 12.87 57.7577 13.0993C57.7284 13.1522 57.6931 13.2051 57.6578 13.2581C57.6049 13.2581 57.5461 13.2698 57.4814 13.2874C57.4227 13.3051 57.3639 13.3462 57.3051 13.3874C57.3933 13.0699 57.4873 12.7525 57.5814 12.435H57.5873ZM55.1944 19.6488C55.1944 19.6488 55.3002 19.1608 55.3061 19.1549C55.6118 18.6199 56.4173 17.4088 56.723 16.8797C56.7172 16.9091 56.8112 17.591 56.8053 17.6263C56.5702 18.1613 56.3174 18.6787 56.0175 19.1843C55.9646 19.1725 55.2532 19.6723 55.2003 19.6546L55.1944 19.6488ZM57.6343 13.8342C57.5226 14.1929 57.3345 14.6338 57.2874 15.0101C57.1698 15.1394 56.8876 15.404 56.7759 15.5568C56.8465 15.1923 56.9288 14.8278 57.0228 14.4633C57.0934 14.3575 57.505 13.993 57.6402 13.8342H57.6343ZM56.8289 12.8406C56.7583 12.9465 56.6995 13.0405 56.6701 13.0934C55.8823 14.3281 55.5295 15.9155 55.165 17.3206C55.1239 17.4735 55.0768 17.6498 55.0239 17.838C55.0592 16.4858 55.0651 15.2217 55.653 13.9988C55.7765 13.7402 56.4643 13.2463 56.8289 12.8406ZM58.7925 12.8583C58.7102 12.6172 58.5456 12.1998 58.3927 12.0352C58.3633 11.9117 58.3398 11.7941 58.3045 11.6766C58.381 11.7118 58.5573 11.6472 58.6279 11.7001C58.6573 11.7236 58.7808 11.8588 58.8102 11.8823C58.9748 12.1763 58.769 12.5937 58.7925 12.8524V12.8583Z" fill="#B3A473"/>
<path d="M76.7301 31.0779C78.1646 30.3606 79.1229 29.0672 79.7285 27.5739C79.8754 27.2153 80.0401 26.7626 80.1459 26.2864C80.5751 25.2692 80.8162 24.0464 79.852 23.3644C78.8172 22.6295 77.0946 23.9582 76.3479 24.5637C75.7835 25.0223 75.2309 25.5808 74.7605 26.2099C74.202 26.8625 73.8316 27.6033 73.6435 28.4264C73.5377 28.8203 73.4789 29.226 73.4789 29.6316C73.4789 29.7668 73.4965 29.8844 73.52 30.002C73.5259 30.1372 73.5259 30.2724 73.5435 30.4136C73.5494 30.4841 73.6023 30.5253 73.6611 30.5429C73.6141 31.3601 73.8493 32.0715 74.8311 31.9539C75.5013 31.8775 76.1363 31.5482 76.7242 31.072L76.7301 31.0779ZM78.9877 23.7054C79.117 23.6995 79.2229 23.7171 79.3169 23.7524C79.3169 23.7524 79.3052 23.7524 79.3052 23.7583C79.2758 23.7936 79.0994 24.0228 79.07 24.0581C78.729 23.9758 77.8178 24.2992 77.4238 24.4226C77.7766 24.0464 78.6819 23.7171 78.9877 23.7054ZM76.0422 30.5958C76.1715 30.4782 76.295 30.3606 76.4185 30.2372C76.4243 30.2372 76.4302 30.2313 76.442 30.2195C77.0299 29.6787 77.7589 29.0496 78.4115 28.3441C77.9941 28.9438 77.6237 29.6257 77.1828 30.0373C76.9946 30.2195 76.4714 30.3842 76.0422 30.5958ZM79.2346 26.6979C78.8819 27.3505 78.3645 27.8855 77.8412 28.4146C77.8412 28.4146 77.5473 28.397 77.5591 28.3793C78.0294 27.7326 78.8466 27.0859 79.17 26.3628C79.2346 26.2393 79.3052 26.1041 79.3698 25.963C79.3522 26.204 79.311 26.451 79.2346 26.692V26.6979ZM78.7701 24.9047C78.7819 25.1105 78.7702 25.3163 78.7349 25.5279C78.6937 25.5632 78.6467 25.6044 78.6056 25.6396C78.5585 25.6279 78.5056 25.6161 78.4468 25.6161C78.388 25.6161 78.3292 25.6337 78.2645 25.6514C78.435 25.3986 78.6055 25.1517 78.7701 24.9047ZM74.6782 30.4959C74.6782 30.4959 74.9017 30.1019 74.9134 30.0961C75.325 29.7198 76.3655 28.8967 76.7712 28.5146C76.7594 28.5381 76.6477 29.1554 76.636 29.1848C76.2832 29.5846 75.9129 29.9609 75.519 30.3136C75.4778 30.2901 74.7194 30.5194 74.6782 30.4959ZM78.4174 26.1276C78.2175 26.4098 77.9353 26.739 77.7884 27.0506C77.6531 27.1329 77.3298 27.2799 77.1887 27.3799C77.3533 27.0859 77.5297 26.792 77.706 26.5039C77.7942 26.4333 78.2528 26.2334 78.4115 26.1335L78.4174 26.1276ZM78 25.04C77.9059 25.1105 77.8354 25.181 77.7884 25.2104C76.7654 26.0629 76.0128 27.3446 75.3014 28.4616C75.225 28.5851 75.1309 28.7203 75.0369 28.8732C75.4425 27.715 75.807 26.6156 76.6536 25.722C76.83 25.5338 77.5649 25.2986 77.9941 25.0458L78 25.04ZM79.6932 25.6102C79.6932 25.381 79.6638 24.9694 79.5756 24.7871C79.5873 24.6754 79.5991 24.5637 79.5991 24.452C79.652 24.505 79.8284 24.4991 79.8754 24.5637C79.8931 24.5931 79.9637 24.7401 79.9872 24.7754C80.046 25.0752 79.752 25.3809 79.6991 25.6161L79.6932 25.6102Z" fill="#B3A473"/>
<path d="M85.2666 47.1341C84.132 46.4815 82.815 46.4168 81.5275 46.6755C81.2159 46.7402 80.8278 46.8284 80.4633 46.9753C79.5814 47.14 78.6349 47.5339 78.6055 48.4922C78.5702 49.5328 80.2576 50.1031 81.0042 50.3383C81.5745 50.5146 82.2036 50.6381 82.8444 50.6792C83.544 50.7616 84.2142 50.6792 84.8551 50.4382C85.1725 50.3324 85.4724 50.1913 85.7487 50.0031C85.8369 49.9443 85.9133 49.8797 85.9839 49.8091C86.0721 49.7444 86.1661 49.6857 86.2543 49.6092C86.3013 49.5681 86.3014 49.5152 86.2896 49.4681C86.8717 49.133 87.2421 48.6509 86.7247 48.0336C86.366 47.6103 85.8546 47.3281 85.2666 47.14V47.1341ZM79.2228 48.9272C79.1581 48.839 79.1229 48.7626 79.1052 48.6803C79.1052 48.6803 79.1111 48.6803 79.117 48.6862C79.1523 48.6862 79.3874 48.7038 79.4286 48.7097C79.5285 48.9801 80.1635 49.4505 80.4222 49.668C80.0048 49.6033 79.3757 49.1271 79.2287 48.9214L79.2228 48.9272ZM85.249 47.822C85.1079 47.7867 84.9727 47.7573 84.8316 47.7338C84.8257 47.7338 84.8198 47.7279 84.8139 47.722C84.179 47.5691 83.4206 47.3516 82.6445 47.2281C83.2383 47.2399 83.8732 47.187 84.3553 47.2987C84.5611 47.3457 84.9139 47.6221 85.249 47.822ZM81.1512 47.4104C81.7509 47.3575 82.3505 47.4692 82.9502 47.5809C82.9502 47.5809 83.0737 47.7925 83.0561 47.7925C82.4035 47.7632 81.5922 47.4986 80.9513 47.6044C80.8337 47.6162 80.7103 47.6279 80.5868 47.6456C80.7632 47.5456 80.9454 47.4692 81.1453 47.4045L81.1512 47.4104ZM80.1459 48.5333C80.2811 48.4334 80.4281 48.3511 80.5868 48.2746C80.6339 48.2864 80.675 48.304 80.722 48.3099C80.7338 48.3511 80.7514 48.3922 80.7749 48.4275C80.7984 48.4687 80.8396 48.4981 80.8808 48.5392C80.6339 48.5392 80.3869 48.5392 80.1459 48.5333ZM85.7958 48.7979C85.7958 48.7979 85.4254 48.8214 85.4195 48.8155C84.9786 48.7097 83.9438 48.3687 83.5029 48.2629C83.5264 48.2629 83.9967 48.0571 84.0203 48.0512C84.4494 48.11 84.8727 48.1923 85.296 48.304C85.296 48.3452 85.8017 48.7568 85.8017 48.7979H85.7958ZM81.1335 48.2217C81.4099 48.2335 81.7626 48.2746 82.0449 48.2335C82.1624 48.2923 82.4093 48.4393 82.5387 48.4922C82.2624 48.5157 81.9801 48.5275 81.7038 48.5333C81.6156 48.5039 81.2688 48.2864 81.1335 48.2217ZM80.5868 49.0037C80.675 49.0331 80.7514 49.0566 80.7985 49.0683C81.8391 49.3799 83.056 49.3153 84.1319 49.2918C84.2495 49.2918 84.3906 49.2918 84.5317 49.2918C83.5558 49.5387 82.6445 49.7856 81.6509 49.6151C81.4393 49.5798 80.9513 49.1859 80.5868 49.0037ZM80.2047 47.5927C80.0518 47.6985 79.7872 47.8984 79.6991 48.0453C79.6167 48.0924 79.5344 48.1335 79.458 48.1806C79.4697 48.1218 79.3816 48.0042 79.411 47.9454C79.4227 47.916 79.4932 47.8043 79.505 47.7749C79.6814 47.5985 80.0224 47.6632 80.2047 47.5927Z" fill="#B3A473"/>
<path d="M90.3933 82.1392C89.8465 80.6988 88.706 79.6523 87.342 78.9232C87.0128 78.7469 86.5953 78.5411 86.1544 78.4C85.2255 77.8885 84.079 77.5358 83.3323 78.3882C82.521 79.3054 83.6322 81.0868 84.1319 81.857C84.5141 82.439 84.9962 83.0269 85.5488 83.5384C86.1191 84.1381 86.7894 84.5673 87.5595 84.8201C87.9299 84.9612 88.3062 85.0553 88.7001 85.0905C88.8294 85.1023 88.947 85.1023 89.0587 85.0905C89.188 85.0964 89.3174 85.1082 89.4526 85.1141C89.5232 85.1141 89.5702 85.0611 89.5819 85.0141C90.358 85.1434 91.0635 84.9847 91.0518 84.0382C91.04 83.3914 90.7872 82.7506 90.3992 82.1392H90.3933ZM83.5616 79.2525C83.5734 79.129 83.6028 79.0291 83.6381 78.9409V78.9526C83.6675 78.982 83.8732 79.176 83.9026 79.2113C83.7909 79.5288 84.0144 80.4342 84.0908 80.8222C83.7615 80.4518 83.544 79.5523 83.5616 79.2525ZM89.8583 82.7506C89.7583 82.6154 89.6525 82.486 89.5467 82.3567C89.5467 82.3508 89.5467 82.3391 89.5349 82.3332C89.0764 81.7217 88.5473 80.9575 87.9358 80.2637C88.4649 80.7223 89.0822 81.1456 89.435 81.6042C89.5878 81.8041 89.6995 82.3156 89.8583 82.7506ZM86.4484 79.3113C87.0363 79.7169 87.4948 80.2637 87.9534 80.8164C87.9534 80.8164 87.9064 81.0986 87.8946 81.0868C87.3243 80.5753 86.7834 79.7228 86.125 79.3466C86.0133 79.2701 85.8898 79.1878 85.7663 79.1173C85.9956 79.1584 86.2249 79.2231 86.4484 79.3171V79.3113ZM84.6905 79.5758C84.8845 79.5876 85.0844 79.6229 85.2843 79.6699C85.3137 79.7169 85.343 79.764 85.3783 79.8051C85.3607 79.8522 85.3431 79.8992 85.3372 79.9521C85.3254 80.0109 85.3431 80.0697 85.3489 80.1285C85.1255 79.9403 84.9021 79.7581 84.6846 79.57L84.6905 79.5758ZM89.629 84.044C89.629 84.044 89.2762 83.7912 89.2703 83.7795C88.9529 83.3503 88.265 82.2744 87.9475 81.8452C87.9651 81.8629 88.5472 82.0216 88.5707 82.0392C88.9117 82.4155 89.241 82.8035 89.5349 83.2209C89.5055 83.2562 89.6525 84.0088 89.6231 84.044H89.629ZM85.8251 80.0344C86.0721 80.2519 86.3601 80.5518 86.6423 80.7282C86.707 80.8634 86.8188 81.1867 86.9011 81.3278C86.6306 81.1456 86.3719 80.9457 86.1132 80.7458C86.0544 80.6576 85.9074 80.199 85.8251 80.0344ZM84.7434 80.3343C84.808 80.4283 84.8609 80.5047 84.8845 80.5518C85.5958 81.6159 86.7482 82.4625 87.7418 83.2503C87.8476 83.3385 87.9769 83.4385 88.1063 83.5443C87.0362 83.0387 86.025 82.586 85.249 81.6865C85.0844 81.4925 84.9315 80.7693 84.7375 80.3343H84.7434ZM85.4547 78.7645C85.2313 78.7469 84.8433 78.7292 84.6552 78.7939C84.5493 78.7704 84.4436 78.7528 84.3377 78.741C84.3906 78.694 84.4024 78.5293 84.4729 78.4882C84.5023 78.4706 84.6493 78.4176 84.6846 78.4059C84.9786 78.3765 85.2372 78.6881 85.4547 78.7645Z" fill="#B3A473"/>
<path d="M27.6916 46.7284C28.9085 47.2164 30.2196 47.0988 31.4601 46.6638C31.76 46.5579 32.1304 46.4168 32.4714 46.2228C33.3238 45.9347 34.2057 45.4174 34.0999 44.4591C33.9882 43.4243 32.2362 43.0951 31.466 42.9657C30.8781 42.8717 30.2372 42.8364 29.5964 42.8893C28.8968 42.9011 28.2383 43.0774 27.6386 43.4126C27.3388 43.5654 27.0625 43.7477 26.8097 43.9711C26.7274 44.0416 26.6627 44.1181 26.6039 44.1945C26.5274 44.2709 26.4452 44.3473 26.3628 44.4296C26.3217 44.4767 26.3276 44.5296 26.3511 44.5708C25.8278 44.9823 25.5162 45.5173 26.1218 46.0523C26.5333 46.4168 27.0801 46.6285 27.6857 46.7343L27.6916 46.7284ZM33.4238 44.1063C33.5002 44.1827 33.5413 44.2591 33.5766 44.3356C33.5707 44.3356 33.5649 44.3356 33.5649 44.3356C33.5296 44.3356 33.2885 44.3532 33.2533 44.3532C33.118 44.1004 32.4243 43.7183 32.1362 43.5419C32.5595 43.5537 33.2474 43.9299 33.4238 44.1122V44.1063ZM27.6151 46.0406C27.7562 46.0523 27.8973 46.0641 28.0384 46.0758C28.0443 46.0758 28.0502 46.0817 28.0619 46.0817C28.7087 46.1464 29.4906 46.2522 30.2784 46.2698C29.6905 46.3404 29.0673 46.4815 28.5793 46.4403C28.3676 46.4227 27.9796 46.1934 27.6151 46.0464V46.0406ZM31.7306 45.8818C31.1426 46.017 30.5312 45.9876 29.9256 45.9641C29.9256 45.9641 29.7728 45.776 29.7904 45.7701C30.4371 45.7054 31.2837 45.8583 31.9011 45.6584C32.0128 45.6349 32.1303 45.6055 32.2538 45.5643C32.0951 45.6878 31.9246 45.7878 31.7365 45.8759L31.7306 45.8818ZM32.5713 44.6237C32.4478 44.7413 32.3126 44.8471 32.1715 44.9411C32.1245 44.9353 32.0774 44.9235 32.0304 44.9235C32.0128 44.8882 31.9892 44.8471 31.9598 44.8118C31.9304 44.7765 31.8834 44.7471 31.8423 44.7177C32.0892 44.6825 32.3302 44.6531 32.5713 44.6237ZM26.939 45.1528C26.939 45.1528 27.2976 45.0764 27.3094 45.0822C27.7621 45.1293 28.8321 45.3174 29.2848 45.3644C29.2613 45.3644 28.8262 45.6408 28.8027 45.6466C28.3676 45.6466 27.9385 45.6231 27.5093 45.5761C27.5034 45.5408 26.9508 45.1998 26.9449 45.1587L26.939 45.1528ZM31.6365 45.0764C31.3602 45.1058 31.0015 45.1116 30.7311 45.1881C30.6076 45.1469 30.3431 45.0352 30.2078 45.0058C30.4783 44.9411 30.7546 44.8941 31.0251 44.8471C31.1132 44.8647 31.4895 45.0352 31.6365 45.0764ZM32.0715 44.2239C31.9775 44.2062 31.8952 44.1945 31.854 44.1886C30.7781 44.024 29.5905 44.2591 28.5205 44.4296C28.4029 44.4473 28.2677 44.4708 28.1266 44.4884C29.0555 44.1122 29.9256 43.7359 30.931 43.7653C31.1485 43.7712 31.6835 44.0945 32.0715 44.218V44.2239ZM32.6418 45.5702C32.7829 45.4409 33.0122 45.2057 33.0828 45.0528C33.1592 44.9999 33.2298 44.947 33.3003 44.8882C33.3003 44.947 33.3944 45.0528 33.3767 45.1175C33.3709 45.1469 33.318 45.2704 33.3062 45.2998C33.1533 45.4997 32.8123 45.482 32.636 45.5761L32.6418 45.5702Z" fill="#B3A473"/>
<path d="M15.1748 53.7072C15.9567 55.1064 17.2913 56.0118 18.8081 56.5527C19.1726 56.6821 19.6312 56.8291 20.1133 56.9173C21.1422 57.2994 22.3768 57.4875 23.0176 56.4998C23.7114 55.4357 22.3004 53.766 21.6654 53.0546C21.1833 52.5078 20.6013 51.9787 19.9546 51.5378C19.2726 51.0086 18.52 50.6677 17.6911 50.5207C17.2913 50.4325 16.8856 50.3913 16.4741 50.4148C16.3447 50.4148 16.2213 50.4442 16.1037 50.4678C15.9685 50.4795 15.8391 50.4854 15.698 50.5089C15.6275 50.5207 15.5863 50.5736 15.5745 50.6324C14.7514 50.6206 14.0577 50.8852 14.2106 51.8611C14.3164 52.5255 14.675 53.1487 15.1689 53.7131L15.1748 53.7072ZM22.6414 55.6532C22.6531 55.7826 22.6414 55.8884 22.612 55.9824C22.612 55.9824 22.612 55.9707 22.6002 55.9707C22.5649 55.9413 22.3239 55.7708 22.2945 55.7414C22.3592 55.4004 22.0005 54.5009 21.8594 54.1129C22.2533 54.448 22.612 55.3416 22.6414 55.6473V55.6532ZM15.6334 52.9958C15.7568 53.1193 15.8803 53.2428 16.0096 53.3545C16.0096 53.3603 16.0155 53.3721 16.0272 53.378C16.5917 53.9365 17.256 54.642 17.9909 55.2652C17.3736 54.8772 16.674 54.5362 16.2448 54.1129C16.0566 53.9306 15.8685 53.4191 15.6392 52.9958H15.6334ZM19.6606 56.0236C18.9962 55.7002 18.4377 55.2005 17.8851 54.7067C17.8851 54.7067 17.891 54.4127 17.9086 54.4186C18.573 54.8595 19.2549 55.6532 19.9957 55.9413C20.1192 56.006 20.2603 56.0648 20.4014 56.1236C20.1603 56.1177 19.9075 56.0824 19.6665 56.0236H19.6606ZM21.4302 55.4827C21.2245 55.5004 21.0187 55.4945 20.8071 55.4768C20.7659 55.4357 20.7306 55.3887 20.6895 55.3475C20.7012 55.3005 20.7071 55.2476 20.7071 55.1888C20.7071 55.13 20.6836 55.0653 20.666 55.0065C20.9246 55.1653 21.1833 55.324 21.4361 55.4827H21.4302ZM15.6745 51.6377C15.6745 51.6377 16.0743 51.8435 16.0802 51.8494C16.4741 52.2433 17.3442 53.2486 17.7381 53.6425C17.7146 53.6308 17.0914 53.5485 17.062 53.5367C16.6505 53.2016 16.2565 52.8488 15.8862 52.4667C15.9097 52.4255 15.6451 51.673 15.6686 51.6318L15.6745 51.6377ZM20.1956 55.1829C19.9075 54.9947 19.5665 54.7302 19.249 54.595C19.1609 54.4597 19.0021 54.1481 18.8963 54.0129C19.202 54.1599 19.496 54.3245 19.7958 54.495C19.8723 54.5773 20.0898 55.03 20.2015 55.1829H20.1956ZM21.2656 54.7184C21.1892 54.6302 21.1186 54.5597 21.0834 54.5185C20.1897 53.5308 18.8787 52.8371 17.7322 52.1786C17.6088 52.1081 17.4618 52.0199 17.3089 51.9317C18.4848 52.2903 19.596 52.6019 20.5307 53.4132C20.7248 53.5837 20.9952 54.3069 21.2656 54.7243V54.7184ZM20.7718 56.4352C21.0011 56.4175 21.4067 56.3764 21.589 56.2823C21.7007 56.2823 21.8124 56.2941 21.9241 56.2882C21.8771 56.347 21.8888 56.5175 21.8241 56.5704C21.7947 56.588 21.6478 56.6644 21.6184 56.688C21.3185 56.7644 21.0069 56.4822 20.7718 56.4352Z" fill="#B3A473"/>
<path d="M26.3687 90.2347C27.9561 89.9936 29.2672 89.0588 30.3019 87.8242C30.5489 87.5302 30.8487 87.1481 31.0956 86.7307C31.8129 85.8958 32.4243 84.8082 31.7188 83.8616C30.9604 82.8445 28.9086 83.5794 28.0208 83.9263C27.3447 84.1909 26.6451 84.5495 26.0042 85.0022C25.2693 85.4549 24.6873 86.0428 24.2581 86.7659C24.0347 87.1069 23.8583 87.4773 23.7348 87.8653C23.6937 87.9947 23.6702 88.1123 23.6584 88.2299C23.6231 88.3592 23.582 88.4885 23.5526 88.6238C23.5408 88.6943 23.5761 88.7531 23.6231 88.7825C23.3292 89.5468 23.3351 90.2935 24.2993 90.4875C24.9636 90.6227 25.6691 90.4992 26.3746 90.2347H26.3687ZM30.7899 83.9145C30.9134 83.9498 31.0074 84.0027 31.0897 84.0615H31.078C31.0368 84.085 30.7958 84.2496 30.7605 84.2732C30.4607 84.0909 29.4965 84.1203 29.0791 84.1144C29.5318 83.8616 30.4959 83.8322 30.7899 83.9145ZM25.8573 89.5586C26.016 89.488 26.1747 89.4116 26.3276 89.3293C26.3393 89.3293 26.3452 89.3293 26.3511 89.3293C27.0742 88.9942 27.9679 88.6238 28.8027 88.1476C28.2266 88.5885 27.6621 89.1235 27.1154 89.3822C26.8802 89.4939 26.3394 89.4939 25.8573 89.5644V89.5586ZM30.0961 86.8365C29.5611 87.348 28.9027 87.6949 28.2383 88.0417C28.2383 88.0417 27.962 87.93 27.9738 87.9183C28.6205 87.4538 29.6023 87.0893 30.1255 86.4955C30.2255 86.4014 30.3372 86.2956 30.443 86.178C30.349 86.4073 30.2372 86.6248 30.0903 86.8306L30.0961 86.8365ZM30.2079 84.9904C30.1549 85.1844 30.0785 85.3843 29.9844 85.5725C29.9315 85.596 29.8786 85.6136 29.8257 85.643C29.7846 85.6136 29.7375 85.5901 29.6846 85.5725C29.6258 85.5489 29.5612 85.5489 29.4965 85.5489C29.7375 85.3608 29.9727 85.1786 30.2079 84.9904ZM24.5991 89.0471C24.5991 89.0471 24.9342 88.7413 24.9401 88.7413C25.4457 88.5062 26.6921 88.0417 27.1977 87.8124C27.1801 87.8301 26.8861 88.3886 26.8626 88.4062C26.404 88.6767 25.9396 88.9236 25.4516 89.1353C25.4222 89.1 24.6285 89.0824 24.5991 89.0471ZM29.4965 86.0487C29.2202 86.2544 28.8498 86.4779 28.6146 86.7307C28.4618 86.7659 28.109 86.8071 27.9444 86.86C28.1913 86.6307 28.45 86.4014 28.7087 86.1839C28.8145 86.1427 29.3142 86.0898 29.4965 86.0487ZM29.4318 84.8787C29.3201 84.9257 29.2319 84.961 29.179 84.9787C27.9385 85.4725 26.8332 86.4602 25.8161 87.3009C25.7044 87.3891 25.575 87.495 25.4339 87.6067C26.1806 86.6307 26.8626 85.6959 27.9444 85.108C28.1737 84.9787 28.9438 84.9845 29.4318 84.8728V84.8787ZM30.8722 85.9429C30.9428 85.7194 31.0427 85.3255 31.0133 85.1198C31.0545 85.0198 31.1074 84.914 31.1368 84.8082C31.1721 84.8728 31.3367 84.9199 31.3661 85.0022C31.3778 85.0374 31.3955 85.2021 31.4014 85.2315C31.3661 85.5372 30.9957 85.7371 30.8663 85.9429H30.8722Z" fill="#B3A473"/>
<path d="M97.2779 66.8647C95.6435 66.2415 93.8974 66.4179 92.2512 67.0294C91.8573 67.1763 91.3634 67.3762 90.9107 67.6408C89.7819 68.0406 88.6178 68.7461 88.7766 70.0219C88.9471 71.3976 91.2811 71.8033 92.3159 71.9561C93.0978 72.0737 93.9561 72.109 94.8086 72.0208C95.7434 71.9914 96.6136 71.7445 97.4073 71.2859C97.8012 71.0801 98.1657 70.8332 98.4949 70.5275C98.6007 70.4275 98.6889 70.3276 98.7653 70.2218C98.8653 70.1159 98.977 70.016 99.0769 69.9043C99.1299 69.8455 99.124 69.7691 99.0946 69.7162C99.7884 69.1576 100.182 68.4404 99.3709 67.7407C98.8183 67.2586 98.0834 66.9882 97.2721 66.8647H97.2779ZM89.682 70.4687C89.582 70.3687 89.5233 70.2688 89.4762 70.1688H89.4879C89.5408 70.1688 89.8525 70.1395 89.9054 70.1395C90.0876 70.4746 91.0224 70.9684 91.4104 71.1918C90.846 71.1918 89.9171 70.698 89.682 70.4569V70.4687ZM97.3955 67.776C97.2074 67.7584 97.0134 67.7466 96.8252 67.7407C96.8135 67.7407 96.8076 67.7349 96.8017 67.7349C95.9375 67.6643 94.8909 67.535 93.8386 67.5291C94.6264 67.4233 95.4494 67.2175 96.102 67.2704C96.3842 67.2939 96.9016 67.582 97.3896 67.776H97.3955ZM91.9102 68.0759C92.6921 67.8818 93.5035 67.9054 94.3207 67.9348C94.3207 67.9348 94.5205 68.1876 94.5029 68.1934C93.6387 68.2875 92.5157 68.1053 91.6985 68.3816C91.5515 68.4169 91.3928 68.458 91.2282 68.5109C91.434 68.3463 91.6691 68.2052 91.916 68.0817L91.9102 68.0759ZM90.8107 69.7632C90.9695 69.6044 91.1459 69.4634 91.334 69.334C91.3987 69.3399 91.4575 69.3516 91.5222 69.3575C91.5457 69.4045 91.575 69.4575 91.6221 69.5045C91.6632 69.5515 91.7279 69.5868 91.7867 69.628C91.4575 69.675 91.1341 69.722 90.8166 69.7691L90.8107 69.7632ZM98.3126 68.9401C98.3126 68.9401 97.8364 69.0459 97.8188 69.0459C97.2132 68.993 95.7846 68.7637 95.179 68.7108C95.2084 68.7049 95.7846 68.3345 95.814 68.3287C96.3901 68.3228 96.9663 68.3404 97.5425 68.3992C97.5542 68.4521 98.3009 68.8931 98.3067 68.9401H98.3126ZM92.0513 69.1459C92.4217 69.0988 92.892 69.0812 93.2565 68.9754C93.4211 69.0224 93.7798 69.1753 93.9621 69.2164C93.6034 69.2987 93.2389 69.3752 92.8744 69.4398C92.7509 69.4222 92.2512 69.2047 92.0513 69.1459ZM91.4869 70.2864C91.6103 70.3041 91.7162 70.3217 91.7808 70.3276C93.2212 70.5275 94.8028 70.1865 96.2197 69.9396C96.3725 69.9102 96.5548 69.8808 96.7429 69.8514C95.5083 70.3746 94.3559 70.892 93.0213 70.8685C92.7391 70.8685 92.0101 70.4452 91.4869 70.2864ZM90.6991 68.505C90.5168 68.6755 90.2052 68.9989 90.1229 69.2047C90.023 69.2811 89.9289 69.3516 89.8348 69.4339C89.8348 69.3516 89.7055 69.2164 89.7231 69.1282C89.7349 69.0871 89.7995 68.9225 89.8113 68.8872C90.0112 68.6167 90.4698 68.6285 90.6991 68.505Z" fill="#B3A473"/>
<path d="M80.7513 36.8631C80.3926 37.6744 80.9453 38.0684 81.6626 38.2389C81.6626 38.2918 81.6802 38.3506 81.739 38.3741C81.8566 38.4211 81.9683 38.4564 82.0859 38.5034C82.1799 38.5563 82.2799 38.5975 82.3975 38.6328C82.7502 38.7386 83.1147 38.7974 83.4792 38.8091C84.2377 38.8679 84.9667 38.7386 85.6781 38.427C86.3424 38.1859 86.9715 37.8567 87.5124 37.4863C88.2238 37.0042 89.8229 35.8695 89.4584 34.7819C89.1233 33.7765 88.0062 33.6648 87.0185 33.7648C86.5835 33.7295 86.1484 33.7589 85.8016 33.7883C84.3553 33.9235 82.9913 34.4115 81.9977 35.458C81.4391 35.8401 80.9923 36.3046 80.7454 36.8572L80.7513 36.8631ZM87.924 36.6103C88.1297 36.3046 88.6471 35.605 88.6706 35.2875C88.7059 35.2699 88.9528 35.1817 88.9881 35.164C88.9881 35.164 88.9881 35.1581 88.9998 35.1523C88.9998 35.2405 88.994 35.3404 88.9528 35.4462C88.8646 35.7108 88.3473 36.4045 87.924 36.6103ZM83.0265 35.3463C83.4969 35.0758 84.1848 34.9347 84.808 34.7348C84.026 35.1111 83.2911 35.5756 82.6738 35.9401C82.6679 35.9401 82.662 35.9518 82.6561 35.9577C82.515 36.0283 82.3798 36.1047 82.2446 36.187C82.5386 35.8695 82.8208 35.4697 83.0265 35.3522V35.3463ZM87.1009 34.5291C86.9656 34.5526 86.8304 34.5761 86.7069 34.5996C86.0014 34.6819 85.2254 35.2228 84.5493 35.458C84.5317 35.4639 84.5963 35.2052 84.5963 35.2052C85.196 34.8936 85.7898 34.5879 86.4424 34.4526C86.6717 34.4526 86.8951 34.482 87.1067 34.5291H87.1009ZM87.0773 35.5579C87.1067 35.5109 87.142 35.4639 87.1538 35.411C87.1655 35.3639 87.1714 35.311 87.1714 35.2699C87.2184 35.2405 87.2596 35.2169 87.3007 35.1875C87.4889 35.2169 87.6712 35.264 87.8475 35.3228C87.5947 35.4051 87.336 35.4815 87.0714 35.5638L87.0773 35.5579ZM82.3446 36.7044C82.7561 36.4516 83.1735 36.234 83.6086 36.04C83.6321 36.04 84.1965 36.1047 84.22 36.0988C83.7908 36.3516 82.809 37.0336 82.3739 37.2864C82.3681 37.2923 81.9742 37.3805 81.9683 37.3864C81.9566 37.3452 82.3564 36.7514 82.3446 36.7103V36.7044ZM86.2072 35.8166C85.9132 35.8989 85.6134 35.9695 85.3136 36.0341C85.437 35.9401 85.6487 35.699 85.7545 35.605C86.0602 35.5579 86.4188 35.3992 86.7128 35.3051C86.5835 35.4168 86.2895 35.7578 86.2072 35.8166ZM86.6011 36.9278C85.6076 37.4217 84.5669 37.4452 83.4616 37.4922C83.6144 37.451 83.7615 37.404 83.8849 37.3687C85.0314 37.0513 86.3307 36.7397 87.336 36.0812C87.3772 36.0518 87.4536 36.0048 87.5359 35.946C87.2067 36.2458 86.8128 36.8161 86.6011 36.9219V36.9278ZM88.2885 34.3115C88.2885 34.3115 88.4178 34.435 88.4413 34.4585C88.4884 34.5173 88.4354 34.6643 88.4648 34.7231C88.3649 34.6937 88.2649 34.676 88.1708 34.6525C88.0356 34.5291 87.6888 34.3997 87.4889 34.3351C87.7064 34.3468 88.0474 34.1763 88.2885 34.3057V34.3115Z" fill="#B3A473"/>
<path d="M42.0721 31.5307C42.8775 32.048 43.3831 31.5248 43.6889 30.7899C43.7418 30.8016 43.8065 30.7899 43.8417 30.7311C43.9182 30.6135 43.9711 30.5018 44.0357 30.3842C44.1004 30.2902 44.171 30.1902 44.2239 30.0785C44.4003 29.7199 44.5179 29.3436 44.5943 28.9556C44.7824 28.1619 44.7707 27.3564 44.559 26.551C44.412 25.8043 44.1651 25.0812 43.8711 24.4403C43.4772 23.5996 42.5366 21.7124 41.3196 21.9182C40.1966 22.1063 39.8909 23.2763 39.8321 24.3404C39.7263 24.799 39.6792 25.2634 39.6557 25.6397C39.5558 27.1977 39.8497 28.7321 40.7963 29.9668C41.1079 30.6253 41.5253 31.1779 42.078 31.5307H42.0721ZM42.9951 23.8642C42.7012 23.5937 42.0427 22.9235 41.7135 22.8529C41.7017 22.8118 41.6429 22.5355 41.6311 22.4943C41.6311 22.4943 41.6253 22.4884 41.6194 22.4826C41.7135 22.4943 41.8134 22.5237 41.9251 22.5825C42.1897 22.7236 42.8423 23.3938 42.9951 23.87V23.8642ZM40.8375 28.8674C40.6317 28.3206 40.5905 27.5681 40.4847 26.8684C40.7551 27.7621 41.1255 28.6205 41.4136 29.3377C41.4136 29.3436 41.4254 29.3495 41.4254 29.3554C41.4783 29.5141 41.5371 29.6728 41.6017 29.8316C41.3137 29.4671 40.9374 29.0967 40.8433 28.8615L40.8375 28.8674ZM40.6434 24.3933C40.6434 24.5403 40.6434 24.6873 40.6552 24.8284C40.6258 25.5927 41.0726 26.5098 41.2078 27.2682C41.2078 27.2859 40.9433 27.18 40.9433 27.18C40.714 26.4922 40.4906 25.8102 40.4553 25.0929C40.4964 24.8519 40.5611 24.6167 40.6434 24.3992V24.3933ZM41.737 24.5873C41.6899 24.5462 41.6429 24.505 41.59 24.4756C41.5429 24.4521 41.49 24.4403 41.443 24.4286C41.4254 24.3757 41.396 24.3286 41.3783 24.2757C41.443 24.0817 41.5194 23.8936 41.6135 23.7172C41.6547 23.9994 41.7017 24.2934 41.7428 24.5814L41.737 24.5873ZM42.1662 29.808C41.9722 29.3318 41.8075 28.8439 41.6664 28.35C41.6664 28.3206 41.831 27.7386 41.831 27.7092C42.0309 28.2089 42.5895 29.373 42.7894 29.8727C42.7894 29.8845 42.8188 30.3137 42.8246 30.3195C42.7776 30.3195 42.2132 29.8022 42.1662 29.808ZM41.8663 25.5574C41.9016 25.8866 41.931 26.2159 41.9486 26.5451C41.8722 26.3981 41.6547 26.1335 41.5665 26.0042C41.5665 25.6691 41.4606 25.2634 41.4077 24.9342C41.5077 25.087 41.8193 25.4574 41.8663 25.5574ZM43.1186 25.3222C43.4772 26.4569 43.3302 27.5681 43.195 28.7557C43.1715 28.5852 43.1539 28.4206 43.1362 28.2853C42.9892 27.0095 42.8775 25.575 42.3425 24.4051C42.319 24.358 42.2837 24.2698 42.2308 24.164C42.4954 24.5638 43.0422 25.0812 43.1186 25.3222ZM40.614 23.0881C40.614 23.0881 40.7669 22.9705 40.7963 22.9529C40.8668 22.9117 41.0138 22.994 41.0844 22.9705C41.0373 23.0705 40.9962 23.1704 40.9609 23.2763C40.8022 23.3997 40.6082 23.7466 40.5082 23.9465C40.5611 23.7231 40.4318 23.3292 40.614 23.094V23.0881Z" fill="#B3A473"/>
<path d="M24.5991 29.3554C23.6525 29.6317 23.7113 30.3784 24.0817 31.1133C24.0347 31.1485 24.0052 31.2073 24.0229 31.2779C24.064 31.4131 24.117 31.5366 24.164 31.66C24.1875 31.7776 24.2228 31.8952 24.2757 32.0187C24.4344 32.3949 24.6461 32.7418 24.8989 33.0652C25.3928 33.7472 26.0218 34.2822 26.792 34.6643C27.4681 35.0582 28.203 35.3581 28.9026 35.558C29.8198 35.8225 31.9304 36.3693 32.5948 35.2875C33.2121 34.2822 32.5066 33.2533 31.7188 32.489C31.4366 32.0951 31.1015 31.7424 30.831 31.4719C29.6846 30.3372 28.2971 29.5259 26.6921 29.4259C25.9689 29.226 25.2517 29.1672 24.6049 29.3613L24.5991 29.3554ZM29.9315 35.2699C30.3431 35.2287 31.3072 35.1699 31.5895 34.9583C31.6306 34.9759 31.8834 35.1229 31.9245 35.1405C31.9304 35.1405 31.9363 35.1405 31.9422 35.1405C31.8658 35.2052 31.7776 35.264 31.6541 35.311C31.366 35.4227 30.4018 35.4815 29.9315 35.264V35.2699ZM27.5093 30.202C28.0796 30.4078 28.691 30.8957 29.3083 31.2779C28.4264 30.884 27.5093 30.59 26.7567 30.3196C26.7508 30.3196 26.7391 30.3196 26.7332 30.3196C26.5745 30.2549 26.4098 30.1902 26.2452 30.1315C26.7273 30.155 27.2682 30.1079 27.5151 30.1961L27.5093 30.202ZM31.1132 33.0828C31.0015 32.977 30.8839 32.8829 30.7722 32.8006C30.1961 32.2597 29.1848 31.9834 28.497 31.5777C28.4793 31.566 28.7498 31.4308 28.7498 31.4308C29.4376 31.7188 30.1255 32.0069 30.7076 32.4655C30.8663 32.6595 31.0015 32.8712 31.1132 33.0828ZM30.2255 33.806C30.2901 33.7942 30.3548 33.7942 30.4077 33.7648C30.4606 33.7413 30.5018 33.7119 30.5429 33.6825C30.5958 33.7001 30.6547 33.7178 30.7076 33.7354C30.8193 33.9177 30.9133 34.1058 30.9839 34.2939C30.7369 34.1352 30.4842 33.9706 30.2255 33.806ZM25.869 30.5959C26.3746 30.7664 26.8625 30.9722 27.3388 31.1956C27.3623 31.2132 27.7033 31.7423 27.7268 31.7541C27.2036 31.5718 25.9219 31.2191 25.3927 31.031C25.381 31.031 25.0341 30.7546 25.0223 30.7546C25.0517 30.7135 25.8396 30.6312 25.869 30.59V30.5959ZM29.3847 33.2415C29.1025 33.0475 28.8262 32.8476 28.5616 32.6419C28.7263 32.6771 29.0849 32.6889 29.2378 32.7065C29.4965 32.9358 29.8845 33.1298 30.1784 33.3062C29.9903 33.2768 29.4906 33.2709 29.3789 33.2415H29.3847ZM28.7145 34.3762C27.5857 33.8824 26.8214 33.0181 25.9924 32.1069C26.1394 32.2068 26.2746 32.3009 26.3981 32.3832C27.4916 33.1298 28.6792 34.0176 29.9609 34.3939C30.0138 34.4115 30.102 34.4409 30.2196 34.4703C29.7257 34.4056 28.9614 34.4821 28.7204 34.3762H28.7145ZM32.1479 33.9412C32.1479 33.9764 32.1362 34.1411 32.1303 34.1763C32.1127 34.2586 31.9481 34.3174 31.9187 34.388C31.8717 34.2822 31.8187 34.1881 31.7658 34.0882C31.7776 33.8824 31.6365 33.5002 31.5483 33.2827C31.6894 33.4767 32.0774 33.6413 32.1421 33.9412H32.1479Z" fill="#B3A473"/>
<path d="M96.7311 52.8076C96.9016 51.8375 96.2079 51.5553 95.3848 51.5612C95.373 51.5083 95.3378 51.4495 95.2613 51.4377C95.1202 51.4142 94.9909 51.4083 94.8556 51.3907C94.738 51.3613 94.6205 51.3378 94.4852 51.3319C94.0737 51.3025 93.6681 51.3378 93.2683 51.4201C92.4393 51.5553 91.6809 51.8845 90.993 52.4078C90.3404 52.8428 89.7467 53.3661 89.2587 53.9011C88.6179 54.6066 87.1833 56.2528 87.8594 57.3287C88.4826 58.3223 89.7231 58.1518 90.7578 57.7873C91.2341 57.7108 91.6985 57.5697 92.063 57.4404C93.5916 56.923 94.9379 56.0353 95.7375 54.6478C96.2431 54.0892 96.6077 53.4719 96.7253 52.8076H96.7311ZM89.0587 54.9594C88.9118 55.3474 88.5355 56.2352 88.6002 56.582C88.5649 56.6114 88.3239 56.776 88.2886 56.7996C88.2886 56.7996 88.2886 56.8054 88.2768 56.8113C88.2533 56.7172 88.2357 56.6114 88.2533 56.4762C88.2827 56.1705 88.659 55.2827 89.0587 54.9535V54.9594ZM94.6734 55.0417C94.2384 55.4591 93.5328 55.7883 92.9097 56.1705C93.6563 55.559 94.3265 54.8653 94.8968 54.3126C94.9027 54.3068 94.9086 54.3009 94.9145 54.2891C95.0438 54.1716 95.1731 54.054 95.2966 53.9364C95.0614 54.3538 94.8616 54.8594 94.6734 55.0417ZM90.4933 56.9936C90.6344 56.9348 90.7755 56.8701 90.8989 56.8113C91.6397 56.535 92.3335 55.7531 93.0037 55.318C93.0214 55.3062 93.0213 55.6061 93.0213 55.6061C92.4569 56.0941 91.8926 56.582 91.2282 56.8995C90.9813 56.9583 90.7344 56.9877 90.4933 56.9936ZM90.2405 55.8706C90.2228 55.9294 90.1935 55.9882 90.1935 56.0529C90.1935 56.1058 90.1935 56.1587 90.2111 56.2116C90.17 56.2528 90.1346 56.2939 90.0935 56.3351C89.8818 56.3527 89.6702 56.3527 89.4703 56.3351C89.7231 56.1822 89.9818 56.0294 90.2464 55.8765L90.2405 55.8706ZM95.0497 53.3955C94.6734 53.7718 94.2736 54.1186 93.8562 54.4479C93.8327 54.4596 93.2095 54.5302 93.1801 54.5419C93.5799 54.1539 94.4617 53.1662 94.8674 52.7723C94.8733 52.7664 95.2731 52.5724 95.279 52.5606C95.3025 52.6018 95.0262 53.3485 95.0497 53.3896V53.3955ZM91.1165 55.3709C91.4163 55.2063 91.7162 55.0475 92.0219 54.9006C91.9161 55.0358 91.7515 55.3474 91.6633 55.4767C91.3399 55.6061 90.9989 55.8706 90.7049 56.0529C90.8167 55.9 91.04 55.4532 91.1165 55.3709ZM90.3992 54.2656C91.3399 53.4719 92.4569 53.1721 93.6387 52.8311C93.4858 52.9193 93.3388 53.0016 93.2095 53.0721C92.0572 53.7188 90.7343 54.3891 89.829 55.3709C89.7937 55.4121 89.7231 55.4826 89.6467 55.5708C89.923 55.1593 90.1993 54.4361 90.3992 54.2715V54.2656ZM89.2587 57.5345C89.2293 57.5109 89.0823 57.4345 89.0529 57.411C88.9882 57.3581 89.0059 57.1876 88.9588 57.1288C89.0705 57.1288 89.1822 57.1288 89.2939 57.1288C89.4703 57.2287 89.8819 57.2758 90.1111 57.2934C89.876 57.3346 89.5526 57.6109 89.2587 57.5345Z" fill="#B3A473"/>
<path d="M64.7071 24.6051C64.3779 23.8349 63.7547 23.9584 63.1726 24.3405C63.1373 24.3053 63.0844 24.2818 63.0315 24.3053C62.9198 24.3523 62.8257 24.4111 62.7199 24.4581C62.6258 24.4934 62.5259 24.5287 62.4318 24.5875C62.132 24.758 61.8557 24.9696 61.6088 25.2165C61.0796 25.6986 60.6916 26.2807 60.4447 26.9744C60.1801 27.5859 59.9978 28.2326 59.8979 28.8381C59.7686 29.6377 59.5099 31.472 60.4917 31.9247C61.3971 32.3422 62.1967 31.6484 62.767 30.9076C63.0727 30.6313 63.3372 30.3197 63.5371 30.061C64.3837 28.9851 64.9305 27.7328 64.8541 26.3689C64.954 25.7398 64.9305 25.1283 64.7012 24.6051H64.7071ZM60.2389 29.6906C60.3153 30.0316 60.4623 30.843 60.6622 31.0605C60.6504 31.0958 60.5564 31.3251 60.5446 31.3603C60.5446 31.3603 60.5446 31.3662 60.5446 31.3721C60.48 31.3133 60.4211 31.2427 60.3682 31.1428C60.2506 30.9076 60.1037 30.1081 60.2389 29.6847V29.6906ZM64.2779 27.1449C64.1603 27.6447 63.8135 28.2091 63.543 28.7676C63.7899 27.9857 63.9487 27.1802 64.0957 26.5217C64.0957 26.51 64.0957 26.5041 64.0957 26.4982C64.1368 26.3571 64.1721 26.216 64.2074 26.069C64.2368 26.4806 64.3249 26.9274 64.2779 27.1449ZM62.1967 30.4726C62.2731 30.3609 62.3437 30.255 62.4024 30.1551C62.8022 29.6142 62.9316 28.7323 63.2138 28.115C63.2138 28.1032 63.3549 28.3149 63.3549 28.3149C63.1785 28.9204 63.008 29.5319 62.6729 30.0669C62.5259 30.2198 62.3672 30.355 62.1908 30.4726H62.1967ZM61.5029 29.7906C61.5147 29.8435 61.5264 29.8964 61.5558 29.9375C61.5794 29.9787 61.6088 30.014 61.6382 30.0434C61.6264 30.0904 61.6205 30.1375 61.6088 30.1845C61.4677 30.2962 61.3148 30.3903 61.1619 30.4726C61.2736 30.2492 61.3853 30.0199 61.5029 29.7847V29.7906ZM63.784 25.8045C63.69 26.2454 63.5665 26.6746 63.4254 27.1038C63.4137 27.1273 63.0021 27.4624 62.9904 27.4859C63.0962 27.0273 63.2667 25.9103 63.3666 25.4517C63.3666 25.4399 63.5606 25.1166 63.5606 25.1107C63.5959 25.1284 63.7488 25.7868 63.784 25.8045ZM61.8968 29.0263C62.0321 28.7676 62.1732 28.5148 62.326 28.2737C62.3084 28.4148 62.3378 28.7147 62.3378 28.8499C62.1732 29.0909 62.0497 29.4378 61.9262 29.7024C61.9262 29.5436 61.8851 29.1203 61.9027 29.0263H61.8968ZM60.8739 28.5736C61.1737 27.5741 61.8322 26.8451 62.5142 26.0573C62.4436 26.1925 62.3789 26.3218 62.3201 26.4218C61.7969 27.4154 61.1678 28.5089 60.9738 29.626C60.9679 29.673 60.9503 29.7494 60.9326 29.8494C60.9385 29.4261 60.8033 28.7852 60.868 28.5736H60.8739ZM61.5793 31.425C61.5441 31.425 61.4089 31.4367 61.3795 31.4367C61.3089 31.4309 61.2384 31.2956 61.1796 31.278C61.2677 31.231 61.3442 31.1722 61.4206 31.1193C61.5911 31.1075 61.9027 30.9547 62.0791 30.8606C61.9262 31.0017 61.8263 31.3486 61.5852 31.425H61.5793Z" fill="#B3A473"/>
<path d="M43.7006 83.1737C43.3714 82.4035 42.7482 82.527 42.1662 82.9091C42.1309 82.8739 42.078 82.8504 42.0251 82.8739C41.9133 82.9209 41.8193 82.9797 41.7134 83.0267C41.6194 83.062 41.5194 83.0973 41.4254 83.1561C41.1255 83.3266 40.8492 83.5382 40.6023 83.7851C40.0731 84.2672 39.6851 84.8493 39.4382 85.543C39.1736 86.1545 38.9914 86.8012 38.8914 87.4067C38.7621 88.2063 38.5034 90.0406 39.4852 90.4933C40.3906 90.9108 41.1961 90.217 41.7605 89.4762C42.0662 89.1999 42.3308 88.8883 42.5307 88.6296C43.3773 87.5537 43.924 86.3014 43.8476 84.9375C43.9475 84.3084 43.924 83.697 43.6947 83.1737H43.7006ZM39.2383 88.2592C39.3088 88.6002 39.4558 89.4116 39.6616 89.6291C39.6498 89.6644 39.5558 89.8937 39.544 89.9289C39.544 89.9289 39.544 89.9348 39.544 89.9407C39.4793 89.8819 39.4206 89.8113 39.3735 89.7114C39.2501 89.4762 39.1089 88.6767 39.2442 88.2534L39.2383 88.2592ZM43.2714 85.7135C43.1539 86.2133 42.807 86.7777 42.5424 87.3362C42.7893 86.5543 42.9481 85.7488 43.095 85.0903C43.095 85.0786 43.095 85.0727 43.095 85.0668C43.1362 84.9257 43.1715 84.7846 43.2067 84.6376C43.2303 85.0492 43.3244 85.496 43.2714 85.7135ZM41.1961 89.0412C41.2725 88.9295 41.3431 88.8236 41.4019 88.7237C41.8016 88.1828 41.931 87.3009 42.2132 86.6836C42.219 86.6718 42.3601 86.8835 42.3601 86.8835C42.1838 87.4891 42.0133 88.1005 41.6782 88.6355C41.5312 88.7884 41.3666 88.9236 41.1961 89.0412ZM40.5023 88.3592C40.5141 88.4121 40.5259 88.465 40.5553 88.5062C40.5788 88.5473 40.6081 88.5826 40.6375 88.612C40.6258 88.659 40.6199 88.7061 40.6081 88.7531C40.467 88.8648 40.3142 88.9589 40.1613 89.0412C40.273 88.8178 40.3847 88.5885 40.4964 88.3533L40.5023 88.3592ZM42.7776 84.3731C42.6835 84.814 42.5601 85.2432 42.419 85.6724C42.4072 85.6959 41.9957 86.031 41.9839 86.0545C42.0897 85.596 42.2602 84.4789 42.366 84.0203C42.366 84.0086 42.56 83.6852 42.56 83.6793C42.5953 83.697 42.7423 84.3554 42.7776 84.3731ZM40.8962 87.5949C41.0314 87.3362 41.1726 87.0834 41.3254 86.8423C41.3078 86.9834 41.3372 87.2833 41.3372 87.4185C41.1667 87.6595 41.0432 88.0064 40.9256 88.271C40.9256 88.1122 40.8845 87.689 40.9021 87.5949H40.8962ZM39.8732 87.1422C40.1731 86.1427 40.8315 85.4137 41.5135 84.62C41.443 84.7552 41.3783 84.8846 41.3195 84.9845C40.7963 85.9781 40.1672 87.0716 39.9732 88.1887C39.9673 88.2357 39.9497 88.318 39.9321 88.4121C39.9438 87.9888 39.8027 87.348 39.8674 87.1363L39.8732 87.1422ZM40.5788 89.9995C40.5494 89.9995 40.4082 90.0112 40.3788 90.0112C40.3083 90.0054 40.2378 89.8701 40.179 89.8525C40.2672 89.8055 40.3436 89.7467 40.42 89.6938C40.5905 89.682 40.9021 89.5291 41.0785 89.4351C40.9256 89.5762 40.8257 89.923 40.5846 89.9995H40.5788Z" fill="#B3A473"/>
<path d="M75.8187 91.4105C76.8005 91.4987 77.0181 90.7874 76.9534 89.9701C77.0122 89.9584 77.0592 89.9114 77.071 89.8408C77.0827 89.6997 77.0769 89.5704 77.0828 89.4293C77.1004 89.3117 77.1122 89.1882 77.1122 89.0589C77.1122 88.6473 77.0357 88.2475 76.924 87.8536C76.7241 87.0364 76.3361 86.3074 75.7599 85.6607C75.272 85.0434 74.7076 84.4966 74.1314 84.0556C73.373 83.4677 71.621 82.1743 70.6039 82.9386C69.6573 83.6441 69.9337 84.8611 70.3805 85.8665C70.4922 86.3368 70.6744 86.7895 70.8273 87.1422C71.474 88.6179 72.4617 89.8878 73.908 90.5757C74.5077 91.0343 75.1485 91.3459 75.8246 91.4105H75.8187ZM73.0496 83.9381C72.6557 83.8264 71.7327 83.5206 71.3976 83.6088C71.3682 83.5736 71.1859 83.3502 71.1565 83.3149C71.1565 83.3149 71.1448 83.3149 71.1448 83.3031C71.2388 83.2678 71.3447 83.2502 71.474 83.2502C71.7797 83.2502 72.6969 83.5559 73.0555 83.9322L73.0496 83.9381ZM73.4259 89.541C72.9732 89.1412 72.5852 88.4651 72.156 87.8713C72.8262 88.565 73.5729 89.1764 74.1667 89.7056C74.1785 89.7115 74.1843 89.7114 74.1902 89.7173C74.3137 89.8349 74.443 89.9584 74.5724 90.0701C74.1373 89.8643 73.614 89.7115 73.42 89.5351L73.4259 89.541ZM71.1448 85.5254C71.2153 85.6607 71.2859 85.7959 71.3564 85.9194C71.6915 86.6366 72.5264 87.2657 73.0144 87.8948C73.0261 87.9065 72.7263 87.9359 72.7263 87.9359C72.1971 87.4127 71.6621 86.8894 71.2917 86.2486C71.2153 86.0075 71.1624 85.7665 71.1389 85.5196L71.1448 85.5254ZM72.2383 85.1903C72.1736 85.1786 72.1148 85.1551 72.056 85.1609C72.0031 85.1609 71.9502 85.1786 71.8973 85.1903C71.8562 85.1492 71.8091 85.1198 71.7621 85.0786C71.7268 84.8729 71.7092 84.6612 71.7151 84.4554C71.8914 84.6965 72.0619 84.9434 72.2383 85.1903ZM75.0956 89.782C74.6899 89.4351 74.3137 89.0647 73.9492 88.6767C73.9374 88.6473 73.8139 88.0359 73.7963 88.0124C74.2137 88.3769 75.272 89.1765 75.6953 89.5468C75.707 89.5527 75.9305 89.9349 75.9363 89.9407C75.9011 89.9701 75.1309 89.7526 75.0956 89.782ZM72.8145 86.0252C73.0026 86.3074 73.1849 86.5955 73.3554 86.8894C73.2143 86.7895 72.8909 86.6543 72.7498 86.572C72.591 86.2604 72.303 85.9429 72.0972 85.6666C72.2618 85.7606 72.7204 85.9546 72.8145 86.0252ZM73.8551 85.2138C74.7193 86.0899 75.1073 87.1775 75.5424 88.3298C75.4425 88.1829 75.3484 88.0476 75.2661 87.9242C74.5312 86.8248 73.7552 85.5607 72.7028 84.7376C72.6616 84.7024 72.5852 84.6436 72.4911 84.5672C72.9262 84.8141 73.6611 85.0257 73.8492 85.2138H73.8551ZM70.504 84.3437C70.5216 84.3143 70.5863 84.1615 70.6039 84.1321C70.6509 84.0615 70.8214 84.0674 70.8802 84.0145C70.8802 84.1262 70.8978 84.2379 70.9096 84.3496C70.8214 84.5377 70.8096 84.9434 70.8096 85.1786C70.7509 84.9434 70.451 84.6495 70.504 84.3437Z" fill="#B3A473"/>
<path d="M11.5942 65.789C10.9945 66.6356 11.5354 67.2117 12.3173 67.5763C12.3056 67.6351 12.3173 67.7056 12.3761 67.7468C12.4996 67.835 12.6231 67.8996 12.7406 67.9702C12.8406 68.0525 12.9405 68.1289 13.0699 68.1936C13.4462 68.3994 13.8518 68.5522 14.2692 68.6463C15.1217 68.8873 15.9918 68.9108 16.8796 68.7227C17.6968 68.6051 18.4964 68.37 19.2019 68.076C20.1308 67.688 22.2297 66.7649 22.071 65.4304C21.9181 64.1957 20.6599 63.8077 19.5135 63.696C19.0255 63.5549 18.5199 63.4843 18.1142 63.4373C16.4269 63.2492 14.7513 63.4902 13.3638 64.4603C12.6348 64.766 12.0057 65.1893 11.6001 65.7714L11.5942 65.789ZM19.8721 67.1706C20.1837 66.8708 20.9421 66.1829 21.0362 65.8301C21.0832 65.8184 21.389 65.7713 21.4301 65.7596L21.4419 65.7537C21.4242 65.8537 21.3889 65.9654 21.3184 66.083C21.1538 66.3652 20.3954 67.0413 19.8721 67.1765V67.1706ZM14.5514 64.5837C15.157 64.378 15.9742 64.378 16.7385 64.2957C15.7508 64.5485 14.8042 64.9071 14.0105 65.1775C13.9988 65.1775 13.9929 65.1893 13.987 65.1893C13.8107 65.2422 13.6343 65.2951 13.4638 65.3539C13.8753 65.06 14.2927 64.6661 14.5514 64.5837ZM19.4135 64.5955C19.2489 64.5838 19.0902 64.5837 18.9432 64.5837C18.1084 64.5132 17.0971 64.9483 16.2682 65.0658C16.2447 65.0658 16.3798 64.7836 16.3798 64.7836C17.1383 64.572 17.8908 64.3603 18.6669 64.3545C18.9314 64.4074 19.1725 64.4897 19.4135 64.5955ZM19.149 65.7714C19.196 65.7243 19.2489 65.6773 19.2724 65.6185C19.3018 65.5656 19.3136 65.5127 19.3253 65.4598C19.3841 65.4421 19.4371 65.4186 19.4959 65.3951C19.7075 65.4715 19.9074 65.5656 20.0897 65.6773C19.7839 65.7067 19.4606 65.7361 19.1431 65.7655L19.149 65.7714ZM13.4579 65.9771C13.987 65.789 14.522 65.6361 15.0688 65.5068C15.0982 65.5068 15.7273 65.7184 15.7567 65.7184C15.204 65.9066 13.9165 66.4592 13.3638 66.6474C13.3521 66.6474 12.8876 66.6591 12.8759 66.665C12.87 66.6121 13.4697 66.0241 13.4638 65.9771H13.4579ZM18.0848 65.8595C17.7262 65.8831 17.3676 65.9007 17.0089 65.9007C17.1735 65.8184 17.4675 65.6009 17.6145 65.5127C17.979 65.5303 18.4258 65.4362 18.7845 65.3892C18.6081 65.4891 18.1965 65.8125 18.0848 65.8595ZM18.2847 67.2294C17.0325 67.5645 15.8331 67.347 14.5514 67.1471C14.7396 67.1295 14.9159 67.1177 15.0629 67.1059C16.4504 67.0119 18.0143 66.959 19.3195 66.4357C19.3724 66.4122 19.4664 66.3769 19.584 66.3299C19.1372 66.6003 18.5493 67.1647 18.2847 67.2353V67.2294ZM20.8304 64.6249C20.8539 64.6602 20.9539 64.7954 20.9715 64.8307C21.0127 64.9071 20.9186 65.0658 20.9362 65.1423C20.8304 65.0835 20.7187 65.0423 20.6129 64.9953C20.4894 64.8189 20.119 64.5955 19.9074 64.472C20.1484 64.5367 20.5776 64.4191 20.8304 64.6249Z" fill="#B3A473"/>
</svg>
