<svg width="77" height="98" viewBox="0 0 77 98" fill="none" xmlns="http://www.w3.org/2000/svg">
<path d="M64.7794 49.7731C63.993 53.9215 65.6565 57.717 66.4579 57.8683C67.2594 58.0195 70.193 55.0909 70.9793 50.9425C71.7656 46.7941 70.0317 42.9834 69.3008 42.8473C68.5699 42.7113 65.5657 45.6247 64.7794 49.7731Z" fill="#569986"/>
<path d="M69.2455 58.71C66.2665 60.8674 65.1474 64.4059 65.6011 65.0309C66.0547 65.656 69.7646 65.7013 72.7436 63.544C75.7226 61.3866 76.8013 57.7926 76.3879 57.2231C75.9746 56.6535 72.2245 56.5527 69.2455 58.71Z" fill="#569986"/>
<path d="M62.9497 57.6212C64.8298 60.7817 64.4518 64.4714 63.7864 64.8696C63.1261 65.2628 59.6986 63.8312 57.8184 60.6708C55.9383 57.5103 56.3768 53.7853 56.9817 53.4224C57.5865 53.0645 61.0696 54.4608 62.9497 57.6212Z" fill="#569986"/>
<path d="M59.6128 66.2356C61.5131 69.4565 61.1301 73.2269 60.4597 73.6251C59.7893 74.0283 56.3163 72.5666 54.416 69.3457C52.5107 66.1247 52.9593 62.3191 53.5692 61.9561C54.1841 61.5882 57.7125 63.0096 59.6128 66.2356Z" fill="#569986"/>
<path d="M55.0008 75.5002C56.9666 78.9782 56.5533 83.051 55.8577 83.4896C55.157 83.9281 51.5581 82.3605 49.5872 78.8825C47.6214 75.4045 48.0952 71.2914 48.7303 70.8932C49.3704 70.495 53.0299 72.0222 55.0008 75.5002Z" fill="#569986"/>
<path d="M49.4207 83.303C51.6487 87.0532 51.2908 91.5041 50.5397 91.998C49.7887 92.492 45.8218 90.869 43.5939 87.1188C41.3659 83.3736 41.7893 78.8774 42.4748 78.4288C43.1603 77.9802 47.1928 79.5579 49.4207 83.3081V83.303Z" fill="#569986"/>
<path d="M59.5827 88.757C55.2377 89.13 51.8302 92.0132 51.8655 92.9155C51.9058 93.8127 55.5351 96.0911 59.875 95.7181C64.22 95.3451 67.6274 92.3812 67.5921 91.5646C67.5569 90.743 63.9226 88.389 59.5827 88.762V88.757Z" fill="#569986"/>
<path d="M68.4642 68.7257C64.6081 69.7641 62.0626 72.738 62.2592 73.484C62.4608 74.23 66.1555 75.5255 70.0116 74.4871C73.8676 73.4487 76.398 70.4093 76.2166 69.7288C76.0351 69.0484 72.3202 67.6874 68.4642 68.7257Z" fill="#569986"/>
<path d="M64.1645 79.326C60.2933 80.2989 57.6924 83.2325 57.8839 83.9785C58.0704 84.7245 61.75 86.0854 65.6212 85.1126C69.4924 84.1398 72.0731 81.1406 71.9018 80.4602C71.7304 79.7797 68.0356 78.3532 64.1695 79.326H64.1645Z" fill="#569986"/>
<path d="M47.5608 96.6807C47.4751 96.7765 47.46 96.9076 47.5205 97.0185C47.586 97.1344 47.7171 97.205 47.8481 97.1848C47.9187 97.1747 47.9842 97.1394 48.0346 97.0789C49.0982 95.844 50.1517 94.5133 51.2606 93.0112C54.1388 93.7219 57.1933 93.8731 60.0866 93.4397C61.6996 93.1977 63.232 92.7793 64.6433 92.1997C64.7895 92.1392 64.8651 91.988 64.8248 91.8267C64.7845 91.6704 64.6433 91.5746 64.4971 91.5998C64.4719 91.5998 64.4467 91.6099 64.4215 91.62C63.0555 92.1846 61.5686 92.5878 60.006 92.8197C57.274 93.228 54.3908 93.107 51.6538 92.4668C53.4986 89.9012 55.2527 87.1188 56.8556 84.1902C58.3275 84.2053 59.7943 84.1045 61.2157 83.8928C63.9931 83.4795 66.5033 82.6579 68.6808 81.4532C68.8069 81.3826 68.8623 81.2465 68.8169 81.1104C68.7665 80.9592 68.6102 80.8634 68.459 80.8886C68.4187 80.8937 68.3834 80.9088 68.3482 80.9289C66.2513 82.0832 63.8267 82.8746 61.1401 83.2778C59.8548 83.4694 58.5291 83.5702 57.1934 83.5702C58.8063 80.5811 60.3336 77.3199 61.7349 73.8772C62.4305 73.8268 63.1261 73.7461 63.8116 73.6453C67.1082 73.1513 70.1628 72.0878 72.6478 70.5605C72.7738 70.4849 72.8192 70.3437 72.7738 70.2076C72.7183 70.0614 72.5721 69.9707 72.426 69.9909C72.3856 69.9959 72.3453 70.0111 72.305 70.0363C69.9107 71.5132 66.9418 72.5465 63.7259 73.0253C63.1563 73.111 62.5818 73.1765 62.0021 73.2269C62.9598 70.8226 63.8771 68.2771 64.734 65.651C68.7111 63.9271 72.0479 61.4925 74.3918 58.6193C74.4725 58.5185 74.4875 58.3875 74.422 58.2766C74.3565 58.1607 74.2255 58.0951 74.0995 58.1153C74.0239 58.1254 73.9583 58.1657 73.9079 58.2262C71.186 61.5631 67.6122 63.6549 64.9861 64.8545C65.0012 64.8092 67.1888 57.0416 67.6727 53.8358C67.8088 52.9487 68.5851 47.5301 68.9076 45.7255C68.9228 45.6247 68.8875 45.3677 68.6556 45.3223C68.4036 45.2769 68.3179 45.4836 68.2978 45.6197C68.0155 47.1974 67.7634 48.7852 67.5164 50.3175C66.7704 54.9952 64.3761 64.7185 64.3459 64.8041C61.8609 62.2234 59.9657 59.5216 58.7106 56.7644C58.6501 56.6334 58.514 56.5578 58.3678 56.583C58.267 56.5981 58.1813 56.6586 58.1359 56.7392C58.0956 56.8199 58.0906 56.9106 58.1359 56.9963C59.4616 59.9148 61.4778 62.7678 64.1292 65.4745C63.1967 68.3174 62.1785 71.0847 61.1099 73.7159C58.4585 70.8478 56.5028 67.5714 55.4493 64.2194C55.409 64.0732 55.2779 63.9876 55.1217 64.0128C55.0259 64.0279 54.9402 64.0833 54.8898 64.164C54.8444 64.2396 54.8293 64.3303 54.8596 64.4211C55.9635 67.9243 58.0351 71.3569 60.8478 74.351C59.4868 77.6324 58.0099 80.7374 56.4624 83.5853C53.5994 80.4451 51.5176 76.9217 50.4339 73.3882C50.3936 73.2421 50.2575 73.1564 50.1063 73.1816C50.0105 73.1967 49.9248 73.2521 49.8744 73.3328C49.8291 73.4084 49.8139 73.4991 49.8442 73.5899C50.9632 77.2493 53.1407 80.9088 56.1449 84.17C54.5974 86.9676 52.924 89.634 51.1598 92.0888C47.6163 88.8326 45.0607 84.5229 44.1282 80.2384C44.0929 80.0821 43.9618 79.9914 43.8106 80.0166C43.7199 80.0317 43.6342 80.0821 43.5788 80.1628C43.5283 80.2384 43.5082 80.3241 43.5284 80.4148C44.4861 84.8203 47.1273 89.256 50.7918 92.5979C49.6879 94.105 48.6294 95.4458 47.5608 96.6908V96.6807Z" fill="#B2D982"/>
<path d="M14.1619 8.395C15.2557 13.4809 13.3302 18.209 12.3473 18.4207C11.3644 18.6324 7.65959 15.1191 6.56074 10.0332C5.46694 4.94725 7.47811 0.199047 8.37534 0.00750497C9.27256 -0.184037 13.0631 3.30906 14.1619 8.395Z" fill="#B2D982"/>
<path d="M8.94002 19.5498C12.6801 22.1104 14.1671 26.4352 13.6278 27.2215C13.0884 28.0079 8.51661 28.1793 4.78154 25.6136C1.04143 23.053 -0.400167 18.6576 0.0938096 17.9418C0.582746 17.2261 5.19991 16.9841 8.94002 19.5498Z" fill="#B2D982"/>
<path d="M16.6672 18.0124C14.4493 21.9642 15.0341 26.5007 15.8607 26.9695C16.6874 27.4333 20.866 25.5632 23.0788 21.6114C25.2967 17.6596 24.6414 13.0827 23.8853 12.6543C23.1292 12.2309 18.88 14.0606 16.6672 18.0124Z" fill="#B2D982"/>
<path d="M21.0475 28.522C18.8044 32.5545 19.3992 37.1817 20.236 37.6555C21.0777 38.1293 25.3068 36.224 27.5498 32.1915C29.7929 28.1591 29.1275 23.4915 28.3614 23.058C27.5952 22.6245 23.2905 24.4895 21.0475 28.522Z" fill="#B2D982"/>
<path d="M27.0205 39.7877C24.7069 44.1327 25.342 49.143 26.2191 49.6572C27.0962 50.1764 31.4865 48.1299 33.8001 43.7849C36.1137 39.4399 35.403 34.3893 34.6016 33.9154C33.8001 33.4416 29.3342 35.4377 27.0205 39.7877Z" fill="#B2D982"/>
<path d="M34.1378 49.2287C31.5117 53.9164 32.0913 59.3905 33.0339 59.9752C33.9765 60.5599 38.8104 58.4328 41.4366 53.745C44.0627 49.0573 43.4024 43.5328 42.5404 42.9985C41.6785 42.4642 36.764 44.5409 34.1378 49.2287Z" fill="#B2D982"/>
<path d="M21.7884 56.2704C27.1516 56.593 31.4462 60.0407 31.426 61.1496C31.4058 62.2586 27.0054 65.1771 21.6473 64.8545C16.2841 64.5319 11.9946 60.9883 12.0097 59.9752C12.0248 58.962 16.4303 55.9478 21.7934 56.2704H21.7884Z" fill="#B2D982"/>
<path d="M10.2203 31.8638C14.9988 33.0181 18.2348 36.607 18.013 37.5295C17.7913 38.4519 13.2749 40.1657 8.49142 39.0063C3.70792 37.8521 0.497057 34.1825 0.69868 33.3407C0.905343 32.499 5.43683 30.7045 10.2203 31.8638Z" fill="#B2D982"/>
<path d="M15.8506 44.788C20.6492 45.8667 23.9458 49.3951 23.7391 50.3226C23.5324 51.25 19.0413 53.0394 14.2426 51.9608C9.44402 50.8821 6.16763 47.273 6.35413 46.4262C6.54567 45.5794 11.0469 43.7093 15.8506 44.788Z" fill="#B2D982"/>
<path d="M32.7467 60.7111C37.1521 56.4719 40.2722 50.9273 41.3106 45.4684C41.3308 45.3575 41.3106 45.2516 41.24 45.1609C41.1695 45.0701 41.0636 45.0046 40.9477 44.9895C40.7561 44.9643 40.5999 45.0802 40.5596 45.2718C39.5514 50.5795 36.5321 55.9679 32.2728 60.0911C30.0247 57.1222 27.8724 53.8912 25.8814 50.4938C29.4804 46.3807 32.0511 41.8089 33.3162 37.2623C33.3465 37.1514 33.3314 37.0405 33.2709 36.9447C33.2053 36.849 33.0995 36.7835 32.9836 36.7683C32.7971 36.7431 32.6358 36.854 32.5854 37.0355C31.3605 41.4258 28.9057 45.8313 25.4781 49.7932C23.4821 46.3353 21.5717 42.5549 19.7873 38.5577C23.1645 34.7773 25.6042 30.4878 26.8542 26.1327C26.8845 26.0218 26.8693 25.9109 26.8088 25.8151C26.7433 25.7194 26.6375 25.6539 26.5165 25.6387C26.33 25.6135 26.1687 25.7244 26.1233 25.9059C24.9287 30.0644 22.6201 34.1674 19.4446 37.7815C18.0433 34.5757 16.7025 31.1884 15.4625 27.7205C18.6431 24.303 21.0374 20.7242 22.5798 17.0899C22.6252 16.979 22.6201 16.8681 22.5647 16.7723C22.5042 16.6715 22.3983 16.601 22.2723 16.5858C22.0909 16.5657 21.9296 16.6564 21.859 16.8228C20.3972 20.2604 18.1492 23.6477 15.1702 26.9039C15.1349 26.7981 11.8787 14.8922 10.8101 9.15099C10.4572 7.26581 10.0943 5.32015 9.70113 3.38457C9.67088 3.21823 9.56001 2.96623 9.24749 3.03175C8.96018 3.09224 8.92488 3.41484 8.94504 3.53581C9.39869 5.74862 10.5278 12.4022 10.7193 13.491C11.42 17.4226 14.3586 26.9291 14.3788 26.9846C11.1075 25.5934 6.63646 23.1235 3.17862 19.0961C3.11309 19.0205 3.03246 18.9751 2.94173 18.965C2.78547 18.9448 2.6292 19.0305 2.54855 19.1767C2.47294 19.3128 2.49311 19.4792 2.59393 19.6001C5.56787 23.068 9.75658 25.9613 14.7115 27.9624C15.8456 31.1733 17.0553 34.2833 18.3155 37.2119C17.5997 37.1665 16.8839 37.101 16.1833 37.0153C12.2063 36.5264 8.52164 35.3469 5.5225 33.6028C5.47713 33.5776 5.42674 33.5575 5.37129 33.5524C5.18983 33.5323 5.00835 33.6432 4.94787 33.8297C4.89242 33.996 4.95796 34.1724 5.11421 34.2631C8.21921 36.0626 12.0147 37.2824 16.0926 37.7865C16.9394 37.8924 17.8013 37.9629 18.6582 38.0083C20.493 42.2021 22.474 46.169 24.5557 49.8033C22.9075 49.8436 21.2743 49.7629 19.6865 49.5664C16.3648 49.1581 13.3505 48.2608 10.7294 46.8999C10.6841 46.8747 10.6387 46.8596 10.5933 46.8545C10.4068 46.8293 10.2203 46.9553 10.1598 47.1368C10.1094 47.3031 10.18 47.4745 10.3362 47.5551C13.0582 48.9665 16.1783 49.899 19.6109 50.3224C21.3701 50.5392 23.1796 50.6148 24.9892 50.5493C27.0609 54.1079 29.3039 57.4801 31.6579 60.58C28.3059 61.4571 24.7573 61.699 21.3801 61.2807C19.4496 61.0438 17.6098 60.5901 15.9061 59.9398C15.8758 59.9298 15.8405 59.9197 15.8103 59.9146C15.6238 59.8945 15.4575 60.0155 15.4121 60.207C15.3667 60.4036 15.4625 60.5901 15.649 60.6606C17.4082 61.3361 19.3085 61.7998 21.3045 62.0468C24.8834 62.4904 28.6386 62.2081 32.167 61.2454C33.5783 63.065 34.9191 64.673 36.265 66.1549C36.3305 66.2255 36.4111 66.2708 36.5019 66.2809C36.6632 66.3011 36.8245 66.2103 36.9001 66.0642C36.9707 65.923 36.9505 65.7668 36.8396 65.6458C35.4837 64.1437 34.1378 62.5307 32.7315 60.706L32.7467 60.7111Z" fill="#569986"/>
</svg>
