<svg width="147" height="144" viewBox="0 0 147 144" fill="none" xmlns="http://www.w3.org/2000/svg">
<path d="M86.9456 65.8883L77.1194 58.3882L78.1057 57.0274L97.5207 70.2292L98.122 50.9249L86.3443 39.0259L87.5574 37.7811L98.2433 47.0113L98.8762 26.8632H105.274L105.923 47.6759L115.986 38.8149L117.194 40.0755L106.044 51.6422L106.614 69.8336L124.199 58.1086L125.385 59.7542L116.519 66.6742L127.685 67.1595L127.68 68.5203L113.444 69.0741L106.751 74.2904L108.18 116.269H95.9648L97.4047 73.8843L89.9994 68.2249L74.9885 67.7713L74.9833 66.4105L86.9456 65.8883Z" fill="#C8BC93"/>
<path d="M135.76 49.564C135.713 50.5081 135.438 54.3109 133.824 56.0831C132.1 57.9819 129.805 57.2171 129.178 56.8057L135.765 49.564H135.76Z" fill="#569986"/>
<path d="M135.554 49.3741L128.967 56.6159C128.497 56.0251 127.522 53.8152 129.241 51.9217C130.855 50.1442 134.61 49.506 135.549 49.3741H135.554Z" fill="#569986"/>
<path d="M142.237 67.3599C141.53 67.9928 138.613 70.4454 136.213 70.535C133.65 70.6247 132.6 68.4517 132.448 67.7132L142.232 67.3599H142.237Z" fill="#569986"/>
<path d="M142.226 67.075L132.442 67.4231C132.537 66.6794 133.434 64.4326 135.997 64.3429C138.397 64.2585 141.477 66.5001 142.226 67.075Z" fill="#569986"/>
<path d="M128.497 44.1157C127.79 44.7486 124.874 47.2012 122.474 47.2909C119.91 47.3806 118.861 45.2075 118.713 44.4691L128.497 44.1157Z" fill="#569986"/>
<path d="M128.487 43.8361L118.703 44.1842C118.798 43.4406 119.694 41.1937 122.252 41.104C124.652 41.0196 127.732 43.2612 128.487 43.8361Z" fill="#569986"/>
<path d="M146.361 55.8512C145.918 56.6898 144.041 60.0021 141.82 60.9199C139.452 61.8956 137.706 60.2237 137.311 59.5855L146.361 55.8512Z" fill="#569986"/>
<path d="M146.256 55.5875L137.205 59.3164C137.036 58.5833 137.094 56.1676 139.463 55.1919C141.683 54.2794 145.349 55.3079 146.256 55.5875Z" fill="#569986"/>
<path d="M57.3616 55.8512C57.8046 56.6898 59.6876 60.0021 61.9028 60.9199C64.271 61.8956 66.0116 60.2237 66.4124 59.5855L57.3616 55.8512Z" fill="#569986"/>
<path d="M57.4671 55.5875L66.5179 59.3164C66.6867 58.5833 66.6287 56.1676 64.2605 55.1919C62.04 54.2794 58.3743 55.3079 57.4618 55.5875H57.4671Z" fill="#569986"/>
<path d="M138.244 35.9086C137.759 36.7261 135.734 39.9488 133.476 40.761C131.066 41.626 129.404 39.8802 129.035 39.2209L138.249 35.9033L138.244 35.9086Z" fill="#569986"/>
<path d="M138.155 35.645L128.94 38.9573C128.803 38.2136 128.977 35.8085 131.388 34.9382C133.645 34.126 137.263 35.3232 138.16 35.645H138.155Z" fill="#569986"/>
<path d="M128.239 78.9583C127.311 78.7579 123.603 77.8718 122.115 75.9888C120.522 73.9793 121.646 71.8431 122.152 71.2841L128.239 78.9583Z" fill="#569986"/>
<path d="M128.46 78.7841L122.374 71.1099C123.033 70.7407 125.37 70.1341 126.963 72.1384C128.455 74.0214 128.476 77.8295 128.46 78.7789V78.7841Z" fill="#569986"/>
<path d="M116.836 50.4504C117.358 51.2469 119.357 54.4906 119.088 56.8746C118.803 59.4222 116.498 60.1448 115.749 60.1817L116.836 50.4504Z" fill="#569986"/>
<path d="M116.556 50.424L115.47 60.1552C114.742 59.9495 112.653 58.7364 112.938 56.1889C113.207 53.8048 115.876 51.0832 116.556 50.424Z" fill="#569986"/>
<path d="M114.81 22.111C115.153 22.9971 116.435 26.5836 115.675 28.8622C114.868 31.2937 112.458 31.5205 111.719 31.4044L114.81 22.111Z" fill="#569986"/>
<path d="M114.546 22.0212L111.45 31.3094C110.78 30.9613 108.992 29.3368 109.805 26.9053C110.564 24.6215 113.739 22.5223 114.546 22.0212Z" fill="#569986"/>
<path d="M102.568 1.96802C103.17 2.70116 105.501 5.71283 105.49 8.11795C105.474 10.6813 103.259 11.6465 102.516 11.7626L102.574 1.96802H102.568Z" fill="#569986"/>
<path d="M102.289 1.96802L102.231 11.7573C101.487 11.6307 99.2824 10.6444 99.2982 8.08103C99.314 5.68119 101.682 2.69588 102.289 1.96802Z" fill="#569986"/>
<path d="M102.568 14.3894C103.17 15.1225 105.501 18.1342 105.49 20.5393C105.474 23.1027 103.259 24.0679 102.516 24.1839L102.574 14.3894H102.568Z" fill="#569986"/>
<path d="M102.289 14.3893L102.231 24.1785C101.487 24.0572 99.2824 23.0709 99.2982 20.5023C99.314 18.1025 101.682 15.1171 102.289 14.3893Z" fill="#569986"/>
<path d="M126.799 28.0234C126.772 28.9728 126.562 32.7757 124.979 34.5848C123.286 36.5099 120.981 35.7821 120.343 35.3918L126.799 28.0287V28.0234Z" fill="#569986"/>
<path d="M126.588 27.8336L120.127 35.1967C119.652 34.6112 118.634 32.4223 120.322 30.4972C121.904 28.6933 125.644 27.9866 126.588 27.8336Z" fill="#569986"/>
<path d="M126.145 16.2247C126.113 17.1741 125.902 20.977 124.325 22.7808C122.632 24.7059 120.327 23.9834 119.689 23.5878L126.145 16.2247Z" fill="#569986"/>
<path d="M125.934 16.04L119.473 23.4031C118.998 22.8176 117.98 20.6288 119.668 18.7036C121.25 16.8998 124.995 16.193 125.934 16.04Z" fill="#569986"/>
<path d="M68.4061 48.7415C68.4483 49.6856 68.7279 53.4884 70.3418 55.2659C72.0718 57.1646 74.3609 56.3946 74.9938 55.9885L68.4061 48.7467V48.7415Z" fill="#569986"/>
<path d="M68.6171 48.5515L75.1995 55.7985C75.6689 55.2078 76.6447 52.9978 74.92 51.1043C73.306 49.3268 69.5507 48.6886 68.6118 48.5568L68.6171 48.5515Z" fill="#569986"/>
<path d="M62.3986 66.5371C63.1053 67.1648 66.0168 69.6173 68.4167 69.707C70.98 69.7967 72.0296 67.6236 72.1826 66.8852L62.3986 66.5371Z" fill="#569986"/>
<path d="M62.4091 66.247L72.193 66.6004C72.0981 65.8514 71.2015 63.6098 68.6381 63.5201C66.2435 63.4358 63.158 65.6774 62.4091 66.2523V66.247Z" fill="#569986"/>
<path d="M76.998 43.3986C77.7101 44.0315 80.6216 46.4841 83.0214 46.5737C85.5848 46.6634 86.6344 44.4904 86.7821 43.7519L76.998 43.3986Z" fill="#569986"/>
<path d="M77.0087 43.1136L86.7927 43.4617C86.6977 42.7128 85.8011 40.4712 83.2377 40.3762C80.8379 40.2918 77.7577 42.5334 77.0034 43.1084L77.0087 43.1136Z" fill="#569986"/>
<path d="M66.2648 34.5217C66.6868 35.3709 68.4642 38.7465 70.6531 39.7223C72.9896 40.7666 74.7829 39.1474 75.1996 38.5197L66.2595 34.5217H66.2648Z" fill="#569986"/>
<path d="M66.3756 34.2632L75.3157 38.2612C75.5056 37.5334 75.5161 35.1177 73.1796 34.0681C70.9907 33.0871 67.2881 34.0101 66.3756 34.258V34.2632Z" fill="#569986"/>
<path d="M76.3969 78.1302C77.3251 77.9297 81.033 77.0436 82.5257 75.1607C84.1186 73.1512 82.9898 71.015 82.4888 70.4559L76.4021 78.1302H76.3969Z" fill="#569986"/>
<path d="M76.1753 77.9561L82.262 70.2819C81.6027 69.918 79.2661 69.3114 77.6733 71.3157C76.1806 73.1986 76.1595 77.0067 76.1753 77.9561Z" fill="#569986"/>
<path d="M86.7452 49.3955C86.223 50.192 84.224 53.4304 84.4877 55.8145C84.7725 58.362 87.0827 59.0846 87.8317 59.1215L86.7452 49.3903V49.3955Z" fill="#569986"/>
<path d="M87.03 49.3586L88.1218 59.0899C88.8444 58.8895 90.9331 57.6764 90.6483 55.1288C90.3845 52.7448 87.7104 50.0232 87.03 49.3639V49.3586Z" fill="#569986"/>
<path d="M91.4182 22.2269C91.1018 23.1236 89.9256 26.7418 90.7484 28.9992C91.6239 31.4096 94.0343 31.5679 94.7727 31.4255L91.4182 22.2269Z" fill="#569986"/>
<path d="M91.6873 22.1321L95.0418 31.3306C95.6958 30.9614 97.4363 29.2894 96.5608 26.8843C95.738 24.6269 92.5048 22.6121 91.6873 22.1374V22.1321Z" fill="#569986"/>
<path d="M88.3381 7.74353C88.0216 8.6349 86.8402 12.2584 87.663 14.5106C88.5385 16.9157 90.9542 17.0739 91.6926 16.9421L88.3381 7.74353Z" fill="#569986"/>
<path d="M88.6018 7.64331L91.9563 16.8418C92.6104 16.4726 94.3509 14.8007 93.4754 12.3903C92.6578 10.1381 89.4193 8.12328 88.6018 7.64331Z" fill="#569986"/>
<path d="M115.048 8.5293C115.364 9.42067 116.546 13.0442 115.723 15.3016C114.847 17.7067 112.432 17.8702 111.693 17.7278L115.048 8.5293Z" fill="#569986"/>
<path d="M114.779 8.4292L111.424 17.6277C110.77 17.2585 109.024 15.5865 109.905 13.1814C110.728 10.924 113.961 8.90917 114.779 8.4292Z" fill="#569986"/>
<path d="M77.4148 27.0108C77.4412 27.9602 77.6521 31.763 79.2345 33.5668C80.9223 35.492 83.2324 34.7694 83.8706 34.3685L77.4148 27.0055V27.0108Z" fill="#569986"/>
<path d="M77.6257 26.8262L84.0869 34.1892C84.5616 33.609 85.5848 31.4149 83.8917 29.4845C82.3094 27.6806 78.5646 26.9791 77.6257 26.8262Z" fill="#569986"/>
<path d="M79.2134 16.8527C79.2398 17.8021 79.4507 21.6049 81.0383 23.414C82.7261 25.3391 85.0363 24.6113 85.6745 24.2157L79.2187 16.8527H79.2134Z" fill="#569986"/>
<path d="M79.4243 16.668L85.8854 24.031C86.3601 23.4508 87.3781 21.2567 85.6903 19.3315C84.108 17.5277 80.3632 16.8209 79.4243 16.6732V16.668Z" fill="#569986"/>
<path d="M96.3337 72.0354C97.2932 107.79 73.3591 116.771 49.3664 117.417C25.3736 118.063 0.989208 110.381 0.0232312 74.6331C-0.936219 38.8789 28.0431 0.494349 46.2008 0.00483403C64.3651 -0.484681 95.3677 36.2877 96.3337 72.0419V72.0354Z" fill="#8D7459"/>
<path d="M16.7777 71.6045C15.8444 62.0688 15.4658 52.4939 15.3026 42.9189C15.1982 37.0187 15.3222 31.1118 15.2047 25.2115C15.0089 25.5183 14.8131 25.8251 14.6173 26.1384C14.6434 29.0559 14.6173 31.9799 14.5977 34.9105C14.5325 44.4789 14.7022 54.0473 15.2961 63.5961C15.5963 68.3933 16.1446 73.171 16.484 77.9617C16.8299 82.7785 17.1301 87.5954 17.4238 92.4187C17.7176 97.2355 18.0047 102.059 18.3246 106.876C18.4225 108.344 18.5138 109.813 18.6183 111.281C18.9707 111.484 19.3297 111.673 19.6887 111.869C19.3819 108.083 19.1665 104.278 18.9185 100.492C18.2789 90.8588 17.7176 81.2251 16.7777 71.6111V71.6045Z" fill="#C3BDAF"/>
<path d="M54.144 81.7799C54.4769 62.6235 56.2131 43.3758 58.7781 24.3957C59.607 18.2604 60.5469 12.1448 61.5847 6.04213C61.3954 5.90506 61.2126 5.78105 61.0234 5.65051C59.3394 15.1928 57.8905 24.7873 56.7352 34.4144C54.49 53.1139 52.9757 72.0353 53.0802 90.8718C53.1258 99.1805 53.6415 107.444 54.3464 115.72C54.3855 116.196 54.4378 116.673 54.4769 117.149C54.8424 117.116 55.2079 117.09 55.58 117.058C55.3646 114.714 55.1818 112.371 54.986 110.028C54.2028 100.636 53.9809 91.2047 54.144 81.7864V81.7799Z" fill="#C3BDAF"/>
<path d="M70.2523 95.2449C69.6714 76.1864 70.8919 57.128 72.4779 38.1413C73.0392 31.4121 73.6266 24.6764 74.1488 17.9341C73.953 17.7122 73.7637 17.4838 73.5744 17.2618C73.1437 22.5094 72.6737 27.7505 72.2038 32.9916C70.4938 52.0109 68.9795 71.0498 69.1427 90.1604C69.208 98.1428 69.593 106.125 70.2784 114.081C70.6178 113.964 70.9506 113.853 71.29 113.729C71.1921 112.306 71.0942 110.89 70.9898 109.487C70.6373 104.748 70.4089 99.9964 70.2588 95.2449H70.2523Z" fill="#C3BDAF"/>
<path d="M91.8889 85.6764C90.9686 76.0493 90.1593 66.4025 89.598 56.7493C89.3043 51.7106 89.128 46.6588 88.9583 41.6135C88.6973 41.0261 88.4296 40.4387 88.1555 39.8578C88.2143 42.3119 88.2795 44.7529 88.3774 47.1809C89.0236 63.459 90.4008 79.6717 91.9737 95.8779C92.2348 95.3362 92.4894 94.7814 92.7309 94.2136C92.4437 91.3678 92.163 88.5156 91.8889 85.6699V85.6764Z" fill="#C3BDAF"/>
<path d="M43.6423 56.645C43.094 47.0701 43.5901 37.4495 44.6278 27.9202C45.6395 18.6064 47.2973 9.40349 48.9225 0.19408C48.6027 0.148392 48.2894 0.102703 47.9761 0.0700684C44.6474 16.6222 42.35 33.5725 42.5654 50.4445C42.6894 59.928 43.8707 69.405 44.6605 78.8559C45.4502 88.3329 46.1551 97.8165 46.6642 107.313C46.8405 110.694 46.9906 114.075 47.1081 117.462C47.3365 117.462 47.5649 117.462 47.7934 117.456C47.4409 106.66 46.7752 95.8649 45.9528 85.0956C45.2348 75.6186 44.1971 66.1481 43.6488 56.658L43.6423 56.645Z" fill="#C3BDAF"/>
<path d="M81.1327 74.6069C81.4003 65.0058 81.9811 55.4179 82.4511 45.8299C82.7121 40.5954 82.8427 35.3543 82.9014 30.1132C82.6665 29.7281 82.4315 29.343 82.19 28.9645C82.0595 36.5226 81.7658 44.0676 81.3415 51.6127C80.7998 61.2007 80.2515 70.7821 80.0753 80.3832C79.8991 89.8863 80.1275 99.3502 80.5518 108.847C80.5518 108.925 80.5518 108.997 80.5583 109.075C80.8977 108.847 81.2306 108.605 81.5634 108.364C81.4786 106.615 81.3872 104.872 81.3154 103.129C80.8977 93.6196 80.865 84.1165 81.1261 74.6069H81.1327Z" fill="#C3BDAF"/>
<path d="M30.3014 86.8122C28.2193 68.1062 26.5419 49.2631 22.913 30.779C22.0775 26.5496 21.1899 22.3267 20.3218 18.1103C20.3218 18.0908 20.3153 18.0712 20.3088 18.0581C20.1586 18.2474 20.0085 18.4432 19.8584 18.6325C19.9041 18.8674 19.9563 19.1024 19.9955 19.3309C20.8831 23.9584 21.8621 28.5729 22.7041 33.207C24.4207 42.6253 25.6477 52.1284 26.6659 61.6445C28.6109 79.7892 30.8301 97.9078 32.1159 116.118C32.4487 116.183 32.7881 116.248 33.1275 116.314C33.1079 116.02 33.0818 115.72 33.0623 115.426C32.3508 105.864 31.3587 96.3349 30.3014 86.8122Z" fill="#C3BDAF"/>
<path d="M35.5099 81.9366C33.2254 63.2567 34.459 44.4462 34.2045 25.675C34.1131 18.8283 33.8781 11.9816 33.4147 5.14795C33.2646 5.25238 33.1145 5.36334 32.9644 5.47429C33.9108 20.8255 33.6366 36.2354 33.4343 51.6193C33.3103 60.9005 33.4669 70.0838 34.4133 79.3258C35.2944 87.8956 36.6977 96.4654 38.7863 104.833C39.811 108.932 40.9206 113.102 41.6647 117.312C41.978 117.332 42.2847 117.345 42.598 117.358C42.0171 114.114 41.2143 110.909 40.4376 107.803C38.3033 99.2589 36.5803 90.6826 35.5099 81.9366Z" fill="#C3BDAF"/>
<path d="M61.3627 87.0928C62.2765 77.4069 64.0518 67.7863 65.3507 58.1396C66.6299 48.6364 67.7656 39.1138 68.7903 29.578C69.3647 24.2455 69.7563 18.9 70.174 13.5545C70.0239 13.4044 69.8803 13.2478 69.7302 13.0977C69.4561 16.348 69.2276 19.6115 68.9339 22.8618C68.0658 32.4955 66.7605 42.1096 65.4877 51.691C64.2215 61.2137 62.7138 70.6973 61.3627 80.2004C60.0508 89.3968 59.6135 98.691 59.4308 107.959C59.372 110.838 59.3394 113.722 59.3198 116.607C59.6266 116.562 59.9268 116.516 60.2336 116.47C60.2336 116.066 60.2336 115.654 60.2401 115.25C60.2923 105.851 60.4751 96.4523 61.3627 87.0862V87.0928Z" fill="#C3BDAF"/>
<path d="M6.49787 63.9224C5.61674 59.693 4.6573 55.4375 3.22139 51.3517C3.12348 51.6911 3.03211 52.0305 2.9342 52.3764C4.19389 56.2077 5.06195 60.176 5.87781 64.1117C7.22234 70.619 8.63216 77.1198 9.68298 83.6858C10.8774 91.1721 11.6671 98.7433 11.9152 106.328C12.1828 106.582 12.4569 106.83 12.7245 107.072C12.5091 99.1936 11.6345 91.3288 10.3748 83.5683C9.30442 76.9762 7.86198 70.4558 6.49787 63.9224Z" fill="#C3BDAF"/>
<path d="M64.0909 90.7739L74.4099 82.4391L73.3134 81.0097L52.9626 95.669L51.716 74.9919L63.9604 61.9316L62.6223 60.6328L51.4679 70.8082L50.1691 49.2434L43.3028 49.4327L43.1984 66.3699L32.0048 57.043L30.7517 58.4267L43.1658 70.6385L43.0613 88.261L23.7026 76.095L22.4756 77.8964L32.1876 85.0629L20.2303 85.9048L20.2695 87.3603L35.5554 87.5431L43.0287 93.0583L42.7154 143.485H55.8148L53.1975 99.5721L60.8862 93.3585L76.9749 92.4382L76.9423 90.9827L64.0909 90.7739Z" fill="#C8BC93"/>
</svg>
