<svg width="964" height="538" viewBox="0 0 964 538" fill="none" xmlns="http://www.w3.org/2000/svg">
<path d="M377.005 20.4462C398.742 15.5795 421.799 14.9577 443.866 17.6161C467.299 20.437 489.824 26.5751 510.915 37.3329C529.58 46.8548 545.572 60.5007 562.942 72.0487C566.995 74.7434 571.127 77.3288 575.386 79.6913C577.5 80.8642 579.644 81.9867 581.822 83.0419C582.812 83.5193 583.807 83.9838 584.808 84.4335C585.141 84.5729 585.795 84.8485 586.03 84.9335C591.356 86.8463 596.687 88.5241 602.265 89.5624C605.565 90.1762 609.984 90.6008 615.63 90.6513C621.469 90.7053 627.309 90.3219 633.099 89.6064C632.305 89.7153 630.963 89.9448 633.942 89.4784C635.287 89.2683 636.632 89.0495 637.973 88.8183C640.677 88.3516 643.368 87.8259 646.05 87.2626C657.228 84.9126 668.238 81.8518 679.252 78.8544C721.93 67.239 777.241 55.5989 810.691 93.7997C817.653 101.753 823.202 111.137 825.535 121.537C828.108 132.988 827.381 144.435 826.456 156.009C826.014 161.545 825.59 167.107 825.813 172.665C825.855 173.653 825.935 174.641 825.994 175.629C826.259 180.173 825.115 172.88 826.233 177.277C826.75 179.316 827.214 181.327 827.893 183.309C828 183.506 828.401 184.379 828.768 185.054C829.126 185.709 829.504 186.353 829.899 186.988C830.146 187.384 830.408 187.769 830.673 188.15C830.426 187.834 830.886 188.571 831.286 189.028C831.451 189.264 831.614 189.501 831.774 189.741C829.828 186.82 830.76 188.488 831.383 189.136C833.587 191.44 835.777 193.634 838.184 195.684C838.501 195.904 839.984 197.038 840.434 197.351C841.225 197.901 842.019 198.439 842.822 198.969C844.445 200.036 846.092 201.071 847.753 202.084C851.116 204.135 854.539 206.099 857.935 208.096C865.662 212.644 873.178 217.492 880.001 223.348C896.762 237.742 902.509 258.328 903.543 279.68C904.014 289.378 903.686 299.098 904.308 308.788C904.43 310.718 904.619 312.634 904.8 314.556C904.807 314.631 904.82 314.73 904.837 314.843C905.259 317.12 905.641 319.39 906.209 321.64C906.81 324.023 907.575 326.339 908.416 328.642C907.504 326.146 908.651 329.176 908.941 329.786C909.488 330.934 910.063 332.065 910.669 333.184C912.123 335.874 913.742 338.48 915.466 341.007C916.041 341.856 916.63 342.692 917.231 343.524C917.266 343.574 919.417 346.392 919.041 345.94C922.078 349.755 925.293 353.429 928.522 357.082C935.904 365.439 943.325 373.805 949.631 383.02C961.797 400.795 968.359 423.492 960.737 444.448C956.945 454.865 950.484 463.908 941 469.856C930.435 476.482 917.66 477.142 905.569 476.524C900.016 476.243 894.547 476.314 889.002 476.276C886.395 476.259 892.184 475.368 887.791 476.461C886.698 476.734 885.609 476.97 884.529 477.289C883.908 477.475 883.294 477.681 882.683 477.893C883.118 477.742 881.44 478.345 880.854 478.63C872.463 482.703 865.174 488.623 857.405 493.71C848.674 499.423 838.971 503.975 828.579 505.484C817.527 507.09 806.836 506.367 795.919 503.992C776.135 499.687 757.806 490.351 737.884 486.542C736.906 486.354 735.927 486.179 734.944 486.021C734.592 485.979 733.914 485.895 733.63 485.878C731.318 485.743 729.026 485.537 726.71 485.533C724.616 485.529 722.527 485.617 720.442 485.794C719.69 485.857 715.561 486.479 719.702 485.807C718.886 485.937 718.071 486.063 717.26 486.21C712.791 487.017 708.398 488.203 704.097 489.653C702.122 490.317 700.187 491.065 698.241 491.809C698.108 491.86 697.987 491.905 697.879 491.946C696.939 492.358 696 492.774 695.067 493.205C661.533 508.654 632.601 533.76 594.522 537.325C549.978 541.495 513.702 510.298 478.221 488.539C468.808 482.767 459.11 477.461 449.201 472.589C444.131 470.096 439.01 467.717 433.84 465.442C432.462 464.834 431.077 464.234 429.692 463.643C430.391 463.937 431.264 464.289 428.694 463.231C426.205 462.21 423.708 461.197 421.203 460.213C400.314 452.003 378.845 445.314 357.161 439.551C335.393 433.766 313.394 428.91 291.332 424.395C286.148 423.336 280.96 422.285 275.752 421.344C273.562 420.944 271.367 420.566 269.169 420.213C267.697 419.977 266.221 419.755 264.75 419.536C264.565 419.509 264.399 419.484 264.25 419.462C254.123 418.197 243.879 417.532 233.683 418.249C232.246 418.35 230.82 418.501 229.387 418.636C224.751 419.073 232.468 417.93 227.929 418.863C225.616 419.338 223.3 419.741 221.009 420.33C218.734 420.914 216.489 421.592 214.278 422.378C213.713 422.58 213.15 422.789 212.59 423.004C213.778 422.562 210.573 423.927 210.263 424.084C208.141 425.143 206.068 426.313 204.067 427.595C202.907 428.339 201.788 429.137 200.662 429.928C200.646 429.939 200.629 429.951 200.613 429.962C197.408 432.615 194.319 435.378 191.291 438.234C176.998 451.708 162.141 466.485 141.299 467.469C121.515 468.402 106.44 455.551 94.0213 441.745C89.0313 436.198 84.1007 430.687 78.4881 425.773C79.3406 426.54 76.5556 424.312 75.9441 423.916C75.301 423.5 74.6451 423.1 73.9852 422.718C72.8417 422.058 71.6518 421.508 70.4832 420.89C70.3165 420.801 70.0169 420.669 69.743 420.553C65.8566 419.049 61.8883 417.775 57.9559 416.404C47.7277 412.835 37.2939 408.42 30.0926 399.975C22.1346 390.638 18.9687 379.191 17.2283 367.298C13.6424 342.764 14.8954 317.785 21.5838 293.848C24.7535 282.514 28.2885 269.217 36.49 260.443C44.5321 251.842 54.916 245.048 65.741 240.588C75.1662 236.699 85.2014 234.795 95.0428 232.289C99.7641 231.087 104.463 229.752 109.015 228.007L109.109 227.97C107.917 228.416 111.326 226.949 111.547 226.837C112.429 226.391 113.3 225.929 114.158 225.445C115.461 224.714 116.68 223.873 117.95 223.091C118.175 222.952 118.653 222.574 118.952 222.336C122.448 219.282 125.445 215.854 128.434 212.295C126.748 214.303 128.251 212.556 128.594 212.098C129.422 210.988 130.246 209.878 131.066 208.76C132.432 206.897 133.782 205.023 135.161 203.169C141.816 194.206 148.562 186.105 157.777 179.66C175.925 166.964 199.195 166.494 220.437 165.022C222.867 164.854 225.292 164.674 227.718 164.451C229.164 164.317 230.606 164.16 232.053 164.005C232.18 163.991 232.299 163.977 232.409 163.965C236.884 163.279 241.303 162.367 245.652 161.101C248.271 160.335 250.801 159.389 253.37 158.489C257.452 157.06 251.613 159.377 253.997 158.263C255.022 157.783 256.06 157.333 257.082 156.842C261.16 154.874 265.112 152.629 268.891 150.132C270.026 149.379 271.144 148.61 272.25 147.815C272.565 147.591 275.27 145.43 274.144 146.368C275.642 145.132 277.119 143.879 278.548 142.565C281.717 139.656 284.702 136.541 287.472 133.249C287.919 132.718 290.781 128.873 288.797 131.647C289.322 130.908 289.865 130.184 290.382 129.44C291.681 127.587 292.912 125.682 294.072 123.74C296.262 120.072 298.144 116.254 299.899 112.365C299.396 113.463 300.883 109.997 301.094 109.455C301.518 108.37 301.934 107.281 302.342 106.188C303.157 103.998 303.948 101.8 304.725 99.5927C306.277 95.187 307.778 90.7602 309.371 86.3671C312.78 76.9588 316.479 67.4536 321.65 58.8525C333.757 38.7074 353.133 26.3265 375.691 20.7353L375.738 20.7109C376.162 20.6059 376.584 20.5177 377.005 20.4462ZM830.673 188.15C830.426 187.834 830.886 188.571 831.286 189.028C831.082 188.735 830.876 188.444 830.673 188.15Z" fill="#C1EEC1"/>
<path d="M364.618 19.8785C352.036 22.9053 340.177 28.1014 330.882 36.9464C310.88 55.986 307.849 86.4097 295.069 110.889C281.217 137.416 254.741 156.985 225.318 162.446C199.552 167.226 170.33 162.404 149.302 178.042C134.244 189.246 127.043 208.744 111.858 219.77C96.8333 230.684 77.4028 231.979 60.2341 237.616C51.5025 240.483 44.5451 244.599 37.7642 250.728C35.2082 253.04 32.421 254.848 30.5797 257.828C27.721 262.448 25.9764 268.124 24.2234 273.236C15.5969 298.4 13.3394 325.751 17.9385 351.962C19.2375 359.365 21.2008 366.945 25.968 372.755C35.6916 384.602 53.3943 385.371 66.6703 393.035C87.1938 404.885 98.1954 433.649 121.813 435.587C144.771 437.47 159.598 412.785 178.435 399.521C205.752 380.288 242.734 385.522 275.474 392.156C344.356 406.105 414.115 423.231 473.655 460.571C505.672 480.648 537.706 507.402 575.457 505.754C624.95 503.598 663.168 452.734 712.698 453.71C749.482 454.433 785.216 484.201 819.776 471.593C837.18 465.245 850.174 448.942 868.314 445.188C883.583 442.027 900.411 448.333 914.604 441.871C930.015 434.855 935.766 414.748 931.756 398.298C927.745 381.844 916.399 368.299 905.166 355.628C893.933 342.958 882.149 329.976 876.907 313.871C867.928 286.289 879.278 253.065 863.131 228.973C847.122 205.086 809.893 200.231 798.378 173.88C789.516 153.609 800.236 129.613 794.708 108.194C790.101 90.3487 774.382 76.8289 756.877 71.0654C739.372 65.3018 720.307 66.3192 702.193 69.7285C659.603 77.7454 616.584 98.5842 574.864 86.8426C544.71 78.3549 521.807 54.3128 494.666 38.67C462.494 20.1266 424.217 13.6357 387.193 16.486C379.668 17.0661 372.017 18.0961 364.618 19.8743V19.8785Z" fill="#36BC87"/>
<path d="M360.427 4.67715C337.869 10.2684 318.493 22.6488 306.386 42.794C301.215 51.3952 297.516 60.9003 294.106 70.3086C292.513 74.7017 291.012 79.1284 289.461 83.5341C288.683 85.7412 287.893 87.9398 287.077 90.1301C286.67 91.2231 286.253 92.3119 285.829 93.3965C285.585 94.0229 283.639 98.5589 285.03 95.4312C283.163 99.6225 281.162 103.738 278.808 107.681C277.648 109.624 276.416 111.528 275.117 113.382C274.6 114.126 274.058 114.849 273.532 115.589C275.517 112.814 272.654 116.661 272.208 117.191C269.438 120.482 266.453 123.597 263.283 126.506C261.614 128.041 259.882 129.495 258.125 130.933C260.845 128.701 257.347 131.501 256.986 131.757C255.88 132.552 254.762 133.321 253.627 134.074C249.847 136.571 245.896 138.816 241.818 140.783C240.796 141.275 239.758 141.725 238.732 142.204C236.349 143.318 242.188 141.002 238.106 142.431C235.537 143.331 233.007 144.276 230.388 145.042C225.957 146.332 221.454 147.257 216.893 147.946C217.536 147.85 219.928 147.606 216.788 147.946C215.342 148.102 213.9 148.258 212.454 148.392C210.028 148.615 207.602 148.796 205.173 148.964C183.93 150.435 160.661 150.906 142.513 163.602C133.298 170.046 126.551 178.147 119.896 187.11C118.517 188.964 117.168 190.839 115.802 192.701C114.982 193.82 114.158 194.929 113.33 196.039C112.981 196.506 111.429 198.309 113.267 196.123C110.021 199.991 106.772 203.707 102.891 206.961C105.124 205.086 103.211 206.709 102.685 207.032C101.416 207.814 100.197 208.655 98.8934 209.387C98.0358 209.87 97.1656 210.333 96.2828 210.778C96.0347 210.904 91.6122 212.804 94.6601 211.594C89.8256 213.515 84.8145 214.948 79.7782 216.231C69.9368 218.736 59.9021 220.641 50.4769 224.529C39.6518 228.99 29.2682 235.783 21.2261 244.384C13.0243 253.158 9.48876 266.455 6.31901 277.789C-0.369412 301.726 -1.62217 326.705 1.96377 351.239C3.70418 363.132 6.86975 374.579 14.8278 383.916C22.0291 392.362 32.4632 396.776 42.6913 400.345C46.912 401.817 51.1748 403.174 55.3324 404.827C52.4486 403.683 54.6388 404.524 55.2189 404.831C56.3876 405.449 57.5773 405.999 58.7208 406.659C59.3808 407.042 60.0366 407.441 60.6798 407.858C61.4197 408.337 65.3419 411.498 62.1512 408.791C68.2132 413.932 73.4513 419.788 78.7566 425.686C91.175 439.492 106.25 452.343 126.034 451.41C146.877 450.426 161.733 435.65 176.027 422.176C179.138 419.242 182.312 416.404 185.612 413.684C185.187 414.033 183.039 415.526 185.397 413.869C186.524 413.079 187.642 412.28 188.802 411.536C190.804 410.254 192.876 409.085 194.999 408.026C195.356 407.845 199.619 406.033 196.382 407.311C197.252 406.966 198.131 406.634 199.014 406.319C201.225 405.533 203.47 404.856 205.744 404.272C208.035 403.683 210.352 403.279 212.664 402.804C217.204 401.871 209.486 403.015 214.123 402.577C215.556 402.443 216.981 402.292 218.419 402.191C228.702 401.468 239.035 402.149 249.246 403.435C248.582 403.351 246.329 403.006 249.486 403.477C250.957 403.696 252.433 403.918 253.904 404.154C256.103 404.507 258.297 404.885 260.488 405.285C265.696 406.226 270.884 407.277 276.067 408.337C298.129 412.852 320.128 417.707 341.896 423.492C363.58 429.255 385.049 435.944 405.939 444.154C408.444 445.138 410.941 446.151 413.43 447.173C416.394 448.392 414.78 447.736 414.132 447.458C415.616 448.089 417.1 448.732 418.576 449.384C423.746 451.658 428.867 454.038 433.937 456.53C443.845 461.403 453.544 466.708 462.956 472.48C498.437 494.24 534.713 525.437 579.258 521.266C617.337 517.702 646.268 492.596 679.803 477.146C680.95 476.617 682.106 476.108 683.262 475.604C682.762 475.822 680.244 476.793 682.977 475.751C684.923 475.007 686.857 474.258 688.833 473.594C693.133 472.144 697.526 470.958 701.995 470.151C702.806 470.004 703.622 469.878 704.438 469.748C700.297 470.42 704.425 469.798 705.177 469.735C707.263 469.558 709.352 469.47 711.445 469.474C713.762 469.479 716.053 469.685 718.365 469.819C718.983 469.857 721.463 470.21 718.403 469.769C719.815 469.97 721.22 470.214 722.619 470.483C742.542 474.292 760.871 483.629 780.654 487.934C791.572 490.309 802.263 491.032 813.315 489.426C823.707 487.917 833.409 483.364 842.141 477.651C849.91 472.564 857.199 466.645 865.59 462.572C866.376 462.189 869.13 461.235 866.103 462.298C867.154 461.928 868.197 461.55 869.264 461.23C870.345 460.911 871.434 460.675 872.527 460.402C876.92 459.309 871.131 460.2 873.737 460.217C879.282 460.255 884.752 460.184 890.305 460.465C902.396 461.083 915.171 460.423 925.736 453.798C935.22 447.849 941.681 438.807 945.473 428.389C953.095 407.433 946.532 384.736 934.366 366.962C928.06 357.747 920.64 349.381 913.258 341.024C909.836 337.152 906.427 333.259 903.232 329.198C905.073 331.54 902.009 327.525 901.967 327.466C901.366 326.634 900.777 325.797 900.201 324.948C898.478 322.421 896.859 319.815 895.404 317.124C894.799 316.006 894.223 314.875 893.677 313.728C893.387 313.118 892.239 310.087 893.151 312.584C892.31 310.281 891.545 307.964 890.944 305.581C890.36 303.264 889.973 300.927 889.536 298.581C890.086 301.528 889.595 299.136 889.536 298.497C889.355 296.576 889.166 294.659 889.044 292.729C888.422 283.039 888.75 273.32 888.279 263.621C887.245 242.27 881.498 221.683 864.737 207.289C857.914 201.433 850.397 196.586 842.671 192.037C839.274 190.04 835.852 188.077 832.489 186.026C830.828 185.012 829.18 183.978 827.558 182.91C826.755 182.381 825.96 181.843 825.17 181.292C824.438 180.783 820.978 178.105 824.232 180.712C821.294 178.358 818.717 175.793 816.119 173.077C815.497 172.43 814.563 170.761 816.51 173.683C815.892 172.758 815.223 171.875 814.635 170.929C814.24 170.294 813.861 169.651 813.504 168.995C812.861 167.814 812.125 166.023 813.016 168.314C812.112 165.99 811.578 163.623 810.969 161.218C809.851 156.821 810.994 164.115 810.729 159.57C810.67 158.582 810.591 157.594 810.549 156.607C810.326 151.049 810.75 145.487 811.192 139.951C812.117 128.377 812.844 116.93 810.271 105.479C807.938 95.078 802.389 85.6949 795.427 77.7411C761.977 39.5402 706.666 51.1808 663.987 62.7962C652.973 65.7936 641.963 68.8541 630.785 71.2041C628.103 71.7674 625.412 72.2929 622.709 72.7595C621.368 72.9907 620.023 73.2093 618.678 73.4195C615.428 73.9282 617.32 73.6129 618.034 73.5246C612.178 74.2561 606.272 74.647 600.366 74.5924C594.72 74.5419 590.301 74.1174 587.001 73.5036C581.423 72.4652 576.092 70.7879 570.766 68.8751C570.278 68.6985 567.983 67.7022 570.509 68.8036C569.181 68.2235 567.865 67.6139 566.558 66.9833C564.38 65.9281 562.236 64.8057 560.121 63.6328C555.863 61.2702 551.73 58.6848 547.678 55.9901C530.307 44.4419 514.316 30.7961 495.65 21.2742C474.559 10.5164 452.035 4.37866 428.602 1.55783C406.094 -1.15369 382.557 -0.45582 360.44 4.68136C352.402 6.5479 346.882 16.2001 349.43 24.074C352.15 32.4734 360.209 37.0851 368.822 35.084C371.685 34.4198 374.561 33.8733 377.453 33.3478C378.996 33.0662 380.492 32.8686 383.729 32.5617C389.119 32.0446 394.529 31.7545 399.944 31.6536C405.262 31.5569 410.584 31.6537 415.898 31.9606C418.555 32.1119 421.207 32.3179 423.852 32.5701C424.911 32.671 425.966 32.7845 427.026 32.9022C427.496 32.9569 431.881 33.5538 429.161 33.1545C439.911 34.7309 450.534 37.1818 460.846 40.6206C463.104 41.3731 465.344 42.1718 467.568 43.0168C469.048 43.5801 470.528 44.1561 471.991 44.7741C471.339 44.4966 469.716 43.7483 472.592 45.0683C477.632 47.3805 482.572 49.865 487.369 52.6564C504.403 62.5776 519.436 75.4836 536.079 86.0018C555.148 98.0544 576.084 105.542 598.781 106.088C621.541 106.639 644.099 100.871 665.896 94.9604C676.666 92.0387 687.416 89.0118 698.312 86.5988C703.458 85.4595 708.641 84.4253 713.863 83.6855C716.986 83.244 710.155 84.0008 715.519 83.5005C716.637 83.3954 717.751 83.2735 718.874 83.1768C722.224 82.8951 725.583 82.7312 728.946 82.7228C731.734 82.7186 734.525 82.8069 737.304 83.0213C738.414 83.1053 739.519 83.2062 740.625 83.3366C738.128 83.0465 741.613 83.5131 742.201 83.6224C744.661 84.068 747.103 84.6188 749.508 85.2956C751.004 85.716 752.488 86.1784 753.955 86.6955C754.708 86.9603 758.298 88.5452 755.103 87.0654C758.975 88.8605 762.388 91.139 766.05 93.2872C768.215 94.561 763.389 90.9414 766.542 93.6319C767.21 94.2037 767.887 94.767 768.539 95.3555C770.494 97.1254 772.28 99.0297 773.995 101.022C775.925 103.263 774.243 101.409 773.924 100.93C774.647 102.015 775.391 103.074 776.064 104.192C776.509 104.932 776.934 105.689 777.342 106.454C777.354 106.475 779.162 110.309 778.208 108.098C777.253 105.891 778.792 109.842 778.801 109.872C779.07 110.704 779.313 111.545 779.532 112.39C779.91 113.844 780.213 115.32 780.448 116.804C780.003 114 780.474 117.796 780.52 118.591C781.117 128.781 779.49 138.921 779.074 149.086C778.225 169.731 784.745 189.031 801.069 202.295C807.862 207.814 815.135 212.451 822.677 216.865C826.086 218.862 829.508 220.838 832.863 222.919C834.528 223.953 836.18 225.008 837.798 226.11C838.912 226.867 843.204 230.158 840.241 227.749C843.23 230.179 845.908 232.786 848.548 235.585C850.431 237.582 848.535 235.48 848.228 235.06C848.955 236.065 849.666 237.069 850.326 238.125C850.822 238.919 851.293 239.73 851.743 240.55C852.218 241.425 853.588 244.376 852.512 241.799C854.29 246.057 855.303 250.589 856.098 255.117C856.636 258.177 856.174 255.722 856.106 255.096C856.253 256.504 856.396 257.917 856.506 259.329C856.691 261.713 856.804 264.105 856.884 266.493C857.624 288.265 856.846 309.448 866.469 329.631C871.232 339.624 878.265 348.477 885.387 356.872C888.556 360.61 891.835 364.255 895.076 367.929C896.783 369.867 898.486 371.813 900.151 373.785C900.819 374.575 901.483 375.374 902.139 376.173C902.795 376.971 903.447 377.779 904.09 378.59C903.375 377.644 903.341 377.602 903.997 378.468C910.614 387.254 914.734 394.279 916.727 403.078C916.949 404.07 917.113 405.066 917.303 406.062C916.634 402.556 917.143 404.658 917.151 405.52C917.172 407.58 917.303 409.611 917.176 411.671C917.16 411.923 916.508 415.744 917.059 413.243C917.622 410.678 916.714 414.605 916.676 414.765C916.491 415.555 916.285 416.345 916.058 417.123C915.785 418.056 913.645 422.592 915.52 418.994C914.763 420.448 913.355 422.121 912.897 423.639C912.346 425.447 915.23 421.323 912.867 423.706C912.317 424.261 911.816 424.854 911.257 425.4C910.526 426.111 907.667 427.822 910.833 425.909C910.156 426.321 909.521 426.771 908.828 427.166C908.865 427.145 905.464 428.6 907.138 428.024C908.05 427.586 907.709 427.662 906.124 428.242C905.145 428.516 904.157 428.747 903.161 428.936C903.816 428.797 906.07 428.743 902.812 428.97C901.525 429.058 900.243 429.121 898.957 429.146C896.607 429.188 894.257 429.108 891.907 428.999C886.126 428.738 880.329 428.213 874.54 428.608C863.211 429.382 852.895 432.976 843.238 438.912C835.478 443.683 828.398 449.506 820.44 453.966C819.65 454.407 818.855 454.836 818.052 455.248C818.103 455.223 814.101 457.115 816.257 456.165C818.427 455.21 814.214 456.875 814.303 456.846C813.205 457.211 812.096 457.535 810.973 457.825C809.867 458.111 808.753 458.326 807.635 458.574C804.671 459.225 807.169 458.666 807.812 458.603C805.13 458.864 802.448 458.985 799.753 458.901C798.853 458.872 797.954 458.83 797.058 458.767C796.503 458.729 792.005 458.229 795.843 458.746C793.796 458.468 791.761 458.082 789.743 457.657C784.9 456.636 780.137 455.278 775.421 453.785C756.07 447.652 737.463 439.715 716.982 438.147C679.735 435.301 648.509 458.733 617.53 475.633C613.768 477.685 609.959 479.66 606.087 481.489C605.318 481.851 604.548 482.208 603.775 482.561C603.724 482.582 599.907 484.268 602.169 483.293C604.422 482.321 600.601 483.911 600.542 483.936C599.369 484.394 598.192 484.835 597.002 485.256C593.072 486.652 589.065 487.837 584.992 488.728C583.924 488.959 577.568 489.973 581.788 489.447C579.703 489.708 577.605 489.893 575.504 489.981C573.044 490.09 570.581 490.073 568.126 489.947C566.915 489.884 565.7 489.699 564.489 489.67C561.748 489.598 568.126 490.355 563.644 489.582C558.877 488.758 554.194 487.639 549.591 486.143C547.274 485.39 545.004 484.537 542.73 483.667C538.379 482.002 544.281 484.47 541.75 483.263C540.64 482.733 539.501 482.254 538.387 481.724C533.876 479.589 529.475 477.243 525.145 474.759C507.161 464.446 490.547 451.948 472.646 441.493C453.338 430.214 432.932 420.911 412.089 412.848C371.378 397.096 328.746 387.006 286.064 378.237C245.009 369.8 199.741 362.59 164.331 390.584C157.601 395.906 151.606 402.044 145.305 407.849C143.749 409.283 142.177 410.699 140.563 412.07C139.928 412.608 139.28 413.133 138.641 413.667C135.631 416.16 140.508 412.721 138.419 413.823C136.855 414.647 135.451 415.891 133.92 416.799C132.907 417.4 131.852 417.905 130.83 418.481C128.077 420.036 133.618 417.77 130.343 418.691C128.687 419.153 126.5 420.289 124.777 420.104C128.216 420.474 126.463 419.94 125.475 419.885C124.836 419.847 122.326 420.255 121.851 419.805C121.872 419.826 125.782 420.663 122.7 419.902C121.809 419.683 120.922 419.502 120.043 419.242C119.476 419.074 117.824 418.821 117.483 418.367C119.421 419.212 119.858 419.376 118.79 418.868C118.303 418.636 117.824 418.388 117.353 418.128C115.747 417.253 114.326 416.152 112.77 415.206C116.302 417.354 111.753 414.29 110.795 413.415C107.936 410.804 105.279 407.979 102.673 405.117C97.3463 399.269 92.2512 393.156 86.2606 387.96C78.3026 381.058 69.8822 376.543 59.9904 372.961C55.7949 371.443 51.5531 370.048 47.3492 368.551C44.5536 367.555 46.912 368.412 47.4627 368.66C46.2772 368.135 45.1043 367.588 43.9609 366.983C43.2084 366.584 42.4601 366.167 41.7328 365.726C40.5557 365.011 38.7774 363.477 40.7827 365.243C39.8116 364.385 38.9035 363.51 38.0081 362.577C37.5583 362.111 36.7007 360.484 37.8568 362.367C37.2052 361.308 36.6671 360.189 36.0365 359.122C34.7669 356.973 36.8604 362.237 35.6497 358.033C34.2036 353.022 33.0853 348.002 32.3959 342.823C32.7911 345.799 32.1605 340.385 32.1647 340.41C32.0554 339.309 31.9587 338.203 31.8746 337.097C31.6602 334.335 31.5215 331.565 31.4542 328.795C31.3239 323.254 31.4794 317.705 31.9208 312.181C32.0554 310.524 32.2361 308.872 32.4001 307.216C32.4295 306.892 32.7868 304.134 32.4674 306.459C32.8415 303.714 33.325 300.982 33.8631 298.262C34.9351 292.826 36.2887 287.441 37.9198 282.144C38.7018 279.6 39.5636 277.082 40.4254 274.564C40.8373 273.358 41.2493 272.151 41.6907 270.953C41.922 270.327 43.2588 267.333 42.1195 269.738C42.5483 268.834 43.0696 267.951 43.4816 267.039C44.8353 264.012 42.0523 267.607 44.5662 265.627C46.6682 263.97 48.6146 262.091 50.6535 260.359C51.2 259.897 53.7896 258.043 51.4901 259.653C52.272 259.106 53.0497 258.551 53.8484 258.03C55.8495 256.723 57.9347 255.634 60.0324 254.511C63.9715 252.405 58.3802 254.974 60.9278 254.062C62.1091 253.637 63.2736 253.183 64.4633 252.788C67.0319 251.939 69.6341 251.207 72.249 250.518C93.0121 245.044 114.019 241.051 129.725 225.067C136.762 217.908 142.475 209.408 148.39 201.324C149.967 199.167 146.053 204.064 148.891 200.706C149.63 199.831 150.341 198.94 151.093 198.074C152.439 196.527 153.83 195.022 155.301 193.597C156.285 192.647 157.307 191.747 158.341 190.856C157.849 191.28 155.894 192.512 158.454 190.793C160.8 189.216 163.196 187.896 165.702 186.585C166.286 186.278 168.456 185.571 165.744 186.53C166.833 186.147 167.905 185.727 169.002 185.37C170.986 184.722 173 184.163 175.035 183.688C177.326 183.15 179.634 182.746 181.954 182.343C186.436 181.561 179.945 182.494 182.715 182.225C184.388 182.061 186.057 181.851 187.73 181.7C197.416 180.808 207.153 180.565 216.817 179.442C236.988 177.105 256.309 170.921 272.931 158.952C289.158 147.274 302.75 132.11 311.157 113.849C315.437 104.545 318.846 94.9141 322.218 85.2577C323.672 81.0832 325.144 76.9129 326.745 72.7973C327.166 71.7211 327.595 70.6534 328.028 69.5856C326.914 72.3433 327.809 70.0984 328.061 69.5561C329.213 67.0842 330.357 64.6123 331.647 62.2077C332.715 60.2234 333.854 58.277 335.082 56.3895C335.569 55.637 336.103 54.9097 336.591 54.153C338.924 50.525 334.539 56.2928 337.411 53.0516C338.773 51.5171 340.11 49.9785 341.581 48.545C342.191 47.948 346.76 44.1561 344.515 45.8208C348.417 42.9243 352.726 40.5197 357.178 38.5817C354.706 39.6579 357.03 38.6658 357.497 38.506C358.897 38.031 360.276 37.5013 361.688 37.0515C364.051 36.2948 366.447 35.6516 368.856 35.0546C376.864 33.0704 382.443 23.62 379.866 15.662C377.18 7.35925 369.054 2.52473 360.473 4.65191L360.427 4.67715Z" fill="#36BC87"/>
</svg>
