<svg width="96" height="121" viewBox="0 0 96 121" fill="none" xmlns="http://www.w3.org/2000/svg">
<path d="M69.6429 64.9072L73.43 65.4004L80.8012 63.8933L80.8505 62.9068L73.8191 63.6028L71.5611 63.3069L78.6912 57.5414L78.5542 56.6097L65.6477 65.2251L65.686 61.6244L67.2754 54.3901L66.3656 54.4395L63.9432 61.7669L63.8994 66.0745L52.2862 71.7304L50.938 51.1183L56.9994 46.8709L65.7737 49.1289L70.6733 48.4712L70.9692 47.4957L66.0313 47.6875L59.2629 45.5337L70.191 36.88L69.8567 35.888L60.3535 42.3824L60.3316 39.6147L61.8497 34.0739L60.9016 34.1014L59.0382 39.7079L59.0656 43.0236L50.664 46.986L49.3542 24.1378L45.7644 24.8612L44.482 46.6024L36.4476 42.9414L36.4969 39.6312L34.6719 34.0137L33.7238 33.9808L35.2035 39.5325L35.1597 42.3002L25.7004 35.7345L25.3606 36.7265L36.2339 45.4569L29.449 47.5614L24.5111 47.3367L24.8016 48.3123L29.6956 49.0083L38.4809 46.8051L44.2299 50.362L42.8324 70.996L31.4549 65.9649L31.4384 61.6573L29.0654 54.3134L28.1556 54.2586L29.6956 61.4983L29.7121 65.1045L16.8603 56.4015L16.7178 57.3332L23.8151 63.1425L21.5516 63.422L14.5256 62.6821L14.5695 63.6686L21.9243 65.2251L25.7223 64.7592L31.6193 69.0504L29.5257 70.026L22.1874 71.8565L15.5615 71.4838L15.8903 72.2839L22.3956 73.2156L30.3149 71.8017L33.6032 70.2671L42.4816 76.1586L39.4454 121H55.5142L52.5712 76.06L61.7182 70.3603L64.9955 71.9222L72.9093 73.3855L79.4201 72.5032L79.7544 71.703L73.1231 72.0318L65.8011 70.152L63.713 69.1546L69.6429 64.9072Z" fill="#C8BC93"/>
<path d="M31.0219 73.5936C29.7285 74.043 27.8925 75.9283 28.9338 78.9426C29.9751 81.9514 33.9485 84.2861 34.6445 84.0394C35.3405 83.7983 37.0176 79.5126 35.9708 76.4983C34.9295 73.4895 32.3098 73.1442 31.0219 73.5881V73.5936ZM35.4172 77.6985C35.3734 77.8026 35.2419 77.852 35.1432 77.8081L32.266 76.5312L33.0168 78.6905L35.198 79.7537C35.2473 79.7756 35.2857 79.8195 35.3022 79.8743C35.3241 79.9291 35.3186 79.9839 35.2912 80.0332C35.2419 80.1373 35.1103 80.1812 35.0117 80.1319L33.2086 79.255L34.4143 82.7351C34.4527 82.8447 34.3924 82.9653 34.2828 82.9982C34.1732 83.0365 34.0526 82.9762 34.0142 82.8721L32.5674 78.7069L31.685 80.5265C31.6357 80.6306 31.5042 80.6689 31.4055 80.6251C31.3562 80.5977 31.3178 80.5539 31.2959 80.5045C31.2795 80.4497 31.2795 80.3949 31.3069 80.3456L32.3701 78.1534L31.6247 75.9941L30.145 78.7891C30.0957 78.8878 29.9587 78.9316 29.8655 78.8768C29.7614 78.822 29.723 78.696 29.7778 78.5918L31.4384 75.446L31.1041 74.4815C31.0657 74.3719 31.126 74.2513 31.2356 74.2184C31.3452 74.18 31.4658 74.2403 31.5042 74.3499L32.0741 76.005L35.3131 77.4409C35.4172 77.4903 35.4666 77.6108 35.4172 77.715V77.6985Z" fill="#B2D982"/>
<path d="M33.1649 32.4243C34.2007 31.8653 35.5105 30.0074 34.2117 27.5905C32.9128 25.1736 29.2189 23.7322 28.6599 24.0282C28.1009 24.3296 27.2569 28.2043 28.5558 30.6212C29.8547 33.0381 32.1236 32.9778 33.1649 32.4243ZM28.8572 29.5306C28.8846 29.4374 28.9833 29.3771 29.0764 29.399L31.7016 30.0951L30.7699 28.3578L28.7695 27.7549C28.7257 27.7385 28.6873 27.7111 28.6654 27.6672C28.6435 27.6234 28.638 27.574 28.6489 27.5302C28.6764 27.437 28.7805 27.3822 28.8737 27.4096L30.5288 27.9084L29.0271 25.1133C28.9778 25.0256 29.0107 24.916 29.1038 24.8667C29.1915 24.8174 29.3011 24.8557 29.3505 24.9434L31.1481 28.292L31.6523 26.6259C31.6797 26.5327 31.7838 26.4779 31.877 26.5053C31.9208 26.5218 31.9647 26.5492 31.9866 26.593C32.0085 26.6369 32.014 26.6862 32.003 26.73L31.3947 28.7414L32.3264 30.4732L33.2033 27.8919C33.2361 27.7987 33.3403 27.7494 33.4334 27.7768C33.5266 27.8097 33.5759 27.9138 33.5485 28.007L32.562 30.9062L32.9786 31.6789C33.0279 31.7666 32.995 31.8762 32.9073 31.9256C32.8196 31.9749 32.71 31.9365 32.6607 31.8488L31.9482 30.5225L28.9997 29.7388C28.9065 29.7114 28.8462 29.6128 28.8737 29.5196L28.8572 29.5306Z" fill="#B2D982"/>
<path d="M23.8425 38.3981C21.2831 38.7324 18.7785 41.4946 18.8552 42.092C18.932 42.6839 22.0613 44.7171 24.6207 44.3883C27.1801 44.054 27.8871 42.0372 27.7446 40.9411C27.6021 39.8395 26.4074 38.0748 23.8425 38.4036V38.3981ZM27.076 41.1986L25.673 41.3795L24.0014 43.7142C23.9466 43.7909 23.8425 43.8074 23.7658 43.7525C23.6945 43.6977 23.6726 43.5881 23.7274 43.5169L25.2126 41.4453L23.3766 41.6864L22.1764 43.2429C22.149 43.2812 22.1107 43.3031 22.0613 43.3086C22.0175 43.3086 21.9736 43.3032 21.9353 43.2757C21.864 43.2209 21.8476 43.1113 21.9024 43.0346L22.8944 41.7467L19.9349 42.1303C19.8417 42.1413 19.754 42.0755 19.7431 41.9824C19.7321 41.8892 19.7979 41.807 19.8911 41.7905L23.4369 41.3302L22.1381 40.3327C22.0668 40.2779 22.0504 40.1683 22.1052 40.0971C22.1326 40.0642 22.1709 40.0368 22.2148 40.0313C22.2586 40.0313 22.308 40.0368 22.3408 40.0642L23.9082 41.2699L25.7442 41.0287L23.7658 39.3956C23.7 39.3408 23.689 39.2257 23.7438 39.1544C23.8041 39.0832 23.9083 39.0722 23.985 39.1325L26.2046 40.9685L27.0267 40.8643C27.1198 40.8534 27.202 40.9191 27.2185 41.0123C27.2294 41.1055 27.1637 41.1932 27.0705 41.2041L27.076 41.1986Z" fill="#B2D982"/>
<path d="M22.4286 51.502C21.8915 51.6609 20.4611 54.867 21.1516 57.2017C21.8422 59.5309 23.8207 59.8872 24.8236 59.5912C25.821 59.2953 27.2898 57.9197 26.5993 55.5905C25.9087 53.2613 22.9712 51.3431 22.4286 51.502ZM25.9361 55.8371L24.5605 58.1718L24.7797 58.9171C24.8017 59.0048 24.7578 59.0925 24.6701 59.1144C24.5879 59.1363 24.5002 59.0925 24.4728 59.0048L24.0947 57.7279L21.6778 56.5167C21.5956 56.4783 21.5682 56.3797 21.6065 56.3029C21.6449 56.2262 21.7435 56.1933 21.8203 56.2317L23.9686 57.3059L23.4754 55.6343L21.8477 54.7519C21.8093 54.73 21.7819 54.6971 21.7709 54.6588C21.76 54.6204 21.7655 54.5766 21.7819 54.5382C21.8203 54.4615 21.9244 54.4341 22.0011 54.4724L23.3438 55.2068L22.5437 52.5104C22.5163 52.4282 22.5656 52.3351 22.6533 52.3131C22.7355 52.2857 22.8287 52.335 22.8506 52.4227L23.8042 55.6453L24.5386 54.2916C24.5824 54.2149 24.6811 54.1875 24.7523 54.2258C24.7907 54.2477 24.8181 54.2806 24.8291 54.319C24.84 54.3628 24.84 54.4067 24.8181 54.4396L23.9303 56.0727L24.4235 57.7443L25.6457 55.6617C25.6895 55.5905 25.7936 55.5631 25.8649 55.6069C25.9416 55.6507 25.969 55.7494 25.9197 55.8261L25.9361 55.8371Z" fill="#B2D982"/>
<path d="M10.1468 70.2122C7.7957 70.9576 5.91041 73.9883 6.08578 74.5309C6.26116 75.0734 9.54397 76.4545 11.9006 75.7092C14.2517 74.9583 14.5696 72.9415 14.2517 71.9331C13.9284 70.9247 12.5034 69.4614 10.1523 70.2122H10.1468ZM13.6653 72.2894L12.3774 72.7004L11.1991 75.1776C11.1607 75.2598 11.0676 75.2927 10.9853 75.2543C10.9086 75.2159 10.8702 75.1173 10.9086 75.0406L11.9554 72.8374L10.2674 73.3745L9.40147 75.046C9.37955 75.0844 9.34668 75.1118 9.30832 75.1282C9.26995 75.1392 9.22063 75.1392 9.18774 75.1173C9.11102 75.0789 9.07813 74.9748 9.11649 74.8981L9.82895 73.517L7.11063 74.3829C7.02843 74.4103 6.93526 74.361 6.90786 74.2788C6.88045 74.1911 6.92978 74.1034 7.01199 74.076L10.2674 73.0402L8.88084 72.3222C8.80411 72.2839 8.77122 72.1797 8.80959 72.103C8.83151 72.0646 8.86438 72.0372 8.90275 72.0208C8.94111 72.0098 8.99044 72.0153 9.02332 72.0318L10.7058 72.8977L12.3938 72.3606L10.2564 71.1604C10.1797 71.1165 10.1523 71.0124 10.1907 70.9357C10.2345 70.8589 10.3332 70.8315 10.4099 70.8754L12.8103 72.2236L13.5667 71.9824C13.6543 71.955 13.742 72.0044 13.7694 72.0921C13.7968 72.1743 13.7475 72.2674 13.6653 72.2948V72.2894Z" fill="#B2D982"/>
<path d="M8.67792 50.1319C8.23948 50.5703 8.52445 54.4231 10.4097 56.3194C12.295 58.2211 14.3995 57.5306 15.2161 56.7249C16.0327 55.9193 16.7397 53.8148 14.8544 51.9185C12.9746 50.0168 9.12184 49.6934 8.67792 50.1319ZM14.8325 56.3358C14.7613 56.4071 14.6517 56.4071 14.5859 56.3358L13.983 55.7275L11.0016 55.8152C10.903 55.8152 10.8208 55.7439 10.8208 55.6453C10.8208 55.5521 10.8975 55.4699 10.9907 55.4644L13.6432 55.3822L12.295 54.023L10.2453 54.0121C10.196 54.0121 10.1522 53.9956 10.1193 53.9628C10.0864 53.9299 10.0699 53.886 10.0699 53.8367C10.0699 53.7435 10.1522 53.6613 10.2453 53.6613L11.9388 53.6723L9.33008 51.0416C9.26431 50.9704 9.26431 50.8608 9.33008 50.7895C9.40133 50.7238 9.51094 50.7238 9.57671 50.7895L11.758 52.9872V51.3047C11.7634 51.2115 11.8456 51.1293 11.9388 51.1293C11.9881 51.1293 12.032 51.1458 12.0649 51.1787C12.0977 51.2115 12.1142 51.2554 12.1142 51.3047L12.1032 53.3435L13.4514 54.7081L13.5556 52.0665C13.5556 51.9733 13.6432 51.8966 13.7364 51.8966C13.835 51.8966 13.9063 51.9843 13.9063 52.0775L13.7912 55.0479L14.8215 56.0892C14.8928 56.1604 14.8873 56.27 14.8215 56.3358H14.8325Z" fill="#B2D982"/>
<path d="M53.5688 26.6206C54.4347 27.355 56.5666 27.8647 58.2765 25.8369C59.981 23.8091 59.959 19.9892 59.4932 19.5891C59.0219 19.1945 55.2513 19.8248 53.5469 21.8471C51.8424 23.8694 52.7029 25.8862 53.5743 26.6151L53.5688 26.6206ZM53.8976 25.9629L54.4456 25.3162L54.0949 22.3842C54.0839 22.291 54.1497 22.2033 54.2484 22.1923C54.3415 22.1814 54.4292 22.2526 54.4402 22.3458L54.7526 24.9545L55.9747 23.5022L55.7993 21.4799C55.7993 21.4306 55.8103 21.3867 55.8377 21.3538C55.8706 21.3155 55.9089 21.2935 55.9583 21.2935C56.0514 21.2881 56.1391 21.3593 56.1446 21.4525L56.2871 23.124L58.6492 20.3235C58.7095 20.2468 58.8191 20.2413 58.8958 20.3016C58.9671 20.3619 58.978 20.477 58.9177 20.5482L56.9448 22.8884L58.6053 22.7459C58.6985 22.7404 58.7862 22.8116 58.7917 22.9048C58.7917 22.9541 58.7807 22.998 58.7533 23.0309C58.7204 23.0637 58.6821 23.0857 58.6328 23.0911L56.6214 23.261L55.3993 24.7134L58.0135 24.5818C58.1066 24.5818 58.1943 24.6531 58.1998 24.7463C58.1998 24.8394 58.1285 24.9271 58.0354 24.9271L55.0978 25.0751L54.1607 26.1821C54.1004 26.2589 53.9908 26.2644 53.914 26.2041C53.8428 26.1438 53.8318 26.0342 53.8921 25.9574L53.8976 25.9629Z" fill="#B2D982"/>
<path d="M64.2832 73.7089C62.9953 73.254 60.3756 73.5773 59.3124 76.5806C58.2491 79.5839 59.8933 83.8806 60.5893 84.1273C61.2853 84.3739 65.2696 82.0721 66.3329 79.0688C67.3961 76.0655 65.5711 74.1637 64.2832 73.7089ZM65.3957 78.9866C65.2971 79.0359 65.1655 78.9975 65.1162 78.8934L63.6584 76.0874L62.8966 78.2412L63.9488 80.4444C63.9762 80.4937 63.9763 80.554 63.9598 80.6088C63.9379 80.6581 63.8995 80.702 63.8502 80.7294C63.7516 80.7787 63.62 80.7294 63.5707 80.6307L62.6993 78.8057L61.225 82.9599C61.1867 83.0695 61.0661 83.1298 60.9565 83.0915C60.8469 83.0531 60.7921 82.9325 60.8304 82.8229L62.0581 79.3538L60.2495 80.2197C60.1509 80.269 60.0193 80.2197 59.97 80.121C59.9426 80.0717 59.9426 80.0114 59.959 79.9621C59.9755 79.9128 60.0139 79.8689 60.0687 79.8415L62.2609 78.8002L63.0226 76.6464L60.1344 77.9014C60.0358 77.9453 59.9042 77.896 59.8604 77.7918C59.8166 77.6877 59.8604 77.5616 59.97 77.5178L63.2145 76.1038L63.8009 74.4542C63.8392 74.3446 63.9598 74.2898 64.0694 74.3282C64.179 74.3665 64.2338 74.4871 64.1955 74.5967L63.8557 75.5613L65.4943 78.7126C65.5492 78.8167 65.5053 78.9427 65.4067 78.9975L65.3957 78.9866Z" fill="#B2D982"/>
<path d="M70.876 44.5415C73.4354 44.8923 76.5757 42.8809 76.6525 42.289C76.7347 41.6972 74.252 38.9131 71.6926 38.5623C69.1332 38.2116 67.9275 39.9763 67.7741 41.0724C67.6261 42.1685 68.3166 44.1908 70.8705 44.5415H70.876ZM68.3002 41.1491C68.3111 41.0559 68.3988 40.9902 68.492 41.0011L69.3141 41.1107L71.5501 39.2912C71.6214 39.2309 71.731 39.2419 71.7858 39.3131C71.8406 39.3844 71.8296 39.494 71.7584 39.5543L69.7744 41.171L71.6104 41.4231L73.1833 40.2284C73.2217 40.201 73.2655 40.19 73.3094 40.1955C73.3532 40.201 73.397 40.2229 73.419 40.2613C73.4738 40.3325 73.4573 40.4476 73.3861 40.5024L72.0817 41.4944L75.6221 41.9821C75.7153 41.9931 75.7811 42.0808 75.7701 42.174C75.7591 42.2671 75.6714 42.3329 75.5783 42.3219L72.6188 41.9164L73.6053 43.2098C73.6601 43.281 73.6437 43.3961 73.5724 43.4509C73.534 43.4783 73.4902 43.4893 73.4464 43.4838C73.4025 43.4783 73.3587 43.4564 73.3313 43.418L72.142 41.8506L70.306 41.5985L71.7803 43.6811C71.8296 43.7523 71.8132 43.8674 71.7365 43.9168C71.6597 43.9716 71.5556 43.9551 71.5008 43.8784L69.8457 41.5327L68.4427 41.3409C68.3495 41.33 68.2838 41.2423 68.2947 41.1491H68.3002Z" fill="#B2D982"/>
<path d="M56.8023 49.2111C56.024 50.0551 55.4102 52.1815 57.3777 53.9955C59.3452 55.8096 63.209 55.9575 63.631 55.5027C64.053 55.0478 63.5871 51.2114 61.6196 49.3974C59.6521 47.5833 57.5805 48.3671 56.8023 49.2111ZM61.2469 50.0879C61.2524 50.1811 61.1757 50.2688 61.0825 50.2797L58.4355 50.477L59.8494 51.7759L61.8991 51.6937C61.9485 51.6937 61.9923 51.7047 62.0252 51.7376C62.0581 51.7704 62.08 51.8143 62.08 51.8581C62.08 51.9513 62.0033 52.039 61.9101 52.039L60.2166 52.1102L62.9404 54.6203C63.0117 54.6861 63.0172 54.7957 62.9514 54.8724C62.8856 54.9436 62.776 54.9491 62.6993 54.8834L60.4249 52.7898L60.4906 54.4723C60.4906 54.5655 60.4139 54.6532 60.3207 54.6587C60.2769 54.6587 60.2276 54.6422 60.1947 54.6148C60.1618 54.5819 60.1399 54.5381 60.1399 54.4942L60.0577 52.461L58.6437 51.1621L58.6602 53.8092C58.6602 53.9024 58.5779 53.9846 58.4848 53.9846C58.3861 53.9846 58.3094 53.9078 58.3094 53.8092L58.2875 50.8333L57.2078 49.8358C57.1366 49.7701 57.1311 49.6605 57.1969 49.5892C57.2626 49.518 57.3722 49.5125 57.4435 49.5782L58.0737 50.1592L61.0497 49.9345C61.1483 49.9235 61.2305 50.0002 61.236 50.0989L61.2469 50.0879Z" fill="#B2D982"/>
<path d="M85.1748 70.4644C82.8291 69.7026 81.3878 71.1549 81.0644 72.1579C80.7356 73.1663 81.0425 75.1831 83.3881 75.9504C85.7338 76.7176 89.033 75.3585 89.2084 74.8104C89.3838 74.2679 87.5204 71.2262 85.1748 70.4644ZM88.3918 74.5528C88.3644 74.6351 88.2713 74.6844 88.189 74.657L85.4762 73.7746L86.1832 75.1612C86.2215 75.2379 86.1832 75.342 86.1119 75.3804C86.0736 75.4023 86.0297 75.4023 85.9859 75.3914C85.9475 75.3749 85.9092 75.3475 85.8927 75.3092L85.0378 73.6321L83.3552 73.0841L84.3856 75.2982C84.4239 75.3749 84.3856 75.4791 84.3089 75.5119C84.2267 75.5503 84.128 75.5119 84.0951 75.4352L82.9333 72.9471L81.6453 72.5306C81.5577 72.5032 81.5138 72.41 81.5412 72.3278C81.5686 72.2456 81.6618 72.1962 81.744 72.2236L82.4948 72.4703L84.9062 71.1385C84.983 71.0947 85.0871 71.1221 85.1309 71.1988C85.1693 71.2755 85.1419 71.3796 85.0652 71.4235L82.9223 72.6073L84.6048 73.1553L86.2928 72.2949C86.3312 72.273 86.375 72.273 86.4188 72.2839C86.4572 72.3004 86.4956 72.3278 86.512 72.3661C86.5504 72.4429 86.5175 72.5415 86.4408 72.5854L85.0433 73.2978L88.2932 74.3556C88.3809 74.383 88.4247 74.4761 88.3973 74.5583L88.3918 74.5528Z" fill="#B2D982"/>
<path d="M85.0048 56.5768C86.901 54.6915 87.2189 50.8388 86.7805 50.4003C86.342 49.9619 82.4892 50.2578 80.593 52.1431C78.6967 54.0284 79.3873 56.1329 80.1984 56.9495C81.0095 57.7606 83.1085 58.4676 85.0048 56.5768ZM80.582 56.3138L81.6233 55.278L81.5302 52.3075C81.5302 52.2089 81.6014 52.1267 81.7 52.1267C81.7932 52.1267 81.8809 52.2034 81.8809 52.2966L81.9631 54.9382L83.3223 53.5845V51.5457C83.3277 51.4964 83.3442 51.4526 83.3771 51.4197C83.41 51.3868 83.4538 51.3704 83.5031 51.3704C83.5963 51.3704 83.6785 51.4526 83.6785 51.5457V53.2282L85.8652 51.047C85.9365 50.9758 86.0461 50.9758 86.1173 51.047C86.1831 51.1128 86.1831 51.2279 86.1173 51.2936L83.4922 53.9078H85.1911C85.2843 53.9078 85.3665 53.9955 85.3665 54.0887C85.3665 54.138 85.3501 54.1819 85.3172 54.2147C85.2843 54.2476 85.2404 54.2641 85.1911 54.2641H83.1414L81.7823 55.6123L84.4348 55.7109C84.528 55.7109 84.6102 55.7986 84.6047 55.8918C84.6047 55.9904 84.517 56.0671 84.4239 56.0617L81.4425 55.9521L80.8341 56.5549C80.7684 56.6207 80.6533 56.6207 80.5875 56.5549C80.5217 56.4891 80.5163 56.374 80.5875 56.3028L80.582 56.3138Z" fill="#B2D982"/>
<path d="M39.2975 12.9905C40.295 12.448 41.5445 10.6449 40.273 8.32116C39.0016 5.99744 35.4338 4.63279 34.8912 4.92874C34.3541 5.22469 33.5704 8.96786 34.8364 11.2916C36.1079 13.6153 38.2946 13.5386 39.292 12.996L39.2975 12.9905ZM35.1268 8.18415L36.7272 8.65547L35.2584 5.97003C35.2091 5.88783 35.2419 5.77822 35.3296 5.73437C35.4118 5.68505 35.5214 5.71793 35.5653 5.80562L37.319 9.02267L37.7904 7.4114C37.8178 7.32372 37.9164 7.26891 38.0041 7.29083C38.0479 7.30179 38.0863 7.33468 38.1082 7.37304C38.1302 7.4114 38.1356 7.46073 38.1192 7.50457L37.5492 9.45015L38.459 11.1162L39.2865 8.62259C39.3139 8.5349 39.4181 8.4801 39.5058 8.51298C39.5989 8.54586 39.6483 8.63903 39.6154 8.7322L38.6837 11.5382L39.0892 12.2836C39.1331 12.3712 39.1057 12.4754 39.018 12.5192C38.9358 12.5685 38.8262 12.5357 38.7823 12.4535L38.0863 11.1765L35.2365 10.4421C35.1433 10.4202 35.0885 10.3215 35.1104 10.2284C35.1323 10.1407 35.231 10.0804 35.3241 10.1023L37.8616 10.7545L36.9519 9.08843L35.0172 8.51846C34.9734 8.5075 34.935 8.47462 34.9131 8.43625C34.8912 8.39241 34.8857 8.34857 34.8967 8.30472C34.9241 8.21704 35.0227 8.16223 35.1104 8.18963L35.1268 8.18415Z" fill="#B2D982"/>
<path d="M9.94946 35.192C12.2458 36.3758 13.9721 35.1153 14.4818 34.1288C14.9915 33.1423 15.0134 31.0049 12.7171 29.8211C10.4208 28.6374 6.7927 29.4868 6.51867 30.0239C6.24465 30.5555 7.65862 34.0082 9.95494 35.1865L9.94946 35.192ZM8.45876 32.8464C8.4204 32.8245 8.38751 32.7916 8.37107 32.7477C8.34367 32.66 8.393 32.5614 8.48069 32.534L10.0262 32.0353L7.37363 30.6706C7.29142 30.6268 7.25854 30.5226 7.30239 30.4404C7.34623 30.3582 7.45036 30.3253 7.53256 30.3692L10.7113 32.0079L10.2125 30.4459C10.1851 30.3582 10.2345 30.2596 10.3221 30.2322C10.3605 30.2157 10.4098 30.2212 10.4537 30.2431C10.492 30.2651 10.5249 30.2979 10.5414 30.3418L11.1442 32.2216L12.7884 33.0711L12.0923 30.6049C12.0704 30.5172 12.1197 30.4185 12.2074 30.3966C12.2951 30.3692 12.3938 30.424 12.4157 30.5117L13.1994 33.2848L13.9338 33.663C14.016 33.7068 14.0489 33.8055 14.005 33.8931C13.9612 33.9754 13.8571 34.0082 13.7748 33.9644L12.5143 33.3122L9.81244 34.2823C9.72476 34.3151 9.62611 34.2658 9.59871 34.1781C9.56583 34.0904 9.61516 33.9918 9.70284 33.9589L12.1088 33.0985L10.4592 32.249L8.58482 32.8464C8.54097 32.8628 8.49166 32.8573 8.45329 32.8354L8.45876 32.8464Z" fill="#B2D982"/>
<path d="M54.5606 13.5659C55.4265 14.3003 57.5584 14.8099 59.2683 12.7822C60.9728 10.7599 60.9509 6.93448 60.485 6.53441C60.0137 6.13981 56.2431 6.76459 54.5387 8.79237C52.8288 10.8202 53.6947 12.8315 54.5661 13.5659H54.5606ZM54.8894 12.9082L55.4375 12.2615L55.0867 9.32946C55.0758 9.23629 55.1415 9.1486 55.2402 9.13764C55.3334 9.12668 55.421 9.19792 55.432 9.29109L55.7444 11.8998L56.9665 10.4475L56.7912 8.42518C56.7912 8.37585 56.8021 8.33201 56.8295 8.29912C56.8624 8.26076 56.9008 8.23884 56.9501 8.23884C57.0433 8.22788 57.1309 8.3046 57.1364 8.39777L57.2789 10.0693L59.641 7.26879C59.7013 7.19755 59.8109 7.18658 59.8876 7.24687C59.9589 7.30716 59.9698 7.41676 59.9096 7.49349L57.9366 9.83366L59.5972 9.69117C59.6903 9.68569 59.778 9.75693 59.7835 9.8501C59.7835 9.89943 59.7726 9.94327 59.7451 9.97615C59.7123 10.0145 59.6739 10.031 59.6246 10.0364L57.6187 10.2063L56.3966 11.6587L59.0108 11.5271C59.1039 11.5271 59.1916 11.5984 59.1916 11.6915C59.1971 11.7902 59.1204 11.8724 59.0272 11.8779L56.0897 12.0259L55.1525 13.1384C55.0922 13.2096 54.9826 13.2206 54.9059 13.1603C54.8346 13.1 54.8237 12.9904 54.884 12.9137L54.8894 12.9082Z" fill="#B2D982"/>
<path d="M71.479 26.6644C72.345 27.3988 74.4769 27.9085 76.1868 25.8807C77.8912 23.8584 77.8693 20.033 77.4035 19.6329C76.9321 19.2383 73.1615 19.8631 71.4516 21.8909C69.7472 23.9132 70.6076 25.93 71.479 26.6644ZM71.8079 26.0067L72.3559 25.36L72.0052 22.428C71.9942 22.3348 72.06 22.2471 72.1586 22.2362C72.2518 22.2252 72.3395 22.2964 72.3504 22.3896L72.6628 24.9983L73.885 23.546L73.7151 21.5292C73.7151 21.4798 73.726 21.436 73.7534 21.3976C73.7863 21.3648 73.8247 21.3428 73.874 21.3373C73.9672 21.3264 74.0549 21.4031 74.0604 21.4963L74.2029 23.1678L76.5649 20.3673C76.6252 20.2906 76.7348 20.2851 76.8116 20.3454C76.8828 20.4057 76.8938 20.5153 76.8335 20.592L74.8605 22.9322L76.5211 22.7897C76.6143 22.7842 76.7019 22.8554 76.7074 22.9486C76.7074 22.9925 76.6965 23.0418 76.6691 23.0747C76.6362 23.1075 76.5978 23.1295 76.5485 23.135L74.5426 23.3048L73.3205 24.7572L75.9347 24.6256C76.0278 24.6256 76.1101 24.6969 76.1155 24.7901C76.121 24.8832 76.0443 24.9654 75.9511 24.9709L73.0136 25.1189L72.0764 26.2314C72.0161 26.3027 71.9065 26.3136 71.8298 26.2534C71.7585 26.1931 71.7476 26.078 71.8079 26.0067Z" fill="#B2D982"/>
<path d="M80.7793 39.5817C78.883 41.4725 79.5736 43.5715 80.3847 44.3881C81.1903 45.1992 83.2948 45.9062 85.1911 44.0154C87.0873 42.1301 87.4052 38.2774 86.9667 37.8389C86.5283 37.4005 82.6755 37.6964 80.7793 39.5817ZM86.3036 38.4911C86.3694 38.5623 86.3694 38.6719 86.3036 38.7377L83.6784 41.3519H85.3774C85.4706 41.3519 85.5528 41.4396 85.5528 41.5328C85.5528 41.5821 85.5363 41.6259 85.5034 41.6588C85.4706 41.6917 85.4267 41.7081 85.3774 41.7081H83.3277L81.9685 43.0563L84.6211 43.155C84.7142 43.155 84.7965 43.2427 84.791 43.3358C84.791 43.4345 84.7033 43.5112 84.6101 43.5057L81.6287 43.3961L81.0204 43.999C80.9546 44.0648 80.8395 44.0648 80.7738 43.999C80.708 43.9332 80.708 43.8181 80.7738 43.7524L81.8151 42.7165L81.7219 39.7461C81.7219 39.6475 81.7932 39.5653 81.8918 39.5653C81.985 39.5653 82.0727 39.642 82.0727 39.7352L82.1549 42.3768L83.514 41.0231V38.9843C83.5195 38.935 83.5359 38.8912 83.5688 38.8583C83.6017 38.8254 83.6455 38.809 83.6949 38.809C83.788 38.809 83.8703 38.8912 83.8703 38.9843V40.6668L86.057 38.4856C86.1282 38.4198 86.2378 38.4144 86.3091 38.4856L86.3036 38.4911Z" fill="#B2D982"/>
<path d="M46.9811 11.7574C46.3235 11.8396 44.06 15.3088 44.4272 18.1531C44.7944 20.9975 47.0359 21.7812 48.2526 21.6223C49.4693 21.4633 51.4368 20.1371 51.0696 17.2927C50.7024 14.4483 47.6333 11.6697 46.9757 11.7574H46.9811ZM50.2639 17.4571L48.2252 19.9233L48.3403 20.8331C48.3513 20.9372 48.28 21.0304 48.1759 21.0468C48.0717 21.0578 47.9786 20.9865 47.9621 20.8824L47.7594 19.3205L45.1726 17.4626C45.0849 17.4023 45.0684 17.2872 45.1287 17.1995C45.189 17.1173 45.3096 17.1009 45.3918 17.1557L47.6936 18.8108L47.4305 16.772L45.7042 15.4403C45.6658 15.4074 45.6384 15.3636 45.6329 15.3142C45.6275 15.2649 45.6384 15.2156 45.6713 15.1717C45.7316 15.0895 45.8576 15.0731 45.9344 15.1389L47.3648 16.2404L46.9428 12.9521C46.9318 12.848 47.0031 12.7548 47.1072 12.7384C47.2113 12.7274 47.3045 12.7987 47.3155 12.9028L47.8251 16.8378L48.9377 15.3964C48.998 15.3142 49.124 15.3033 49.2007 15.3636C49.2391 15.3964 49.2665 15.4403 49.272 15.4896C49.2775 15.5389 49.2665 15.5883 49.2336 15.6321L47.8909 17.3694L48.154 19.4082L49.968 17.216C50.0338 17.1392 50.1543 17.1283 50.2311 17.1886C50.3133 17.2543 50.3242 17.3749 50.2585 17.4516L50.2639 17.4571Z" fill="#B2D982"/>
<path d="M36.1791 19.5124C35.7078 19.9069 35.6584 23.7269 37.3519 25.7656C39.0454 27.8043 41.1773 27.3056 42.0542 26.5822C42.9256 25.8588 43.8079 23.8474 42.1145 21.8142C40.421 19.7754 36.6559 19.1232 36.1846 19.5178L36.1791 19.5124ZM41.7034 26.1711C41.6267 26.2314 41.5171 26.2205 41.4568 26.1492L40.5306 25.0312L37.5931 24.8613C37.4999 24.8558 37.4232 24.7736 37.4286 24.6805C37.4341 24.5873 37.5218 24.5106 37.615 24.516L40.2292 24.6695L39.0125 23.2117L37.0066 23.0253C36.9628 23.0253 36.919 22.9979 36.8861 22.9651C36.8587 22.9322 36.8422 22.8829 36.8477 22.839C36.8587 22.7458 36.9464 22.6746 37.0395 22.6801L38.7001 22.8335L36.7436 20.4769C36.6833 20.4057 36.6943 20.2961 36.7655 20.2303C36.8368 20.17 36.9518 20.181 37.0121 20.2522L39.3578 23.0692L39.5112 21.3976C39.5167 21.3045 39.6099 21.2332 39.6976 21.2387C39.7414 21.2387 39.7853 21.2661 39.8181 21.299C39.851 21.3319 39.862 21.3812 39.8565 21.425L39.6702 23.4419L40.8814 24.8997L41.2102 22.291C41.2211 22.1978 41.3143 22.1265 41.4075 22.143C41.5006 22.1539 41.5719 22.2416 41.5609 22.3348L41.1883 25.2669L41.7308 25.919C41.7911 25.9958 41.7802 26.1054 41.7089 26.1657L41.7034 26.1711Z" fill="#B2D982"/>
<path d="M22.7794 74.8433C21.7217 74.1528 19.3048 73.8843 17.699 76.3505C16.0987 78.8167 16.6467 83.0257 17.2167 83.3984C17.7867 83.7711 21.8587 82.5599 23.459 80.0937C25.0593 77.6274 23.8316 75.5284 22.7739 74.8379L22.7794 74.8433ZM22.5163 75.6161L21.6395 76.9698L22.4286 80.143C22.4561 80.2471 22.3903 80.3512 22.2861 80.3787C22.1875 80.4006 22.0779 80.3348 22.0505 80.2362L21.349 77.4137L20.1981 79.1839L20.6639 81.3706C20.6749 81.4199 20.6639 81.4747 20.6365 81.5186C20.6091 81.5624 20.5653 81.5898 20.5159 81.6008C20.4118 81.6227 20.3077 81.5515 20.2858 81.4528L19.9021 79.6443L18.0497 82.4941C17.9894 82.5818 17.8689 82.6092 17.7812 82.5489C17.688 82.4941 17.6661 82.3736 17.7264 82.2804L19.946 78.866L18.121 79.2551C18.0168 79.2771 17.9127 79.2058 17.8908 79.1072C17.8798 79.0579 17.8908 79.003 17.9182 78.9647C17.9456 78.9208 17.9894 78.8934 18.0388 78.8825L20.2419 78.4166L21.3928 76.6519L18.5156 77.1616C18.4169 77.178 18.3073 77.1068 18.2909 77.0082C18.2744 76.904 18.3402 76.7999 18.4443 76.7834L21.6778 76.2135L22.193 75.4243C22.2533 75.3366 22.3738 75.3092 22.4615 75.364C22.5547 75.4243 22.5766 75.5449 22.5218 75.6325L22.5163 75.6161Z" fill="#B2D982"/>
<path d="M13.1829 63.2357C13.3418 62.1889 12.7116 60.2433 10.2673 59.8761C7.82845 59.509 4.79774 61.3888 4.71553 61.9533C4.62784 62.5177 6.96253 65.2141 9.40683 65.5813C11.8456 65.954 13.0294 64.2825 13.1829 63.2357ZM8.78204 64.7757C8.72724 64.7045 8.74369 64.6003 8.80946 64.5455L10.7221 63.0329L8.97387 62.7698L7.46125 63.8824C7.42837 63.9098 7.38453 63.9207 7.34068 63.9153C7.29684 63.9098 7.25847 63.8824 7.23655 63.8495C7.18723 63.7783 7.19819 63.6741 7.26944 63.6248L8.51899 62.7041L5.69653 62.2766C5.60885 62.2602 5.54308 62.178 5.55952 62.0903C5.57048 62.0026 5.65817 61.9423 5.74586 61.9533L9.12185 62.4629L8.19016 61.2024C8.14083 61.1312 8.15179 61.027 8.22304 60.9722C8.25592 60.9448 8.29977 60.9339 8.34361 60.9448C8.38746 60.9448 8.42583 60.9722 8.45323 61.0106L9.57124 62.5342L11.325 62.7972L9.93844 60.7749C9.88911 60.7037 9.91103 60.5996 9.98227 60.5502C10.059 60.5009 10.1577 60.5174 10.207 60.5886L11.7634 62.863L12.5472 62.9836C12.6348 62.9945 12.6951 63.0822 12.6842 63.1699C12.6677 63.2576 12.5855 63.3179 12.4978 63.3069L11.1606 63.1042L9.01223 64.8086C8.94099 64.8634 8.83685 64.8524 8.78204 64.7812V64.7757Z" fill="#B2D982"/>
<path d="M34.6118 60.2926C32.4853 62.1889 33.0991 64.4633 33.9103 65.373C34.7214 66.2828 36.9136 67.1487 39.04 65.2579C41.161 63.3617 41.72 59.2952 41.2815 58.7964C40.8431 58.3032 36.7382 58.3964 34.6118 60.2871V60.2926ZM40.5252 59.7172L37.5877 62.3368L39.3853 62.441C39.4839 62.441 39.5661 62.5341 39.5606 62.6383C39.5606 62.6876 39.5332 62.7314 39.5004 62.7698C39.462 62.8027 39.4127 62.8191 39.3633 62.8136L37.1876 62.6931L35.664 64.0522L38.4755 64.3098C38.5742 64.3153 38.6564 64.4139 38.6454 64.5126C38.6344 64.6167 38.5468 64.6934 38.4426 64.6825L35.2804 64.392L34.6008 65.0004C34.5241 65.0661 34.4035 65.0606 34.3377 64.9839C34.272 64.9072 34.2774 64.7866 34.3542 64.7154L35.516 63.6795L35.5873 60.5173C35.5873 60.4132 35.675 60.331 35.7791 60.3365C35.8778 60.3365 35.9654 60.4296 35.9654 60.5283L35.8997 63.3398L37.4233 61.9806L37.5438 59.8158C37.5438 59.7665 37.5712 59.7226 37.6041 59.6843C37.6425 59.6514 37.6918 59.6349 37.7411 59.6349C37.8398 59.6349 37.922 59.7336 37.9165 59.8322L37.8124 61.6189L40.2676 59.4322C40.3444 59.3609 40.4649 59.3719 40.5307 59.4486C40.5965 59.5253 40.591 59.6459 40.5143 59.7117L40.5252 59.7172Z" fill="#B2D982"/>
<path d="M37.511 35.0385C35.8668 36.6333 36.4368 38.4419 37.1219 39.1434C37.8069 39.8449 39.599 40.4696 41.2377 38.8748C42.8818 37.28 43.1888 33.9862 42.8216 33.6081C42.4544 33.2244 39.1551 33.4382 37.511 35.0385ZM42.2461 34.3753L39.9717 36.584L41.424 36.6059C41.5062 36.6059 41.572 36.6771 41.572 36.7593C41.572 36.7977 41.5556 36.8361 41.5282 36.8635C41.5008 36.8909 41.4624 36.9073 41.4186 36.9073L39.6648 36.8799L38.4865 38.0253L40.7554 38.1349C40.8376 38.1349 40.9034 38.2117 40.8979 38.2939C40.8979 38.3761 40.8212 38.4419 40.739 38.4364L38.1905 38.3103L37.6644 38.82C37.6096 38.8803 37.511 38.8803 37.4507 38.82C37.3959 38.7597 37.3959 38.6666 37.4507 38.6063L38.3495 37.7294L38.3002 35.1864C38.3002 35.1042 38.3659 35.033 38.4481 35.033C38.5303 35.033 38.6016 35.1042 38.6016 35.181L38.6454 37.4444L39.8237 36.299L39.8511 34.5562C39.8511 34.5178 39.8676 34.4795 39.895 34.4521C39.9224 34.4247 39.9607 34.4082 40.0046 34.4082C40.0813 34.4082 40.1526 34.4795 40.1526 34.5617L40.1306 36.003L42.0269 34.1616C42.0872 34.1013 42.1803 34.1068 42.2406 34.1616C42.3009 34.2219 42.2954 34.315 42.2406 34.3753H42.2461Z" fill="#B2D982"/>
<path d="M21.6558 69.8452C22.171 68.9628 22.297 66.9844 20.2309 65.7842C18.1647 64.5784 14.7668 65.1923 14.4873 65.6691C14.2078 66.1459 15.3478 69.4068 17.4139 70.607C19.48 71.8127 21.1352 70.7276 21.6503 69.8452H21.6558ZM17.1454 69.6589C17.1234 69.5767 17.1728 69.4835 17.2495 69.4616L19.5129 68.782L18.0332 67.9161L16.274 68.3819C16.2356 68.3929 16.1918 68.3819 16.1534 68.3655C16.115 68.3435 16.0931 68.3107 16.0821 68.2668C16.0602 68.1846 16.115 68.0969 16.1918 68.075L17.6496 67.6914L15.2601 66.2993C15.1833 66.2555 15.1614 66.1568 15.2053 66.0856C15.2491 66.0089 15.3423 65.9869 15.419 66.0308L18.2798 67.6968L17.8962 66.2281C17.8743 66.1459 17.9236 66.0582 18.0058 66.0363C18.0442 66.0253 18.088 66.0363 18.1264 66.0527C18.1647 66.0746 18.1867 66.1075 18.1976 66.1513L18.6635 67.9216L20.1432 68.7875L19.6171 66.4747C19.6006 66.3925 19.6554 66.3048 19.7376 66.2884C19.8198 66.2664 19.9075 66.3212 19.924 66.4089L20.5159 69.0067L21.179 69.3958C21.2557 69.4396 21.2777 69.5383 21.2393 69.6095C21.1954 69.6863 21.0968 69.7082 21.0256 69.6643L19.8911 69.0067L17.3481 69.7685C17.2659 69.7959 17.1782 69.7466 17.1508 69.6643L17.1454 69.6589Z" fill="#B2D982"/>
<path d="M19.9348 50.2797C22.3188 50.1208 23.0861 48.2958 23.0204 47.2709C22.9546 46.2461 21.9517 44.5416 19.5622 44.7006C17.1727 44.8595 14.7065 47.2709 14.7393 47.8244C14.7777 48.378 17.5453 50.4386 19.9348 50.2797ZM19.1785 49.644C19.1128 49.5892 19.1018 49.4905 19.1566 49.4247L20.6528 47.5943L18.9429 47.7093L17.7481 49.0795C17.7207 49.1124 17.6824 49.1288 17.6385 49.1343C17.5947 49.1343 17.5563 49.1233 17.5234 49.0959C17.4577 49.0411 17.4522 48.937 17.507 48.8767L18.4989 47.7422L15.7423 47.9286C15.6546 47.934 15.5778 47.8683 15.5724 47.7806C15.5724 47.6929 15.6326 47.6217 15.7203 47.6162L19.0251 47.397L17.8851 46.3995C17.8249 46.3447 17.8139 46.2406 17.8687 46.1748C17.8961 46.1419 17.9345 46.1255 17.9783 46.12C18.0167 46.12 18.0605 46.131 18.0934 46.1584L19.469 47.3641L21.1789 47.249L19.4471 45.6268C19.3868 45.572 19.3813 45.4623 19.4416 45.4021C19.5019 45.3363 19.6005 45.3363 19.6608 45.3911L21.6064 47.2161L22.3737 47.1668C22.4613 47.1613 22.5381 47.2271 22.5381 47.3148C22.5435 47.4024 22.4778 47.4792 22.3901 47.4847L21.0803 47.5723L19.4032 49.633C19.3484 49.6988 19.2498 49.7097 19.184 49.6549L19.1785 49.644Z" fill="#B2D982"/>
<path d="M31.7946 55.3932C32.2112 55.8535 36.0749 55.7275 38.0533 53.9299C40.0318 52.1323 39.4344 49.9949 38.6672 49.1454C37.8944 48.2959 35.8283 47.5013 33.8443 49.2989C31.8659 51.0965 31.3726 54.9328 31.7946 55.3932ZM34.4033 49.836L37.3793 50.0826L38.015 49.5071C38.0862 49.4414 38.2013 49.4469 38.2671 49.5181C38.3329 49.5893 38.3274 49.699 38.2561 49.7647L37.171 50.7512L37.1326 53.7271C37.1326 53.8258 37.0504 53.9025 36.9518 53.9025C36.8586 53.9025 36.7764 53.8203 36.7764 53.7271L36.8093 51.0855L35.3898 52.3789L35.2912 54.4122C35.2912 54.4615 35.2693 54.5053 35.2364 54.5327C35.2035 54.5656 35.1542 54.5821 35.1103 54.5766C35.0172 54.5766 34.9404 54.4834 34.9459 54.3903L35.0281 52.7077L32.7373 54.7903C32.666 54.8561 32.5564 54.8506 32.4852 54.7794C32.4194 54.7081 32.4249 54.593 32.4961 54.5273L35.2364 52.0391L33.5429 51.9569C33.4497 51.9569 33.3675 51.8637 33.373 51.7706C33.373 51.7213 33.3949 51.6774 33.4278 51.65C33.4662 51.6171 33.51 51.6007 33.5539 51.6062L35.5981 51.7048L37.0175 50.4169L34.3705 50.1977C34.2773 50.1867 34.2006 50.099 34.2115 50.0059C34.217 49.9072 34.3047 49.836 34.4033 49.8414V49.836Z" fill="#B2D982"/>
<path d="M17.7371 28.6482C17.2987 29.0867 17.5892 32.9395 19.469 34.8357C21.3543 36.7375 23.4588 36.0469 24.2754 35.2413C25.092 34.4356 25.7989 32.3366 23.9137 30.4349C22.0284 28.5332 18.1811 28.2098 17.7371 28.6482ZM23.8917 34.8522C23.826 34.9179 23.7109 34.9179 23.6451 34.8522L23.0423 34.2438L20.0609 34.3315C19.9622 34.3315 19.88 34.2603 19.88 34.1616C19.88 34.0685 19.9567 33.9808 20.0554 33.9808L22.7079 33.8986L21.3597 32.5394L19.31 32.5284C19.2607 32.5284 19.2169 32.512 19.184 32.4791C19.1511 32.4462 19.1347 32.4024 19.1347 32.3531C19.1347 32.2599 19.2169 32.1777 19.31 32.1777H21.009L18.4003 29.5525C18.3345 29.4813 18.3345 29.3717 18.4003 29.3059C18.4715 29.2401 18.5811 29.2401 18.6469 29.3059L20.8226 31.5036V29.8156C20.8336 29.7224 20.9158 29.6402 21.009 29.6402C21.0583 29.6402 21.1022 29.6567 21.135 29.6895C21.1679 29.7224 21.1844 29.7663 21.1844 29.8156V31.8543L22.5271 33.219L22.6312 30.5774C22.6312 30.4842 22.7189 30.4075 22.8176 30.4075C22.9162 30.4075 22.9875 30.4952 22.9875 30.5883L22.8724 33.5588L23.9082 34.6001C23.9739 34.6713 23.9739 34.7809 23.9082 34.8522H23.8917Z" fill="#B2D982"/>
<path d="M72.5094 75.0131C71.4462 75.6926 70.2021 77.7862 71.7914 80.2634C73.3753 82.7405 77.4418 83.9737 78.0118 83.6065C78.5873 83.2393 79.1627 79.0357 77.5788 76.5585C75.995 74.0814 73.5726 74.3335 72.5094 75.0185V75.0131ZM77.4583 82.7515C77.3706 82.8063 77.25 82.7844 77.1897 82.6912L75.3593 79.8304L74.9592 81.639C74.9373 81.7431 74.8277 81.8089 74.729 81.7869C74.6797 81.776 74.6358 81.7486 74.6084 81.7047C74.581 81.6609 74.5701 81.6061 74.581 81.5568L75.0633 79.37L73.9289 77.5944L73.2054 80.4113C73.1835 80.51 73.0684 80.5757 72.9698 80.5483C72.8656 80.5209 72.8054 80.4168 72.8328 80.3127L73.6439 77.145L72.7725 75.7858C72.7177 75.6926 72.7396 75.5775 72.8328 75.5173C72.9204 75.4625 73.041 75.4844 73.1013 75.5775L73.611 76.3722L76.839 76.9641C76.9431 76.986 77.0144 77.0847 76.9924 77.1888C76.976 77.2875 76.8664 77.3642 76.7677 77.3423L73.896 76.8161L75.0304 78.5918L77.2281 79.0741C77.2829 79.0851 77.3213 79.1179 77.3542 79.1563C77.3816 79.2001 77.387 79.2495 77.3816 79.3043C77.3596 79.4029 77.25 79.4742 77.1514 79.4522L75.3319 79.0522L77.5241 82.4775C77.5789 82.5706 77.5569 82.6857 77.4638 82.746L77.4583 82.7515Z" fill="#B2D982"/>
<path d="M66.9794 24.1541C66.4204 23.8527 62.7156 25.2667 61.4003 27.6781C60.085 30.0895 61.3838 31.9529 62.4142 32.5173C63.45 33.0818 65.7189 33.1586 67.0342 30.7472C68.3495 28.3357 67.533 24.4555 66.974 24.1486L66.9794 24.1541ZM66.9465 27.7986C66.9246 27.8425 66.8863 27.8699 66.8369 27.8863L64.8311 28.4782L63.8884 30.2046L66.5191 29.5305C66.6122 29.5031 66.7164 29.5688 66.7383 29.662C66.7657 29.7607 66.7054 29.8538 66.6068 29.8812L63.6528 30.643L62.9293 31.9638C62.88 32.0515 62.7704 32.0844 62.6827 32.0351C62.595 31.9857 62.5621 31.8816 62.6115 31.7884L63.0335 31.0157L62.0689 28.111C62.036 28.0179 62.0908 27.9137 62.184 27.8809C62.2772 27.848 62.3813 27.9028 62.4142 27.9959L63.2746 30.5827L64.2173 28.8564L63.6254 26.8396C63.6144 26.7902 63.6199 26.7464 63.6418 26.7025C63.6637 26.6642 63.7021 26.6313 63.7514 26.6149C63.8446 26.5875 63.9487 26.6423 63.9761 26.7354L64.4639 28.407L66.2834 25.0694C66.3327 24.9817 66.4423 24.9488 66.53 24.9981C66.6177 25.0474 66.6506 25.157 66.6013 25.2447L65.0832 28.0288L66.7438 27.5411C66.8369 27.5137 66.9411 27.5685 66.9685 27.6616C66.9794 27.711 66.9739 27.7603 66.952 27.7986H66.9465Z" fill="#B2D982"/>
<path d="M85.1253 60.1283C82.681 60.4845 82.0343 62.4191 82.1878 63.4714C82.3412 64.5181 83.5086 66.1952 85.9529 65.8389C88.3972 65.4882 90.7483 62.8082 90.6661 62.2437C90.5839 61.6738 87.5696 59.7775 85.1253 60.1283ZM89.6796 62.5561L86.8572 62.9672L88.1012 63.8988C88.1725 63.9537 88.1834 64.0578 88.1341 64.129C88.1067 64.1619 88.0683 64.1838 88.0245 64.1948C87.9807 64.2003 87.9368 64.1893 87.9039 64.1619L86.3968 63.0384L84.6485 63.2905L86.5503 64.8141C86.616 64.8689 86.627 64.9785 86.5776 65.0443C86.5228 65.1155 86.4187 65.1265 86.3475 65.0717L84.2101 63.3563L82.8674 63.5481C82.7797 63.5591 82.6975 63.4988 82.681 63.4111C82.6701 63.3234 82.7303 63.2412 82.818 63.2247L83.6017 63.1097L85.1746 60.8517C85.224 60.7804 85.3281 60.7585 85.3993 60.8133C85.4706 60.8627 85.487 60.9668 85.4377 61.038L84.0402 63.0494L85.7939 62.7973L86.9229 61.2847C86.9503 61.2518 86.9887 61.2244 87.0325 61.2189C87.0764 61.2134 87.1202 61.2189 87.1531 61.2463C87.2243 61.2956 87.2353 61.4052 87.186 61.4765L86.2488 62.7315L89.6303 62.2437C89.718 62.2328 89.8057 62.2931 89.8166 62.3862C89.8276 62.4739 89.7673 62.5561 89.6796 62.5671V62.5561Z" fill="#B2D982"/>
<path d="M74.263 57.3824C74.9645 55.0532 73.5615 51.8416 73.0244 51.6772C72.4873 51.5128 69.5333 53.409 68.8264 55.7327C68.1194 58.062 69.5772 59.443 70.5801 59.7445C71.5775 60.0459 73.5615 59.7061 74.2685 57.3769L74.263 57.3824ZM70.7226 59.2731C70.6404 59.2457 70.5911 59.1581 70.6185 59.0704L70.8432 58.325L69.484 55.9794C69.4402 55.9026 69.4676 55.804 69.5443 55.7601C69.6155 55.7218 69.7197 55.7492 69.7635 55.8204L70.9747 57.9085L71.4789 56.237L70.602 54.5928C70.5801 54.5544 70.5746 54.5106 70.5911 54.4722C70.602 54.4339 70.6294 54.401 70.6678 54.3791C70.7445 54.3407 70.8432 54.3736 70.8815 54.4448L71.6049 55.804L72.5805 52.5869C72.6079 52.5047 72.6956 52.4554 72.7832 52.4773C72.8655 52.5047 72.9148 52.5924 72.8874 52.6801L72.0708 55.371L73.419 54.6476C73.4957 54.6092 73.5944 54.6366 73.6382 54.7134C73.6601 54.7517 73.6601 54.7956 73.6492 54.8339C73.6382 54.8778 73.6053 54.9107 73.5724 54.9271L71.9393 55.7985L71.4351 57.4646L73.5889 56.4014C73.6656 56.363 73.7643 56.4014 73.8026 56.4726C73.841 56.5548 73.8081 56.648 73.7259 56.6864L71.3035 57.8756L70.9199 59.1526C70.8925 59.2348 70.8048 59.2841 70.7171 59.2622L70.7226 59.2731Z" fill="#B2D982"/>
<path d="M61.4441 65.4661C62.2607 64.5618 62.8909 62.2929 60.7809 60.3802C58.6709 58.473 54.5661 58.3524 54.1221 58.8402C53.6837 59.3334 54.2098 63.4054 56.3198 65.3126C58.4298 67.2199 60.6275 66.3649 61.4441 65.4606V65.4661ZM56.7089 64.5728C56.7035 64.4741 56.7802 64.381 56.8788 64.37L59.6903 64.1289L58.1777 62.7587L56.0019 62.8683C55.9526 62.8683 55.9033 62.8519 55.8649 62.819C55.8266 62.7861 55.8047 62.7423 55.8047 62.6875C55.8047 62.5888 55.8814 62.4957 55.9855 62.4902L57.7886 62.397L54.8675 59.7554C54.7908 59.6842 54.7853 59.5691 54.8511 59.4924C54.9223 59.4156 55.0429 59.4102 55.1141 59.4814L57.5529 61.6846L57.4652 59.8979C57.4598 59.7993 57.542 59.7061 57.6406 59.7006C57.6899 59.7006 57.7393 59.7171 57.7776 59.7499C57.816 59.7828 57.8379 59.8322 57.8379 59.8815L57.9475 62.0463L59.4601 63.4109L59.4163 60.5994C59.4163 60.5008 59.4985 60.4131 59.6026 60.4076C59.7068 60.4076 59.789 60.4898 59.7945 60.5885L59.8438 63.7507L61.0002 64.7975C61.0769 64.8687 61.0824 64.9893 61.0166 65.0605C60.9454 65.1373 60.8248 65.1428 60.7535 65.077L60.074 64.4632L56.9117 64.7317C56.8076 64.7427 56.7199 64.6659 56.7089 64.5618V64.5728Z" fill="#B2D982"/>
<path d="M58.408 39.22C59.0986 38.5185 59.6795 36.7155 58.0463 35.1097C56.4186 33.5039 53.1194 33.2682 52.7467 33.6464C52.374 34.0245 52.6645 37.3183 54.2922 38.9241C55.9254 40.5299 57.7175 39.9215 58.408 39.22ZM54.0182 36.9073C53.9908 36.8799 53.9743 36.8415 53.9743 36.8031C53.9743 36.7209 54.0456 36.6497 54.1223 36.6497L55.5746 36.6387L53.3167 34.4136C53.2564 34.3534 53.2564 34.2602 53.3167 34.1999C53.3715 34.1396 53.4701 34.1396 53.5304 34.1999L55.4157 36.0578L55.4047 34.6164C55.4047 34.5342 55.476 34.463 55.5527 34.463C55.5911 34.463 55.6294 34.4794 55.6623 34.5068C55.6897 34.5342 55.7062 34.5726 55.7062 34.6109L55.7171 36.3537L56.8845 37.5046L56.9447 35.2412C56.9447 35.1645 57.016 35.0932 57.0982 35.0932C57.1804 35.0932 57.2462 35.1645 57.2462 35.2467L57.1804 37.7896L58.0737 38.672C58.134 38.7323 58.134 38.8254 58.0737 38.8857C58.0134 38.946 57.9203 38.946 57.86 38.8857L57.3339 38.3706L54.78 38.4747C54.6978 38.4747 54.6265 38.4144 54.621 38.3322C54.621 38.25 54.6868 38.1787 54.769 38.1733L57.0379 38.0801L55.8706 36.9292L54.1168 36.9456C54.0784 36.9456 54.0401 36.9292 54.0072 36.9018L54.0182 36.9073Z" fill="#B2D982"/>
<path d="M75.1236 65.9649C73.0519 67.1542 73.1616 69.1327 73.6712 70.0205C74.1809 70.9083 75.8305 71.999 77.9077 70.8152C79.9848 69.6259 81.1466 66.376 80.8671 65.8937C80.5931 65.4114 77.1952 64.7757 75.1236 65.9649ZM80.0889 66.5239L77.6939 67.8995L79.1463 68.2887C79.2285 68.3106 79.2778 68.3983 79.2559 68.4805C79.2449 68.5188 79.2175 68.5572 79.1846 68.5736C79.1463 68.5956 79.1079 68.601 79.064 68.5901L77.3103 68.1133L75.8251 68.9682L78.083 69.6643C78.1598 69.6862 78.2091 69.7793 78.1872 69.8616C78.1598 69.9438 78.0721 69.9931 77.9899 69.9657L75.4469 69.182L74.307 69.8342C74.2303 69.878 74.1371 69.8506 74.0932 69.7794C74.0494 69.7026 74.0768 69.6095 74.1535 69.5656L74.8167 69.182L75.425 66.5842C75.4469 66.502 75.5291 66.4472 75.6113 66.4691C75.6935 66.4911 75.7483 66.5787 75.7319 66.661L75.1893 68.9737L76.6745 68.1188L77.1568 66.354C77.1678 66.3157 77.1952 66.2773 77.2336 66.2609C77.2664 66.239 77.3103 66.2335 77.3541 66.2444C77.4363 66.2664 77.4857 66.354 77.4637 66.4362L77.0691 67.8995L79.9409 66.2499C80.0177 66.2061 80.1108 66.2335 80.1547 66.3102C80.1985 66.3869 80.1711 66.4856 80.0944 66.5239H80.0889Z" fill="#B2D982"/>
<path d="M75.9347 44.8925C73.5507 44.7171 72.5368 46.416 72.4601 47.4354C72.3833 48.4548 73.1396 50.2853 75.5237 50.4661C77.9077 50.6415 80.6918 48.6028 80.7301 48.0492C80.774 47.4957 78.3187 45.0678 75.9347 44.8925ZM79.7327 48.1369L76.976 47.9341L77.957 49.0741C78.0118 49.1398 78.0063 49.2385 77.9406 49.2933C77.9077 49.3207 77.8693 49.3371 77.8255 49.3317C77.7816 49.3317 77.7433 49.3097 77.7158 49.2769L76.5266 47.9013L74.8167 47.7752L76.2964 49.6167C76.3512 49.6824 76.3403 49.7865 76.2745 49.8359C76.2087 49.8907 76.1046 49.8797 76.0553 49.8139L74.3892 47.7423L73.0794 47.6492C72.9917 47.6437 72.9259 47.5669 72.9369 47.4793C72.9424 47.3916 73.0191 47.3258 73.1068 47.3368L73.8685 47.3916L75.8251 45.583C75.8854 45.5227 75.9895 45.5282 76.0443 45.594C76.1046 45.6543 76.0991 45.7584 76.0388 45.8187L74.296 47.4299L76.0059 47.556L77.3925 46.3612C77.4254 46.3338 77.4638 46.3229 77.5076 46.3229C77.5514 46.3229 77.5898 46.3448 77.6172 46.3777C77.672 46.4434 77.6665 46.5476 77.6008 46.6024L76.4499 47.5943L79.7491 47.8355C79.8368 47.841 79.9026 47.9177 79.8971 48.0054C79.8916 48.0931 79.8149 48.1588 79.7272 48.1479L79.7327 48.1369Z" fill="#B2D982"/>
<path d="M76.0936 35.033C77.9899 33.1477 78.3078 29.2949 77.8693 28.8565C77.4309 28.4181 73.5781 28.714 71.6819 30.5993C69.7856 32.4901 70.4761 34.5891 71.2873 35.4057C72.0984 36.2168 74.1974 36.9183 76.0936 35.033ZM71.6709 34.7645L72.7122 33.7286L72.619 30.7582C72.619 30.6596 72.6903 30.5774 72.7889 30.5774C72.8821 30.5774 72.9698 30.6541 72.9698 30.7473L73.052 33.3889L74.4111 32.0352V29.9964C74.4166 29.9471 74.4331 29.9033 74.4714 29.8704C74.5043 29.8375 74.5481 29.8211 74.592 29.8211C74.6852 29.8211 74.7674 29.9033 74.7674 29.9964V31.6789L76.9541 29.4977C77.0253 29.4319 77.1349 29.4319 77.2062 29.4977C77.2719 29.5635 77.2719 29.6786 77.2062 29.7443L74.581 32.3585H76.28C76.3731 32.3585 76.4554 32.4462 76.4554 32.5394C76.4554 32.5887 76.4389 32.6326 76.4005 32.6654C76.3677 32.6983 76.3238 32.7148 76.2745 32.7148H74.2248L72.8656 34.063L75.5182 34.1616C75.6114 34.1616 75.6936 34.2493 75.6881 34.3425C75.6881 34.4411 75.6004 34.5178 75.5072 34.5124L72.5259 34.4027L71.9175 35.0056C71.8463 35.0768 71.7366 35.0768 71.6709 35.0056C71.5996 34.9344 71.5996 34.8247 71.6709 34.759V34.7645Z" fill="#B2D982"/>
<path d="M50.0283 0.0017043C49.4309 -0.0750226 46.6413 2.45148 46.307 5.03828C45.9727 7.62507 47.7648 8.83078 48.8719 8.97327C49.979 9.11576 52.0177 8.4033 52.352 5.81651C52.6863 3.23519 50.6311 0.0784312 50.0283 0.0017043ZM51.2175 3.10914C51.245 3.14203 51.2559 3.19135 51.2504 3.23519C51.2504 3.27904 51.223 3.32288 51.1847 3.35028L49.6118 4.56147L49.3706 6.41388L51.4642 4.91223C51.5354 4.8629 51.6505 4.87934 51.7053 4.95059C51.7601 5.02732 51.7437 5.13144 51.6669 5.19173L49.3158 6.87972L49.135 8.29917C49.124 8.39234 49.0363 8.4581 48.9431 8.44714C48.85 8.43618 48.7842 8.34849 48.7952 8.25533L48.8993 7.42777L47.0469 5.18625C46.9866 5.115 46.9976 5.00539 47.0688 4.94511C47.1401 4.8903 47.2552 4.90126 47.31 4.96703L48.9596 6.95645L49.2007 5.10404L47.984 3.52566C47.9566 3.4873 47.9457 3.44345 47.9457 3.39961C47.9512 3.35577 47.9786 3.31192 48.0115 3.28452C48.0827 3.22971 48.1978 3.24616 48.2526 3.3174L49.261 4.62724L49.7214 1.04848C49.7323 0.95531 49.82 0.889544 49.9132 0.900505C50.0064 0.911466 50.0721 0.999154 50.0612 1.09232L49.6775 4.07919L50.9764 3.07626C51.0477 3.02146 51.1627 3.0379 51.2175 3.10914Z" fill="#B2D982"/>
<path d="M32.5676 21.4414C33.439 20.718 34.3214 18.7067 32.6279 16.6679C30.9344 14.6346 27.1693 13.9825 26.6925 14.3716C26.2212 14.7662 26.1719 18.5861 27.8653 20.6248C29.5588 22.6636 31.6907 22.1648 32.5676 21.4414ZM27.9475 19.5342C27.9475 19.441 28.0407 19.3643 28.1339 19.3698L30.7481 19.5232L29.5314 18.0654L27.5256 17.8791C27.4817 17.8791 27.4379 17.8517 27.4105 17.8188C27.3831 17.7859 27.3666 17.7366 27.3721 17.6928C27.3831 17.5996 27.4708 17.5283 27.5639 17.5338L29.2245 17.6873L27.268 15.3307C27.2077 15.2594 27.2187 15.1443 27.2899 15.084C27.3666 15.0238 27.4762 15.0292 27.5365 15.106L29.8767 17.9229L30.0301 16.2514C30.0356 16.1582 30.1288 16.087 30.222 16.0925C30.2658 16.0925 30.3097 16.1199 30.3425 16.1527C30.3699 16.1856 30.3864 16.2349 30.3809 16.2788L30.1946 18.2956L31.4057 19.7534L31.7346 17.1447C31.7455 17.0515 31.8387 16.9803 31.9319 16.9913C32.025 17.0022 32.0963 17.0899 32.0853 17.1886L31.7127 20.1206L32.2552 20.7728C32.3155 20.844 32.3045 20.9591 32.2333 21.0194C32.1566 21.0797 32.047 21.0687 31.9867 20.9975L31.0605 19.8795L28.1229 19.7096C28.0243 19.7096 27.953 19.6219 27.9585 19.5232L27.9475 19.5342Z" fill="#B2D982"/>
<path d="M23.9523 25.5354C24.8182 24.7352 25.6183 22.6088 23.7549 20.592C21.8916 18.5752 17.9566 18.1038 17.4853 18.5368C17.0194 18.9698 17.1784 22.9321 19.0362 24.949C20.8996 26.9658 23.0808 26.3355 23.9468 25.5354H23.9523ZM18.406 22.0662C18.3731 22.0279 18.3567 21.984 18.3567 21.9347C18.3567 21.8361 18.4498 21.7593 18.5485 21.7593L20.2748 21.8306L18.121 19.4959C18.0498 19.4246 18.0607 19.3095 18.132 19.2383C18.2032 19.1725 18.3183 19.1725 18.3895 19.2493L20.9709 22.0388L21.0366 20.3015C21.0366 20.2029 21.1298 20.1261 21.223 20.1261C21.2723 20.1261 21.3161 20.1481 21.349 20.1809C21.3819 20.2193 21.3983 20.2632 21.3983 20.3125L21.3161 22.4115L22.6534 23.8584L22.8562 21.14C22.8671 21.0414 22.9548 20.9647 23.048 20.9701C23.1466 20.9756 23.2233 21.0633 23.2124 21.162L22.9877 24.2146L23.5851 24.8613C23.6508 24.9325 23.6508 25.0476 23.5741 25.1189C23.5028 25.1846 23.3878 25.1792 23.3165 25.1079L22.2971 24.0008L19.2445 23.9844C19.1459 23.9844 19.0636 23.9022 19.0636 23.8035C19.0636 23.7104 19.1513 23.6227 19.2445 23.6227L21.9573 23.6337L20.6201 22.1868L18.532 22.1046C18.4827 22.1046 18.4389 22.0827 18.406 22.0443V22.0662Z" fill="#B2D982"/>
<path d="M8.47523 56.9933C8.63416 55.9465 8.00391 54.0009 5.55961 53.6337C3.12079 53.2665 0.0900824 55.1463 0.00239456 55.7108C-0.0852933 56.2753 2.24939 58.9662 4.69369 59.3389C7.13251 59.7116 8.31631 58.04 8.46976 56.9933H8.47523ZM4.30458 58.5552C4.23334 58.61 4.12921 58.599 4.0744 58.5278C4.0196 58.462 4.03603 58.3524 4.1018 58.2976L6.01449 56.785L4.26622 56.5219L2.7536 57.6345C2.71524 57.6619 2.67688 57.6728 2.63303 57.6674C2.58919 57.6619 2.55082 57.64 2.5289 57.6016C2.47958 57.5303 2.49054 57.4262 2.56178 57.3769L3.81133 56.4562L0.988885 56.0287C0.901197 56.0177 0.840912 55.93 0.851873 55.8424C0.862833 55.7547 0.950519 55.6944 1.03821 55.7053L4.41419 56.215L3.48799 54.9545C3.43866 54.8833 3.4551 54.7791 3.52087 54.7243C3.55923 54.6969 3.5976 54.686 3.64144 54.6914C3.68528 54.6969 3.72365 54.7243 3.75105 54.7572L4.86907 56.2753L6.61735 56.5384L5.23079 54.5161C5.18146 54.4448 5.20338 54.3407 5.27462 54.2914C5.35135 54.242 5.45 54.2585 5.49933 54.3297L7.05579 56.6041L7.8395 56.7247C7.92719 56.7357 7.98746 56.8179 7.9765 56.911C7.96006 56.9987 7.87787 57.059 7.79018 57.0481L6.45294 56.8453L4.2991 58.5497L4.30458 58.5552Z" fill="#B2D982"/>
<path d="M8.67792 37.7731C8.23948 38.2115 8.52445 42.0643 10.4097 43.9605C12.295 45.8568 14.3995 45.1717 15.2161 44.3661C16.0327 43.5605 16.7397 41.4614 14.8544 39.5597C12.9746 37.6635 9.12184 37.3346 8.67792 37.7731ZM11.7634 40.6229V38.9404C11.7689 38.8472 11.8511 38.765 11.9443 38.765C11.9936 38.765 12.0374 38.7815 12.0703 38.8144C12.1032 38.8472 12.1197 38.8911 12.1197 38.9404L12.1087 40.9792L13.4569 42.3438L13.561 39.7022C13.561 39.609 13.6487 39.5268 13.7419 39.5323C13.8405 39.5323 13.9118 39.62 13.9118 39.7186L13.7967 42.6891L14.827 43.7304C14.8983 43.8016 14.8928 43.9112 14.827 43.9825C14.7558 44.0482 14.6462 44.0482 14.5804 43.9825L13.9775 43.3741L10.9962 43.4618C10.8975 43.4618 10.8153 43.3906 10.8153 43.2919C10.8153 43.1988 10.892 43.1165 10.9852 43.1111L13.6378 43.0289L12.2896 41.6642L10.2398 41.6533C10.1905 41.6533 10.1467 41.6368 10.1138 41.6039C10.0809 41.571 10.0645 41.5272 10.0645 41.4779C10.0645 41.3847 10.1467 41.3025 10.2398 41.3025H11.9333L9.32461 38.6773C9.25884 38.6061 9.25884 38.4965 9.32461 38.4252C9.39586 38.354 9.50546 38.3595 9.57122 38.4252L11.7525 40.6229H11.7634Z" fill="#B2D982"/>
<path d="M62.913 22.6524C63.7844 23.3868 65.9163 23.8965 67.6208 21.8687C69.3252 19.8464 69.3033 16.021 68.8374 15.621C68.3661 15.2264 64.5955 15.8511 62.8911 17.8789C61.1867 19.9067 62.0471 21.918 62.9185 22.6524H62.913ZM63.2419 21.9948L63.7899 21.3481L63.4391 18.416C63.4282 18.3228 63.4939 18.2351 63.5926 18.2242C63.6858 18.2132 63.7735 18.2845 63.7844 18.3776L64.0968 20.9864L65.3189 19.534L65.1436 17.5117C65.1436 17.4679 65.1545 17.4186 65.1819 17.3857C65.2148 17.3473 65.2532 17.3309 65.3025 17.3254C65.3957 17.3144 65.4834 17.3912 65.4888 17.4843L65.6313 19.1559L67.9934 16.3553C68.0537 16.2841 68.1633 16.2731 68.2401 16.3334C68.3113 16.3937 68.3223 16.5033 68.262 16.58L66.289 18.9202L67.9496 18.7777C68.0428 18.7722 68.1304 18.8435 68.1359 18.9366C68.1359 18.986 68.125 19.0298 68.0976 19.0627C68.0647 19.1011 68.0263 19.1175 67.977 19.123L65.9711 19.2929L64.749 20.7452L67.3632 20.6137C67.4563 20.6137 67.544 20.6849 67.544 20.7781C67.544 20.8713 67.4728 20.959 67.3796 20.9644L64.4421 21.1124L63.5049 22.2249C63.4446 22.2962 63.335 22.3072 63.2583 22.2469C63.187 22.1866 63.1761 22.077 63.2364 22.0002L63.2419 21.9948Z" fill="#B2D982"/>
<path d="M90.0963 53.831C87.652 54.1817 87.0053 56.1218 87.1587 57.1686C87.3122 58.2154 88.4795 59.8924 90.9183 59.5416C93.3626 59.1909 95.7138 56.5109 95.6315 55.9464C95.5493 55.3765 92.5351 53.4747 90.0908 53.831H90.0963ZM94.6506 56.2588L91.8281 56.6699L93.0722 57.6015C93.1434 57.6564 93.1544 57.7605 93.1051 57.8317C93.0776 57.8646 93.0393 57.8865 92.9954 57.892C92.9516 57.8975 92.9077 57.892 92.8749 57.8591L91.3677 56.7356L89.614 56.9877L91.5157 58.5168C91.5815 58.5716 91.5924 58.6757 91.5431 58.747C91.4883 58.8182 91.3842 58.8292 91.3129 58.7744L89.1755 57.059L87.8328 57.2508C87.7451 57.2618 87.6574 57.2015 87.6465 57.1138C87.6355 57.0261 87.6958 56.9439 87.7835 56.9329L88.5672 56.8178L90.1401 54.5599C90.1894 54.4886 90.2936 54.4667 90.3648 54.5215C90.4361 54.5708 90.4525 54.675 90.4032 54.7462L89.0056 56.7576L90.7594 56.5055L91.8884 54.9928C91.9158 54.96 91.9542 54.9325 91.998 54.9325C92.0418 54.9271 92.0857 54.9326 92.1186 54.96C92.1898 55.0093 92.2008 55.1189 92.1515 55.1901L91.2143 56.4452L94.5957 55.9574C94.6834 55.9464 94.7711 56.0067 94.7821 56.0944C94.793 56.1821 94.7328 56.2643 94.6451 56.2753L94.6506 56.2588Z" fill="#B2D982"/>
<path d="M85.0048 36.0249C86.901 34.1397 87.2189 30.2869 86.7805 29.8484C86.342 29.41 82.4892 29.7059 80.593 31.5912C78.6967 33.4765 79.3928 35.581 80.1984 36.3976C81.0095 37.2087 83.1085 37.9102 85.0048 36.0249ZM80.582 35.7619L81.6233 34.7261L81.5302 31.7556C81.5302 31.6625 81.6014 31.5748 81.7001 31.5748C81.7932 31.5748 81.8809 31.6515 81.8809 31.7447L81.9631 34.3863L83.3223 33.0326V30.9939C83.3223 30.95 83.3442 30.9062 83.3771 30.8678C83.41 30.8349 83.4538 30.8185 83.5031 30.8185C83.5963 30.8185 83.6785 30.9007 83.6785 30.9939V32.6764L85.8652 30.4951C85.9365 30.4294 86.0461 30.4294 86.1173 30.4951C86.1831 30.5664 86.1831 30.676 86.1173 30.7472L83.4922 33.3559H85.1856C85.2788 33.3559 85.361 33.4436 85.361 33.5368C85.361 33.5861 85.3446 33.63 85.3117 33.6629C85.2788 33.6957 85.235 33.7122 85.1856 33.7122H83.1359L81.7768 35.0604L84.4293 35.159C84.5225 35.159 84.6047 35.2467 84.5992 35.3399C84.5938 35.4385 84.5115 35.5153 84.4184 35.5098L81.437 35.4002L80.8287 36.003C80.7574 36.0743 80.6478 36.0688 80.5766 36.003C80.5053 35.9318 80.5053 35.8222 80.5766 35.7509L80.582 35.7619Z" fill="#B2D982"/>
</svg>
