<svg width="89" height="106" viewBox="0 0 89 106" fill="none" xmlns="http://www.w3.org/2000/svg">
<path d="M85.9695 58.716C87.1392 57.1162 87.8732 55.1917 87.9956 53.0877C88.2599 48.5937 85.6367 44.5894 81.6825 42.7424C82.534 41.4286 83.0283 39.8822 83.0283 38.2242C83.0283 34.0842 79.9501 30.6228 75.849 29.7987C76.1035 28.737 76.1671 27.6074 76.0154 26.4536C75.3498 21.5573 70.9551 18.0766 66.2032 18.6777C65.9438 18.7116 65.6795 18.7553 65.4299 18.8135C66.0123 17.0682 66.0564 15.1388 65.4446 13.2578C63.9275 8.5942 58.9113 5.91819 54.0566 7.06713C54.0076 6.86352 53.9489 6.65991 53.8804 6.4563C52.5688 2.4326 48.6635 -0.112521 44.4939 0.00382714C40.3244 -0.112521 36.4142 2.4326 35.1026 6.4563C35.039 6.65991 34.9803 6.86352 34.9313 7.06713C30.0717 5.91819 25.0653 8.5942 23.5482 13.2578C22.9364 15.1242 22.9805 17.0391 23.5482 18.7747C23.4845 18.765 23.4209 18.7553 23.3573 18.7504C18.3313 18.1154 13.7164 21.567 13.0508 26.4633C12.8991 27.6026 12.9725 28.7224 13.2368 29.7793C9.08188 30.5695 5.95469 34.0502 5.95469 38.2291C5.95469 39.887 6.44898 41.4335 7.30051 42.7472C3.35115 44.5943 0.728037 48.5986 0.987412 53.0925C1.10976 55.1917 1.84384 57.1211 3.01837 58.7209C1.00209 60.8055 -0.162648 63.6463 0.0184253 66.7101C0.316952 71.8149 4.23205 75.8919 9.23359 76.7597C9.23359 76.8809 9.23848 77.0021 9.24827 77.1233C9.59574 83.091 14.8909 87.6576 21.0865 87.3231C23.2399 87.2068 25.2121 86.5135 26.8613 85.4082C28.1288 88.7775 31.4762 91.1869 35.4109 91.1869C36.2478 91.1869 37.0553 91.0754 37.8285 90.8718C39.4924 92.8497 42.0323 94.1101 44.8806 94.1101C47.7288 94.1101 50.1366 92.9127 51.8054 91.0172C52.3878 91.1287 52.9799 91.1869 53.5917 91.1869C57.5263 91.1869 60.8737 88.7775 62.1413 85.4082C63.7905 86.5135 65.7676 87.2068 67.916 87.3231C74.1068 87.6576 79.4068 83.091 79.7543 77.1233C79.7592 77.0021 79.7641 76.8809 79.769 76.7597C84.7656 75.8919 88.6856 71.8149 88.9793 66.7101C89.1603 63.6414 87.9956 60.8006 85.9793 58.7209L85.9695 58.716Z" fill="#569986"/>
<path d="M55.3339 69.0613L62.7383 63.4621L61.9945 62.444L47.4303 72.256L46.9458 57.8579L55.789 49.0106L54.8739 48.075L46.8479 54.9444L46.3439 39.9258H41.5234L41.127 51.706L33.4485 45.0063L32.5431 45.9468L41.0291 54.6729L40.618 66.9234L27.2627 58.1003L26.3671 59.3317L33.0521 64.4946L24.6346 64.8582V65.8714L35.3669 66.2835L40.5104 70.2587L39.3358 105.313H48.5363L47.5184 74.9757L53.0338 70.8017L64.3435 70.4623L64.3484 69.4491L55.3339 69.0613Z" fill="#C8BC93"/>
<path d="M46.0404 13.1803C45.6635 12.5694 44.8071 12.7731 44.2443 12.9427C44.1611 12.967 43.5543 13.1318 43.5494 13.1997C43.569 12.87 43.5494 12.584 43.4858 12.2543C43.3879 11.7453 43.2068 10.9987 42.6587 10.7806C42.4336 10.6885 42.1644 10.7127 41.9393 10.8727C41.4205 11.2363 41.6163 12.0507 41.7827 12.5452C41.8806 12.8409 42.0176 13.1173 42.1644 13.3936C42.0176 13.3936 41.8708 13.3742 41.724 13.379C41.5674 13.379 41.4156 13.3936 41.259 13.413C40.7892 13.4711 40.0552 13.5633 39.7958 14.0238C39.6783 14.2371 39.6685 14.4989 39.7958 14.7413C40.0943 15.2988 40.936 15.2115 41.4499 15.1097C41.768 15.0467 42.0763 14.9497 42.3748 14.8334C42.3504 15.0564 42.3797 15.2842 42.4189 15.5024C42.5119 16.0599 42.7076 17.1167 43.4417 17.1797C43.5934 17.1943 43.8136 17.1458 43.9409 17.0634C44.4694 16.7144 44.2981 15.8951 44.1464 15.3957C44.073 15.1485 43.9654 14.9061 43.8528 14.6686C44.4743 14.7122 45.2133 14.5813 45.7516 14.2565C45.8789 14.1789 46.0257 14.0432 46.0942 13.9075C46.2019 13.6893 46.1921 13.4178 46.0501 13.1851L46.0404 13.1803ZM43.2411 14.5861C42.9474 14.7219 42.5217 14.688 42.37 14.3535C42.1155 13.8008 42.8496 13.0397 43.334 13.5875C43.4075 13.6699 43.4613 13.7814 43.4955 13.8978C43.5641 14.1595 43.5102 14.4601 43.2411 14.5813V14.5861Z" fill="#B2D982"/>
<path d="M36.8889 77.2881C36.512 76.6773 35.6556 76.8809 35.0928 77.0506C35.0096 77.0748 34.4028 77.2396 34.3979 77.3075C34.4175 76.9778 34.3979 76.687 34.3343 76.3622C34.2364 75.8531 34.0553 75.1066 33.5072 74.8933C33.2821 74.8012 33.0129 74.8254 32.7878 74.9854C32.2691 75.3538 32.4648 76.1634 32.6312 76.6579C32.7291 76.9536 32.8661 77.2299 33.0129 77.5062C32.8661 77.5014 32.7193 77.4869 32.5725 77.4917C32.4159 77.4917 32.2642 77.5063 32.1076 77.5256C31.6377 77.5838 30.9037 77.6759 30.6443 78.1365C30.5268 78.3498 30.517 78.6116 30.6443 78.854C30.9477 79.4115 31.7846 79.3242 32.2984 79.2224C32.6165 79.1594 32.9248 79.0624 33.2234 78.9461C33.1989 79.1691 33.2283 79.3969 33.2674 79.6151C33.3604 80.1726 33.5561 81.2294 34.2902 81.2973C34.4419 81.3118 34.6622 81.2633 34.7894 81.1809C35.3179 80.8319 35.1467 80.0126 34.9949 79.5133C34.9215 79.2612 34.8139 79.0236 34.7013 78.7861C35.3228 78.8249 36.0618 78.6988 36.6001 78.374C36.7274 78.2965 36.8742 78.1607 36.9427 78.025C37.0504 77.8068 37.0406 77.5353 36.8987 77.3026L36.8889 77.2881ZM34.0896 78.694C33.7959 78.8297 33.3702 78.7958 33.2185 78.4613C32.964 77.9086 33.6981 77.1475 34.1826 77.6953C34.256 77.7777 34.3098 77.8892 34.3441 78.0104C34.4126 78.2722 34.3587 78.5728 34.0896 78.694Z" fill="#B2D982"/>
<path d="M21.5564 38.3696C21.39 37.6715 20.514 37.6037 19.9219 37.5891C19.8338 37.5891 19.2074 37.5552 19.1829 37.6182C19.3052 37.3128 19.3786 37.0316 19.4178 36.702C19.4814 36.1881 19.545 35.4221 19.0948 35.0489C18.9039 34.8937 18.6446 34.8355 18.3803 34.9131C17.7734 35.1022 17.7 35.9312 17.7049 36.4547C17.7049 36.765 17.749 37.0704 17.7979 37.3807C17.656 37.3322 17.5239 37.274 17.3819 37.2255C17.2351 37.1819 17.0834 37.1431 16.9317 37.114C16.4668 37.0219 15.7376 36.8862 15.351 37.2401C15.1699 37.4049 15.0769 37.6521 15.1259 37.9236C15.2335 38.5441 16.0606 38.7187 16.5842 38.7865C16.9023 38.8253 17.2302 38.8302 17.5532 38.8108C17.4553 39.0144 17.4162 39.2422 17.3819 39.4604C17.2938 40.0227 17.147 41.0844 17.8224 41.3704C17.9643 41.4286 18.1845 41.4528 18.3362 41.4141C18.948 41.2444 19.0459 40.4154 19.0556 39.8918C19.0605 39.6301 19.0361 39.3683 19.0067 39.1113C19.5842 39.344 20.328 39.4507 20.9398 39.3053C21.0866 39.2713 21.2677 39.1889 21.3753 39.0774C21.5466 38.9029 21.6249 38.646 21.5613 38.3745L21.5564 38.3696ZM18.4537 38.8399C18.1307 38.8786 17.7392 38.7138 17.7 38.3502C17.6315 37.7443 18.5711 37.2498 18.855 37.9188C18.899 38.0206 18.9186 38.1418 18.9088 38.2678C18.8893 38.5393 18.7424 38.8059 18.4537 38.8399Z" fill="#B2D982"/>
<path d="M31.7014 28.4364C31.7797 27.7238 30.9722 27.3699 30.4192 27.1614C30.336 27.1324 29.7536 26.8948 29.7096 26.9433C29.9298 26.6961 30.0913 26.4537 30.2381 26.1579C30.473 25.6925 30.7862 24.9945 30.4828 24.4903C30.3556 24.2818 30.1305 24.1412 29.8564 24.1315C29.2202 24.1073 28.8776 24.8733 28.7063 25.3629C28.6036 25.6586 28.5448 25.9592 28.4861 26.2646C28.3736 26.1725 28.2659 26.0755 28.1436 25.9834C28.0212 25.8913 27.8891 25.8089 27.7569 25.7313C27.3459 25.4938 26.7096 25.1254 26.2203 25.3338C26 25.4308 25.8239 25.6344 25.7798 25.9059C25.677 26.5264 26.3964 26.9627 26.8663 27.1954C27.155 27.336 27.4584 27.4475 27.7716 27.5347C27.615 27.6947 27.4976 27.8935 27.3948 28.0922C27.1256 28.5916 26.6362 29.5466 27.1746 30.0411C27.2871 30.1429 27.4878 30.2398 27.6444 30.2495C28.2806 30.2883 28.6476 29.5369 28.8336 29.0473C28.9266 28.8049 28.9902 28.5479 29.044 28.291C29.5089 28.6982 30.1794 29.0424 30.8058 29.1054C30.9575 29.12 31.1533 29.1054 31.2903 29.0327C31.5105 28.9212 31.6671 28.7079 31.6965 28.4316L31.7014 28.4364ZM28.6183 27.8644C28.3002 27.7917 27.9869 27.5105 28.0652 27.1566C28.2023 26.5652 29.2545 26.4003 29.2985 27.1275C29.3083 27.239 29.2838 27.3602 29.2349 27.4717C29.1272 27.7238 28.9021 27.9274 28.6134 27.8644H28.6183Z" fill="#B2D982"/>
<path d="M21.478 73.8559C21.5514 73.1432 20.7488 72.7893 20.1958 72.5809C20.1126 72.5518 19.5302 72.3142 19.4862 72.3627C19.7064 72.1155 19.8679 71.8731 20.0147 71.5774C20.2496 71.112 20.5629 70.4139 20.2594 69.9097C20.1371 69.7013 19.9071 69.5607 19.6281 69.551C18.9919 69.5267 18.6493 70.2927 18.4781 70.7872C18.3753 71.0829 18.3166 71.3835 18.2578 71.6889C18.1453 71.5968 18.0376 71.4998 17.9202 71.4077C17.7929 71.3156 17.6657 71.2332 17.5335 71.1556C17.1225 70.9181 16.4863 70.5496 15.9969 70.7581C15.7718 70.855 15.6005 71.0587 15.5564 71.3301C15.4537 71.9507 16.173 72.387 16.6429 72.6197C16.9316 72.7602 17.235 72.8717 17.5482 72.959C17.3916 73.119 17.2742 73.3226 17.1714 73.5165C16.9022 74.0158 16.408 74.9709 16.9512 75.4653C17.0637 75.5671 17.2644 75.6641 17.421 75.6738C18.0572 75.7126 18.4242 74.9612 18.6053 74.4715C18.6983 74.2291 18.7619 73.9722 18.8206 73.7153C19.2856 74.1225 19.956 74.4667 20.5775 74.5297C20.7292 74.5442 20.925 74.5297 21.062 74.457C21.2823 74.3455 21.4438 74.1322 21.4731 73.8559H21.478ZM18.39 73.2887C18.0719 73.2159 17.7587 72.9348 17.837 72.5809C17.974 71.9894 19.0262 71.8246 19.0702 72.5518C19.08 72.6633 19.0555 72.7845 19.0066 72.896C18.8989 73.1481 18.6689 73.3517 18.3851 73.2887H18.39Z" fill="#B2D982"/>
<path d="M47.6897 25.9883C47.0388 25.678 46.4319 26.318 46.0502 26.7591C45.9915 26.827 45.5755 27.2924 45.6098 27.3505C45.4434 27.0645 45.2721 26.8318 45.0372 26.5894C44.675 26.2161 44.1122 25.6926 43.5348 25.8041C43.295 25.8526 43.0845 26.0174 42.9818 26.2743C42.7468 26.8609 43.3635 27.4378 43.7746 27.7578C44.0192 27.9517 44.2884 28.1068 44.5576 28.2619C44.4303 28.3395 44.3031 28.4074 44.1759 28.4898C44.0486 28.577 43.9214 28.6692 43.8039 28.7661C43.4418 29.0667 42.879 29.5418 42.9132 30.0653C42.9328 30.3077 43.0698 30.5356 43.3096 30.6665C43.8675 30.9719 44.5233 30.4435 44.9001 30.0799C45.1302 29.8569 45.3357 29.6096 45.5217 29.3479C45.6244 29.5466 45.7762 29.726 45.9279 29.886C46.3145 30.3029 47.0583 31.0834 47.7092 30.7392C47.8463 30.6665 48.0029 30.5113 48.0665 30.3707C48.3161 29.789 47.719 29.1976 47.3177 28.8631C47.1171 28.6934 46.8968 28.548 46.6717 28.4122C47.215 28.1117 47.7631 27.6026 48.0322 27.0403C48.0958 26.9045 48.1448 26.7155 48.1252 26.5603C48.091 26.318 47.9392 26.095 47.6897 25.9786V25.9883ZM46.1187 28.6837C45.9474 28.9552 45.5706 29.1588 45.2623 28.96C44.7435 28.6352 44.9393 27.5978 45.6489 27.7965C45.7566 27.8256 45.8642 27.8887 45.9572 27.9711C46.1628 28.1553 46.2802 28.4365 46.1236 28.6789L46.1187 28.6837Z" fill="#B2D982"/>
<path d="M59.3224 39.4846C59.1315 38.7914 58.2506 38.7575 57.6585 38.7575C57.5704 38.7575 56.944 38.7526 56.9195 38.8108C57.0321 38.5005 57.0957 38.2193 57.125 37.8848C57.174 37.3661 57.2082 36.6002 56.7433 36.2463C56.5476 36.096 56.2882 36.0475 56.0239 36.1396C55.422 36.3481 55.3828 37.1819 55.4073 37.7055C55.422 38.0157 55.4758 38.3163 55.5345 38.6217C55.3926 38.5781 55.2605 38.5248 55.1137 38.486C54.9668 38.4472 54.8151 38.4133 54.6585 38.389C54.1936 38.3163 53.4595 38.2048 53.0827 38.5732C52.9114 38.7429 52.8233 38.995 52.8821 39.2616C53.0142 39.8773 53.8461 40.0227 54.3698 40.0712C54.6928 40.1003 55.0158 40.0906 55.3388 40.0615C55.2507 40.27 55.2164 40.4978 55.192 40.716C55.1234 41.2783 55.0207 42.3449 55.7009 42.6115C55.8428 42.6648 56.068 42.6842 56.2148 42.6357C56.8216 42.4418 56.8852 41.6128 56.8804 41.0893C56.8804 40.8275 56.8461 40.5657 56.802 40.3088C57.3844 40.5172 58.1332 40.5996 58.74 40.4348C58.8868 40.396 59.063 40.3088 59.1658 40.1924C59.3273 40.013 59.3958 39.7513 59.3273 39.4846H59.3224ZM56.2441 40.0712C55.9212 40.1197 55.5247 39.9694 55.4709 39.6107C55.3828 39.0095 56.3029 38.4811 56.6112 39.1404C56.6601 39.2422 56.6846 39.3634 56.6797 39.4846C56.6699 39.7561 56.5329 40.0276 56.2441 40.0712Z" fill="#B2D982"/>
<path d="M13.2466 53.1168C12.4929 53.1556 12.258 54.0331 12.1308 54.6293C12.1112 54.7166 11.9644 55.3517 12.0231 55.3856C11.7295 55.2062 11.4506 55.0753 11.1178 54.9735C10.599 54.8087 9.82089 54.6051 9.35108 54.9978C9.15533 55.1578 9.04277 55.4147 9.07702 55.6959C9.16022 56.3503 10.0069 56.5733 10.5452 56.6654C10.8682 56.7236 11.1912 56.7333 11.5191 56.743C11.4408 56.8739 11.3576 56.9999 11.2842 57.1357C11.2108 57.2763 11.1422 57.4217 11.0835 57.572C10.9024 58.0277 10.6235 58.7403 10.922 59.2009C11.059 59.4142 11.2988 59.5548 11.5876 59.5548C12.2531 59.5548 12.5859 58.7549 12.7474 58.2361C12.8453 57.9162 12.9138 57.5865 12.953 57.2569C13.1438 57.3926 13.3738 57.475 13.5941 57.5526C14.1569 57.7465 15.2286 58.0907 15.6544 57.4605C15.7425 57.3296 15.8061 57.1066 15.7914 56.9515C15.7278 56.297 14.8909 56.0449 14.3526 55.9383C14.0835 55.8849 13.8094 55.8559 13.5353 55.8462C13.8828 55.3032 14.1275 54.5663 14.0932 53.9216C14.0835 53.7664 14.0345 53.5677 13.9415 53.4368C13.7898 53.2332 13.5402 53.1023 13.2515 53.1168H13.2466ZM13.1585 56.3552C13.1389 56.6897 12.8942 57.0581 12.5125 57.0339C11.8763 56.9902 11.5386 55.948 12.2825 55.7783C12.3951 55.754 12.5272 55.7589 12.6496 55.788C12.9285 55.8559 13.1781 56.0546 13.1585 56.3552Z" fill="#B2D982"/>
<path d="M28.9216 48.5938C28.3589 48.1914 27.6786 48.6859 27.243 49.0398C27.1794 49.0931 26.6998 49.4616 26.7243 49.5198C26.6215 49.2192 26.4943 48.9719 26.3181 48.7053C26.0392 48.2884 25.6036 47.697 25.0359 47.7067C24.801 47.7067 24.571 47.8279 24.434 48.0509C24.111 48.5647 24.5906 49.2095 24.9185 49.5876C25.1142 49.8106 25.3393 50.0045 25.5693 50.1985C25.4372 50.2469 25.3051 50.2906 25.1729 50.3439C25.0359 50.4021 24.9038 50.4699 24.7765 50.5426C24.385 50.7656 23.7684 51.1147 23.7097 51.6189C23.6852 51.8516 23.7733 52.0891 23.9788 52.2539C24.4535 52.6369 25.1632 52.2539 25.5791 51.9728C25.8336 51.8031 26.0734 51.6043 26.2936 51.3862C26.3524 51.5946 26.4649 51.7837 26.5824 51.9631C26.876 52.4236 27.4388 53.2865 28.1093 53.0781C28.2463 53.0344 28.4274 52.9132 28.5057 52.792C28.8433 52.2879 28.3882 51.6286 28.0652 51.2407C27.9037 51.0468 27.7226 50.8723 27.5318 50.7026C28.0946 50.5136 28.7014 50.1257 29.0587 49.6409C29.1419 49.5246 29.2251 49.3549 29.23 49.2095C29.2397 48.9768 29.137 48.7392 28.9216 48.5841V48.5938ZM26.969 50.8675C26.7586 51.0953 26.367 51.2213 26.1126 50.9838C25.6819 50.5863 26.0489 49.6458 26.6803 49.9561C26.7781 50.0045 26.8711 50.0773 26.9396 50.1742C27.1011 50.3827 27.1599 50.6687 26.9739 50.8723L26.969 50.8675Z" fill="#B2D982"/>
<path d="M54.7759 78.8492C54.8445 78.9898 54.9864 79.1207 55.1185 79.1982C55.6568 79.523 56.3958 79.6539 57.0173 79.6103C56.9048 79.8478 56.7971 80.0854 56.7237 80.3375C56.572 80.8368 56.4007 81.6561 56.9292 82.0051C57.0565 82.0924 57.2767 82.136 57.4284 82.1215C58.1576 82.0585 58.3534 81.0016 58.4463 80.4441C58.4806 80.226 58.5149 79.9933 58.4904 79.7751C58.7889 79.8915 59.1021 79.9884 59.4153 80.0514C59.9292 80.1533 60.7709 80.2405 61.0695 79.683C61.1967 79.4406 61.1869 79.174 61.0695 78.9607C60.8101 78.505 60.076 78.408 59.6062 78.3499C59.4496 78.3305 59.2979 78.3208 59.1413 78.3159C58.9896 78.3159 58.8476 78.3305 58.7008 78.3305C58.8427 78.0541 58.9798 77.7778 59.0826 77.4821C59.2489 76.9876 59.4447 76.178 58.9259 75.8096C58.7008 75.6496 58.4317 75.6254 58.2065 75.7175C57.6584 75.9356 57.4774 76.6774 57.3795 77.1864C57.3159 77.5112 57.2963 77.8021 57.3159 78.1317C57.3159 78.0687 56.7041 77.899 56.6209 77.8748C56.0581 77.7099 55.2017 77.5015 54.8249 78.1123C54.6781 78.3499 54.6732 78.6165 54.7808 78.8346L54.7759 78.8492ZM57.3648 78.8492C57.3942 78.7328 57.4529 78.6213 57.5263 78.5341C58.0108 77.9863 58.7449 78.7474 58.4904 79.3C58.3387 79.6297 57.9129 79.6636 57.6193 79.5327C57.355 79.4115 57.3012 79.111 57.3697 78.8492H57.3648Z" fill="#B2D982"/>
<path d="M67.9748 43.0673C68.0824 43.1788 68.2635 43.2612 68.4103 43.2951C69.0221 43.4405 69.7659 43.3339 70.3434 43.1012C70.3092 43.3581 70.2896 43.6199 70.2945 43.8817C70.3043 44.4004 70.4021 45.2342 71.0139 45.4039C71.1607 45.4427 71.3858 45.4185 71.5228 45.3603C72.1982 45.0743 72.0514 44.0077 71.9633 43.4502C71.929 43.2321 71.885 43.0042 71.792 42.8006C72.115 42.82 72.438 42.82 72.761 42.7764C73.2797 42.7134 74.1068 42.5388 74.2194 41.9183C74.2683 41.6468 74.1753 41.3996 73.9942 41.2348C73.6027 40.876 72.8784 41.0166 72.4135 41.1087C72.2618 41.1378 72.1101 41.1766 71.9633 41.2202C71.8214 41.2639 71.6892 41.322 71.5473 41.3705C71.5963 41.0651 71.6403 40.7597 71.6403 40.4494C71.6403 39.9259 71.5718 39.0969 70.9649 38.9078C70.7007 38.8254 70.4364 38.8884 70.2504 39.0435C69.8002 39.4168 69.8589 40.1828 69.9274 40.6967C69.9715 41.0263 70.0449 41.3075 70.1672 41.6129C70.1428 41.5499 69.5115 41.5838 69.4234 41.5838C68.8312 41.6032 67.9552 41.6711 67.7888 42.3692C67.7252 42.6406 67.8035 42.8976 67.9748 43.0721V43.0673ZM70.4364 42.2674C70.4315 42.1462 70.4462 42.025 70.4902 41.9183C70.7741 41.2493 71.7137 41.7438 71.6452 42.3498C71.606 42.7134 71.2145 42.8733 70.8866 42.8394C70.5979 42.8055 70.4511 42.5388 70.4315 42.2674H70.4364Z" fill="#B2D982"/>
<path d="M59.797 28.4026C59.9341 28.4705 60.1298 28.4898 60.2815 28.4753C60.9079 28.4123 61.5735 28.0681 62.0433 27.6609C62.0971 27.9178 62.1608 28.1699 62.2538 28.4171C62.4397 28.9068 62.8019 29.6582 63.443 29.6194C63.5947 29.6097 63.8002 29.5127 63.9128 29.4109C64.4511 28.9213 63.9568 27.9614 63.6925 27.4621C63.5898 27.2682 63.4723 27.0646 63.3157 26.9046C63.624 26.8173 63.9323 26.7058 64.2211 26.5653C64.6909 26.3326 65.4103 25.9011 65.3075 25.2757C65.2635 25.0042 65.0873 24.8006 64.8671 24.7037C64.3826 24.4952 63.7415 24.8637 63.3304 25.1012C63.1983 25.1788 63.0661 25.2612 62.9438 25.3533C62.8263 25.4406 62.7187 25.5375 62.6012 25.6345C62.5474 25.3291 62.4838 25.0285 62.381 24.7328C62.2097 24.2383 61.8671 23.4772 61.2309 23.5014C60.952 23.5111 60.7269 23.6566 60.5996 23.8602C60.3011 24.3595 60.6143 25.0624 60.8443 25.5278C60.996 25.8235 61.1575 26.0659 61.3729 26.3132C61.3288 26.2647 60.7464 26.4974 60.6632 26.5313C60.1102 26.7398 59.3076 27.0937 59.381 27.8063C59.4104 28.0826 59.5719 28.2959 59.7872 28.4074L59.797 28.4026ZM61.8525 26.8416C61.8035 26.7301 61.779 26.6089 61.7888 26.4974C61.8378 25.7702 62.8851 25.9302 63.027 26.5265C63.1102 26.8804 62.7921 27.1615 62.4789 27.2343C62.195 27.2973 61.965 27.0937 61.8573 26.8416H61.8525Z" fill="#B2D982"/>
<path d="M70.7446 72.576C70.8817 72.6439 71.0823 72.6633 71.2291 72.6487C71.8555 72.5857 72.5211 72.2415 72.9909 71.8343C73.0448 72.0912 73.1133 72.3433 73.2014 72.5906C73.3873 73.0802 73.7544 73.8316 74.3906 73.7928C74.5472 73.7831 74.7478 73.6862 74.8604 73.5844C75.3987 73.0947 74.9093 72.1349 74.6402 71.6355C74.5325 71.4416 74.4199 71.238 74.2633 71.078C74.5716 70.9908 74.88 70.8841 75.1687 70.7387C75.6434 70.506 76.3628 70.0745 76.2551 69.4492C76.2111 69.1777 76.0349 68.9741 75.8147 68.8771C75.3302 68.6687 74.6891 69.0371 74.278 69.2746C74.141 69.3522 74.0137 69.4346 73.8914 69.5267C73.7739 69.614 73.6663 69.7109 73.5537 69.803C73.495 69.4976 73.4363 69.1971 73.3335 68.9013C73.1622 68.4069 72.8196 67.6458 72.1834 67.67C71.9045 67.6797 71.6794 67.8251 71.5521 68.0287C71.2487 68.5281 71.5619 69.231 71.7968 69.6964C71.9485 69.9921 72.11 70.2345 72.3303 70.4817C72.2862 70.4333 71.7038 70.666 71.6206 70.6999C71.0676 70.9084 70.265 71.2623 70.3384 71.9749C70.3678 72.2464 70.5293 72.4645 70.7495 72.576H70.7446ZM72.8001 71.015C72.7511 70.9035 72.7267 70.7775 72.7364 70.6708C72.7805 69.9436 73.8327 70.1036 73.9697 70.6999C74.0529 71.0538 73.7348 71.3398 73.4216 71.4077C73.1377 71.4707 72.9077 71.2671 72.8001 71.015Z" fill="#B2D982"/>
<path d="M74.1019 52.5643C74.0089 52.6951 73.96 52.8891 73.9502 53.049C73.9159 53.6987 74.1655 54.4355 74.5081 54.9736C74.234 54.9882 73.96 55.0124 73.6908 55.0657C73.1525 55.1772 72.3107 55.4245 72.252 56.0789C72.2373 56.2341 72.3058 56.4571 72.389 56.588C72.8099 57.2182 73.8865 56.874 74.4493 56.6801C74.6696 56.6074 74.8996 56.5201 75.0904 56.3844C75.1296 56.714 75.1932 57.0437 75.296 57.3636C75.4575 57.8823 75.7903 58.6871 76.4558 58.6822C76.7446 58.6822 76.9844 58.5368 77.1214 58.3283C77.4199 57.8678 77.141 57.1552 76.9599 56.6995C76.9012 56.5492 76.8327 56.4037 76.7593 56.2632C76.6858 56.1274 76.6026 56.0014 76.5243 55.8705C76.8522 55.8608 77.1703 55.8511 77.4982 55.7929C78.0366 55.7008 78.8881 55.473 78.9664 54.8234C79.0006 54.5373 78.893 54.2852 78.6972 54.1253C78.2225 53.7374 77.4444 53.941 76.9256 54.101C76.5929 54.2028 76.3139 54.3337 76.0203 54.5131C76.079 54.4792 75.9322 53.8441 75.9126 53.7568C75.7854 53.1605 75.5505 52.2831 74.7968 52.2443C74.5081 52.2298 74.2585 52.3558 74.1068 52.5643H74.1019ZM75.3841 54.9155C75.5064 54.8864 75.6386 54.8815 75.7511 54.9058C76.4999 55.0706 76.1573 56.1177 75.5211 56.1614C75.1394 56.1856 74.8947 55.8172 74.8751 55.4827C74.8555 55.1821 75.1051 54.9833 75.3841 54.9155Z" fill="#B2D982"/>
<path d="M55.6666 55.2257C55.6471 55.3711 55.696 55.5553 55.7547 55.6814C56.0141 56.2195 56.5426 56.7091 57.0614 57C56.8461 57.1309 56.6307 57.2714 56.4399 57.4314C56.0533 57.7514 55.4856 58.3186 55.7254 58.8761C55.7841 59.0118 55.9358 59.1621 56.063 59.23C56.6846 59.5596 57.3991 58.8082 57.771 58.4107C57.9178 58.2556 58.0597 58.0859 58.1576 57.892C58.3338 58.1441 58.5344 58.3816 58.7547 58.5949C59.1168 58.944 59.7432 59.4481 60.2767 59.1573C60.5116 59.0312 60.6388 58.8131 60.6584 58.5804C60.6926 58.081 60.1494 57.6253 59.8069 57.3345C59.6943 57.2424 59.5768 57.1503 59.4496 57.0678C59.3322 56.9903 59.2098 56.9224 59.0875 56.8497C59.3468 56.6994 59.6062 56.5491 59.8411 56.3649C60.2375 56.0546 60.8248 55.502 60.5997 54.9396C60.5018 54.6972 60.3011 54.5373 60.0711 54.4888C59.5181 54.3773 58.9749 54.8815 58.6274 55.2402C58.4023 55.4681 58.2359 55.6911 58.0793 55.9674C58.1087 55.9141 57.7074 55.4681 57.6535 55.4002C57.2865 54.9736 56.709 54.3627 56.0826 54.6585C55.8428 54.7748 55.696 54.9833 55.6617 55.216L55.6666 55.2257ZM57.7465 56.5685C57.8346 56.4909 57.9374 56.4279 58.0402 56.4037C58.7204 56.2146 58.9064 57.2036 58.4072 57.5187C58.1087 57.7029 57.7514 57.5138 57.585 57.2521C57.4333 57.0145 57.5508 56.7479 57.7465 56.5734V56.5685Z" fill="#B2D982"/>
</svg>
