<svg width="48" height="48" viewBox="0 0 48 48" fill="none" xmlns="http://www.w3.org/2000/svg">
<path d="M0 24C0 10.7452 10.7452 0 24 0C37.2548 0 48 10.7452 48 24C48 37.2548 37.2548 48 24 48C10.7452 48 0 37.2548 0 24Z" fill="white"/>
<g clip-path="url(#clip0_221_2144)">
<path d="M10.3402 34.685C7.67227 34.2242 7.37314 32.393 7.29229 30.295C7.23974 28.5932 7.11038 26.479 8.69903 25.2623C9.23262 24.8944 9.9845 24.7933 10.6353 24.9146C11.2012 25.0318 11.1123 25.8444 10.7606 27.4411C10.6474 29.4016 10.9627 29.5633 11.27 31.5117C11.4034 32.1221 11.0598 32.9589 11.3144 33.537C11.7672 34.3576 11.4155 34.9801 10.3402 34.681V34.685Z" fill="#36BC87"/>
<path d="M38.0951 34.782C37.3957 34.6122 37.804 33.5248 37.6949 33.0317C37.6383 31.5522 37.6059 30.0727 37.5817 28.5932C37.5534 27.72 37.4928 26.855 37.4321 26.0465C37.42 25.5897 37.3068 25.1167 37.3877 24.664C37.6625 23.7221 39.5948 24.7934 39.9546 25.1976C40.7549 26.0909 40.8115 27.4936 40.8883 28.5972C40.9854 30.012 40.9975 33.3793 39.1137 33.8846C38.8631 34.2323 38.7216 34.9154 38.0951 34.782Z" fill="#36BC87"/>
<ellipse cx="24.56" cy="10.712" rx="2.5" ry="2" fill="#FFCC52"/>
<path d="M16.242 39.4025C16.238 38.6991 17.3335 38.6991 17.3294 39.4025C17.3335 40.1059 16.238 40.1059 16.242 39.4025Z" fill="#231815"/>
<path d="M25.1676 40.7607C23.1747 40.6596 21.1818 40.506 19.193 40.3484C18.8979 40.3201 18.6917 40.021 18.7281 39.738C18.9221 38.885 20.2076 39.4631 20.8301 39.3944C25.5112 39.6652 30.552 40.312 34.8369 38.0402C36.3568 36.9851 36.6236 33.7149 36.846 31.9645C36.9147 29.6361 36.8015 27.3037 36.6883 24.9753C36.563 23.0067 36.4943 20.9127 35.3382 19.2311C34.9258 18.5722 34.3437 18.0103 33.5433 17.9093C32.2579 17.6546 30.9522 17.5535 29.6506 17.4646C27.3424 17.3393 25.0301 17.501 22.7179 17.501C19.5366 17.4929 16.048 17.8405 13.5013 19.9264C12.1633 21.1027 11.7308 23.0956 11.6621 24.7853C11.4761 28.6821 11.1244 33.6987 13.0284 37.1994C13.756 38.4929 15.2881 38.4768 15.1627 39.2084C14.8798 40.2029 13.7358 39.3176 13.2305 38.978C9.6611 36.2373 10.3726 27.4128 10.7081 23.2815C11.2538 19.32 14.2411 17.5697 17.8833 16.8219C20.1551 16.3044 22.4956 16.458 24.8078 16.3812C28.1185 16.357 31.6151 16.1023 34.7884 17.1857C38.4993 19.6758 37.6342 25.6019 37.9374 29.527C38.0263 32.102 37.7434 36.9043 35.7505 38.7072C32.6945 40.7809 28.7249 40.7486 25.1635 40.7607H25.1676Z" fill="#231815"/>
<path d="M11.9571 34.1959C12.0339 34.5597 12.1269 34.9155 12.232 35.2631C11.9005 35.2954 11.5691 35.3197 11.2376 35.3237C7.81373 35.3763 6.47166 33.0196 6.52826 29.8706C6.45954 27.1865 6.24125 23.1967 9.71768 22.7277C10.4574 22.5903 11.2133 22.6429 11.9612 22.659C11.8682 23.0148 11.8035 23.3745 11.755 23.7303C11.6135 23.7181 11.4761 23.7141 11.3589 23.7303C10.0613 23.6575 8.32306 23.8839 7.94712 25.3674C7.44183 27.0612 7.58735 28.8681 7.65203 30.6103C7.68841 33.1489 9.18408 34.4587 11.7025 34.2202C11.7874 34.2121 11.8682 34.204 11.9531 34.1959H11.9571Z" fill="#231815"/>
<path d="M40.6498 23.4069C41.8423 25.4968 41.7372 29.3289 41.3775 31.6816C41.1026 32.959 40.4356 34.2202 39.1986 34.7861C38.2487 35.2065 37.2381 35.534 36.2073 35.724C36.3164 35.348 36.4054 34.9559 36.4822 34.5638C37.6544 34.3213 38.8308 33.8887 39.5463 33.2015C40.9288 31.3703 40.5649 27.6837 40.2698 25.4806C39.8818 23.5282 39.2512 23.1401 37.3028 23.2169C37.0481 23.2169 36.8055 23.225 36.5711 23.2412C36.5387 22.8814 36.4943 22.5216 36.4336 22.1618C36.8662 22.1497 37.2583 22.1538 37.4725 22.1335C38.6529 22.1214 40.0394 22.2346 40.6539 23.4069H40.6498Z" fill="#231815"/>
<path d="M23.9751 16.7127C23.9913 16.0943 23.8821 15.4717 23.8498 14.8492C23.8053 14.2833 23.7528 13.7173 23.7325 13.1514C23.7325 12.444 24.8078 12.44 24.8199 13.1514C24.8765 14.2226 24.9776 15.2656 25.0625 16.3328C25.0786 16.5753 25.1231 16.838 24.9614 17.0442C24.6623 17.4525 23.967 17.2261 23.9791 16.7168L23.9751 16.7127Z" fill="#231815"/>
<path d="M22.2449 12.6987C21.8003 12.3389 21.4607 11.8862 21.2303 11.3607C21.008 10.8594 20.9433 10.2975 20.9878 9.75179C21.0282 9.25863 21.1939 8.75333 21.4526 8.33293C21.7437 7.85997 22.1317 7.47595 22.6047 7.1849C23.0615 6.90193 23.6032 6.74428 24.1367 6.71598C24.6542 6.68769 25.1635 6.78066 25.6405 6.97469C26.643 7.38297 27.3828 8.31676 27.6091 9.36777C27.7304 9.92562 27.7021 10.5077 27.5364 11.0494C27.4879 11.2111 27.4232 11.3687 27.3504 11.5223C27.3423 11.5466 27.3302 11.5668 27.3181 11.5911C27.1645 11.8902 26.9664 12.161 26.7319 12.4076C26.1741 12.9978 25.3899 13.3454 24.5854 13.4142C24.5854 13.4142 24.5814 13.4142 24.5774 13.4142C24.5531 13.4142 24.5289 13.4182 24.5046 13.4182C24.5006 13.4182 24.4925 13.4182 24.4884 13.4182C24.4803 13.4182 24.4682 13.4182 24.4601 13.4182C24.4238 13.4182 24.3833 13.4182 24.347 13.4182C23.5951 13.4182 22.8351 13.1676 22.2449 12.6906V12.6987ZM24.4521 12.3389C24.5693 12.3268 24.6865 12.3106 24.7997 12.2904C24.8967 12.2661 24.9897 12.2419 25.0867 12.2095C25.1837 12.1732 25.2726 12.1327 25.3656 12.0883C25.4465 12.0438 25.5273 11.9953 25.6082 11.9428C25.689 11.8862 25.7658 11.8255 25.8426 11.7608C25.9154 11.6962 25.9801 11.6234 26.0488 11.5547C26.1094 11.4819 26.166 11.4092 26.2186 11.3324C26.259 11.2677 26.2994 11.203 26.3358 11.1383C26.352 11.11 26.3641 11.0858 26.3762 11.0575C26.3762 11.0494 26.3843 11.0453 26.3843 11.0373C26.4207 10.9605 26.453 10.8796 26.4813 10.7947C26.5096 10.7058 26.5339 10.6128 26.5541 10.5239C26.5702 10.4228 26.5864 10.3218 26.5945 10.2207C26.5985 10.1156 26.5985 10.0145 26.5945 9.90945C26.5864 9.80839 26.5702 9.71137 26.5541 9.61031C26.5298 9.51329 26.5056 9.41628 26.4732 9.31926C26.4368 9.22224 26.3964 9.12523 26.352 9.03225C26.3035 8.94332 26.2549 8.85843 26.1983 8.77759C26.1418 8.69674 26.0811 8.62398 26.0164 8.54717C25.9518 8.47845 25.883 8.40973 25.8103 8.34505C25.7375 8.28442 25.6648 8.23187 25.588 8.17527C25.5031 8.12272 25.4182 8.07017 25.3292 8.02571C25.2403 7.98528 25.1473 7.94486 25.0544 7.91252C24.9614 7.88422 24.8684 7.85997 24.7754 7.83572C24.6663 7.8155 24.5572 7.80338 24.444 7.79529C24.3469 7.79529 24.2499 7.79529 24.1529 7.79529C24.0478 7.80742 23.9468 7.81955 23.8457 7.83976C23.7568 7.85997 23.6678 7.88422 23.5789 7.91656C23.4859 7.95294 23.393 7.98933 23.304 8.03379C23.2232 8.07826 23.1423 8.12272 23.0655 8.17123C22.9847 8.22782 22.9079 8.28846 22.8311 8.3491C22.7583 8.41782 22.6896 8.48654 22.6209 8.5593C22.5602 8.63206 22.4996 8.70887 22.447 8.78567C22.3904 8.8746 22.3419 8.95949 22.2934 9.05247C22.253 9.13736 22.2207 9.22224 22.1883 9.30713C22.152 9.41628 22.1237 9.52542 22.0994 9.63861C22.0832 9.72754 22.0711 9.82051 22.063 9.91349C22.059 10.0186 22.059 10.1277 22.063 10.2328C22.0711 10.3299 22.0873 10.4228 22.1034 10.5198C22.1277 10.6128 22.152 10.7098 22.1802 10.7988C22.2166 10.8958 22.2571 10.9888 22.2975 11.0777C22.346 11.1666 22.3945 11.2515 22.4511 11.3364C22.5077 11.4132 22.5643 11.49 22.6249 11.5628C22.6896 11.6355 22.7583 11.7002 22.8311 11.7689C22.9038 11.8296 22.9806 11.8902 23.0615 11.9468C23.1423 11.9993 23.2232 12.0438 23.3081 12.0883C23.397 12.1287 23.49 12.1691 23.5829 12.2055C23.688 12.2378 23.7972 12.2661 23.9063 12.2904C24.0034 12.3066 24.1044 12.3187 24.2014 12.3268C24.2823 12.3268 24.3631 12.3268 24.444 12.3268L24.4521 12.3389Z" fill="#231815"/>
<path d="M18.9464 27.7726C17.8307 27.1461 18.7806 24.7045 20.0135 25.5695C21.5901 25.9536 20.248 28.5528 18.9464 27.7726Z" fill="#231815"/>
<path d="M28.454 27.7039C27.0553 27.5099 27.7062 24.9349 28.9957 25.3795C30.2528 25.7272 29.7031 27.8535 28.454 27.7039Z" fill="#231815"/>
<path d="M23.7972 32.7205C22.92 32.6113 22.0671 32.1303 21.6831 31.3097C21.4769 30.9055 21.1616 30.1859 21.7316 29.9393C21.6911 29.9595 21.6588 29.9757 21.6224 30C22.5724 29.5028 22.4228 30.8327 22.9483 31.2288C23.9023 32.005 25.5516 31.7382 26.0528 30.5659C26.166 30.198 26.4611 29.8221 26.8856 30.004C27.6819 30.4325 26.7926 31.4997 26.3924 31.9322C25.7052 32.5709 24.7229 32.8781 23.7932 32.7164L23.7972 32.7205Z" fill="#231815"/>
</g>
<defs>
<clipPath id="clip0_221_2144">
<rect width="35.12" height="34.0488" fill="white" transform="translate(6.5 6.71191)"/>
</clipPath>
</defs>
</svg>
