<svg width="144" height="143" viewBox="0 0 144 143" fill="none" xmlns="http://www.w3.org/2000/svg">
<path d="M100.923 47.0609L93.905 41.7039L94.6095 40.732L108.477 50.1614L108.906 36.3732L100.494 27.8743L101.36 26.9852L108.993 33.5779L109.445 19.187H114.015L114.478 34.0526L121.666 27.7236L122.529 28.624L114.565 36.8856L114.972 49.8789L127.532 41.5042L128.379 42.6796L122.046 47.6223L130.022 47.9689L130.018 48.9408L119.85 49.3364L115.069 53.0622L116.09 83.0458H107.365L108.394 52.7721L103.105 48.7298L92.383 48.4059L92.3793 47.4339L100.923 47.0609Z" fill="#C8BC93"/>
<path d="M135.789 35.4016C135.756 36.076 135.56 38.7921 134.407 40.0579C133.175 41.4142 131.536 40.8679 131.088 40.5741L135.793 35.4016H135.789Z" fill="#569986"/>
<path d="M135.642 35.2659L130.937 40.4383C130.602 40.0164 129.905 38.4379 131.133 37.0855C132.286 35.8159 134.968 35.3601 135.639 35.2659H135.642Z" fill="#569986"/>
<path d="M140.416 48.1121C139.911 48.5641 137.828 50.3159 136.113 50.38C134.283 50.444 133.533 48.8919 133.424 48.3645L140.412 48.1121H140.416Z" fill="#569986"/>
<path d="M140.408 47.9087L133.42 48.1573C133.488 47.6261 134.128 46.0213 135.959 45.9572C137.673 45.8969 139.873 47.498 140.408 47.9087Z" fill="#569986"/>
<path d="M130.602 31.51C130.097 31.9621 128.014 33.7139 126.3 33.7779C124.469 33.8419 123.719 32.2898 123.614 31.7624L130.602 31.51Z" fill="#569986"/>
<path d="M130.594 31.3103L123.606 31.5589C123.674 31.0277 124.314 29.4229 126.141 29.3588C127.856 29.2986 130.056 30.8996 130.594 31.3103Z" fill="#569986"/>
<path d="M143.361 39.8921C143.045 40.4911 141.704 42.8569 140.118 43.5124C138.426 44.2094 137.179 43.0151 136.897 42.5593L143.361 39.8921Z" fill="#569986"/>
<path d="M143.286 39.7037L136.822 42.3671C136.701 41.8435 136.742 40.1181 138.434 39.4212C140.02 38.7694 142.638 39.504 143.286 39.7037Z" fill="#569986"/>
<path d="M79.7928 39.8921C80.1093 40.4911 81.4542 42.8569 83.0365 43.5124C84.7279 44.2094 85.9712 43.0151 86.2575 42.5593L79.7928 39.8921Z" fill="#569986"/>
<path d="M79.8682 39.7037L86.3328 42.3671C86.4533 41.8435 86.4119 40.1181 84.7204 39.4212C83.1344 38.7694 80.5161 39.504 79.8644 39.7037H79.8682Z" fill="#569986"/>
<path d="M137.564 25.6476C137.217 26.2315 135.77 28.5333 134.158 29.1134C132.436 29.7313 131.25 28.4843 130.986 28.0134L137.567 25.6438L137.564 25.6476Z" fill="#569986"/>
<path d="M137.5 25.4594L130.918 27.8253C130.82 27.2941 130.945 25.5762 132.666 24.9546C134.279 24.3744 136.863 25.2296 137.503 25.4594H137.5Z" fill="#569986"/>
<path d="M130.417 56.3966C129.754 56.2535 127.106 55.6206 126.044 54.2757C124.906 52.8404 125.708 51.3146 126.07 50.9153L130.417 56.3966Z" fill="#569986"/>
<path d="M130.576 56.2723L126.228 50.791C126.699 50.5273 128.368 50.094 129.506 51.5256C130.572 52.8705 130.587 55.5905 130.576 56.2686V56.2723Z" fill="#569986"/>
<path d="M122.272 36.0344C122.645 36.6033 124.073 38.9201 123.881 40.6229C123.678 42.4425 122.031 42.9586 121.496 42.985L122.272 36.0344Z" fill="#569986"/>
<path d="M122.073 36.0156L121.297 42.9662C120.777 42.8193 119.285 41.9528 119.488 40.1332C119.681 38.4304 121.587 36.4865 122.073 36.0156Z" fill="#569986"/>
<path d="M120.826 15.793C121.071 16.4259 121.986 18.9876 121.444 20.6151C120.867 22.3518 119.146 22.5138 118.618 22.4309L120.826 15.793Z" fill="#569986"/>
<path d="M120.637 15.7288L118.426 22.3629C117.948 22.1143 116.671 20.9539 117.251 19.2172C117.793 17.586 120.061 16.0866 120.637 15.7288Z" fill="#569986"/>
<path d="M112.082 1.40601C112.511 1.92965 114.177 4.08076 114.169 5.79863C114.158 7.62952 112.575 8.31892 112.044 8.4018L112.086 1.40601H112.082Z" fill="#569986"/>
<path d="M111.882 1.40576L111.841 8.39779C111.31 8.30738 109.735 7.6029 109.746 5.77201C109.758 4.05791 111.449 1.92564 111.882 1.40576Z" fill="#569986"/>
<path d="M112.082 10.2781C112.511 10.8017 114.177 12.9528 114.169 14.6707C114.158 16.5016 112.575 17.191 112.044 17.2739L112.086 10.2781H112.082Z" fill="#569986"/>
<path d="M111.882 10.2778L111.841 17.2699C111.31 17.1832 109.735 16.4787 109.746 14.6441C109.758 12.93 111.449 10.7977 111.882 10.2778Z" fill="#569986"/>
<path d="M129.389 20.0159C129.37 20.694 129.219 23.4102 128.089 24.7023C126.88 26.0774 125.234 25.5575 124.778 25.2787L129.389 20.0196V20.0159Z" fill="#569986"/>
<path d="M129.238 19.8804L124.623 25.1395C124.284 24.7213 123.557 23.1579 124.763 21.7828C125.893 20.4944 128.564 19.9896 129.238 19.8804Z" fill="#569986"/>
<path d="M128.922 11.5891C128.899 12.2672 128.748 14.9834 127.622 16.2718C126.413 17.6469 124.766 17.1307 124.311 16.8482L128.922 11.5891Z" fill="#569986"/>
<path d="M128.771 11.457L124.156 16.7161C123.817 16.298 123.09 14.7345 124.295 13.3595C125.426 12.0711 128.1 11.5663 128.771 11.457Z" fill="#569986"/>
<path d="M87.6815 34.8137C87.7117 35.4881 87.9113 38.2043 89.0641 39.4738C90.2998 40.83 91.9347 40.28 92.3868 39.9899L87.6815 34.8175V34.8137Z" fill="#569986"/>
<path d="M87.8323 34.678L92.5338 39.8542C92.8691 39.4323 93.566 37.8538 92.3341 36.5013C91.1814 35.2318 88.4991 34.7759 87.8285 34.6817L87.8323 34.678Z" fill="#569986"/>
<path d="M83.3906 47.5244C83.8954 47.9727 85.975 49.7245 87.6891 49.7885C89.52 49.8526 90.2697 48.3005 90.3789 47.7731L83.3906 47.5244Z" fill="#569986"/>
<path d="M83.3982 47.3172L90.3865 47.5697C90.3186 47.0347 89.6782 45.4336 87.8473 45.3696C86.137 45.3093 83.9331 46.9104 83.3982 47.321V47.3172Z" fill="#569986"/>
<path d="M93.8184 30.9976C94.3269 31.4496 96.4065 33.2014 98.1206 33.2654C99.9515 33.3295 100.701 31.7774 100.807 31.25L93.8184 30.9976Z" fill="#569986"/>
<path d="M93.826 30.794L100.814 31.0427C100.746 30.5077 100.106 28.9066 98.2752 28.8388C96.5611 28.7785 94.361 30.3796 93.8223 30.7903L93.826 30.794Z" fill="#569986"/>
<path d="M86.152 24.6575C86.4533 25.264 87.7229 27.675 89.2863 28.372C90.9552 29.1179 92.2361 27.9614 92.5337 27.5131L86.1482 24.6575H86.152Z" fill="#569986"/>
<path d="M86.2311 24.4728L92.6166 27.3284C92.7522 26.8085 92.7597 25.0831 91.0908 24.3334C89.5274 23.6327 86.8828 24.292 86.2311 24.4691V24.4728Z" fill="#569986"/>
<path d="M93.3889 55.8051C94.052 55.6619 96.7003 55.029 97.7665 53.6841C98.9042 52.2488 98.098 50.7231 97.7401 50.3237L93.3927 55.8051H93.3889Z" fill="#569986"/>
<path d="M93.2307 55.6806L97.5781 50.1992C97.1072 49.9393 95.4383 49.506 94.3006 50.9376C93.2345 52.2825 93.2194 55.0024 93.2307 55.6806Z" fill="#569986"/>
<path d="M100.78 35.2811C100.407 35.85 98.9794 38.1631 99.1678 39.8659C99.3712 41.6854 101.021 42.2016 101.556 42.2279L100.78 35.2773V35.2811Z" fill="#569986"/>
<path d="M100.984 35.2546L101.763 42.2052C102.28 42.0621 103.771 41.1956 103.568 39.376C103.38 37.6732 101.47 35.7293 100.984 35.2584V35.2546Z" fill="#569986"/>
<path d="M104.118 15.876C103.892 16.5164 103.052 19.1007 103.64 20.7131C104.265 22.4348 105.987 22.5478 106.514 22.4461L104.118 15.876Z" fill="#569986"/>
<path d="M104.31 15.8083L106.706 22.3784C107.173 22.1147 108.416 20.9205 107.791 19.2026C107.203 17.5903 104.894 16.1512 104.31 15.8121V15.8083Z" fill="#569986"/>
<path d="M101.918 5.53076C101.692 6.16743 100.848 8.75553 101.436 10.3642C102.061 12.082 103.786 12.195 104.314 12.1009L101.918 5.53076Z" fill="#569986"/>
<path d="M102.106 5.45923L104.502 12.0293C104.969 11.7656 106.213 10.5714 105.587 8.84976C105.003 7.24114 102.69 5.80205 102.106 5.45923Z" fill="#569986"/>
<path d="M120.995 6.09229C121.221 6.72895 122.065 9.31706 121.478 10.9294C120.852 12.6473 119.127 12.7641 118.599 12.6624L120.995 6.09229Z" fill="#569986"/>
<path d="M120.803 6.02051L118.407 12.5906C117.94 12.3269 116.693 11.1327 117.322 9.41481C117.91 7.80242 120.219 6.36333 120.803 6.02051Z" fill="#569986"/>
<path d="M94.116 19.2928C94.1348 19.9709 94.2855 22.6871 95.4157 23.9755C96.6212 25.3506 98.2712 24.8345 98.7271 24.5482L94.116 19.2891V19.2928Z" fill="#569986"/>
<path d="M94.2666 19.1609L98.8815 24.42C99.2205 24.0056 99.9514 22.4384 98.7421 21.0596C97.6119 19.7712 94.9372 19.2701 94.2666 19.1609Z" fill="#569986"/>
<path d="M95.4006 12.0369C95.4195 12.715 95.5702 15.4312 96.7041 16.7233C97.9096 18.0984 99.5597 17.5785 100.016 17.296L95.4044 12.0369H95.4006Z" fill="#569986"/>
<path d="M95.5514 11.905L100.166 17.1641C100.505 16.7497 101.232 15.1825 100.027 13.8075C98.8967 12.5191 96.222 12.0143 95.5514 11.9088V11.905Z" fill="#569986"/>
<path d="M107.629 51.4516C108.314 76.9892 91.2192 83.4039 74.0822 83.8655C56.9452 84.327 39.5286 78.84 38.8386 53.307C38.1533 27.7694 58.8519 0.353091 71.8212 0.00345273C84.7951 -0.346186 106.939 25.9187 107.629 51.4563V51.4516Z" fill="#8D7459"/>
<path d="M50.8054 51.1437C50.1388 44.3328 49.8684 37.4939 49.7519 30.6549C49.6773 26.4406 49.7659 22.2216 49.6819 18.0073C49.5421 18.2264 49.4022 18.4455 49.2624 18.6693C49.281 20.7531 49.2624 22.8417 49.2484 24.9348C49.2018 31.7691 49.323 38.6034 49.7472 45.4237C49.9617 48.8501 50.3532 52.2626 50.5957 55.6844C50.8427 59.1248 51.0572 62.5653 51.267 66.0104C51.4767 69.4508 51.6819 72.8959 51.9103 76.3364C51.9802 77.3853 52.0455 78.4342 52.1201 79.4831C52.3718 79.6276 52.6282 79.7628 52.8846 79.9027C52.6655 77.1988 52.5117 74.481 52.3345 71.7771C51.8777 64.8962 51.4768 58.0153 50.8054 51.1484V51.1437Z" fill="#C3BDAF"/>
<path d="M77.4946 58.4117C77.7323 44.7292 78.9724 30.9814 80.8045 17.4247C81.3966 13.0426 82.0679 8.67443 82.8091 4.3156C82.6739 4.2177 82.5434 4.12913 82.4082 4.03589C81.2054 10.8515 80.1705 17.7044 79.3453 24.5806C77.7417 37.9368 76.6601 51.4515 76.7347 64.9056C76.7673 70.8402 77.1356 76.7421 77.6391 82.6533C77.6671 82.9936 77.7044 83.3339 77.7324 83.6743C77.9934 83.6509 78.2545 83.6323 78.5202 83.609C78.3664 81.9354 78.2358 80.2618 78.096 78.5882C77.5366 71.8798 77.378 65.1434 77.4946 58.4164V58.4117Z" fill="#C3BDAF"/>
<path d="M89 68.0291C88.5851 54.4165 89.4569 40.8039 90.5897 27.2426C90.9906 22.4362 91.4102 17.6252 91.7831 12.8095C91.6433 12.651 91.5081 12.4878 91.3729 12.3293C91.0652 16.0775 90.7295 19.8209 90.3939 23.5644C89.1725 37.149 88.0909 50.7476 88.2075 64.3975C88.2541 70.099 88.5291 75.8004 89.0186 81.4832C89.2611 81.3993 89.4988 81.3201 89.7412 81.2315C89.6713 80.2152 89.6014 79.2036 89.5268 78.2013C89.275 74.8168 89.1119 71.423 89.0047 68.0291H89Z" fill="#C3BDAF"/>
<path d="M104.454 61.1944C103.797 54.3182 103.219 47.428 102.818 40.5331C102.608 36.9342 102.482 33.3259 102.361 29.7223C102.174 29.3027 101.983 28.8832 101.787 28.4683C101.829 30.2211 101.876 31.9646 101.946 33.6989C102.408 45.3255 103.391 56.9055 104.515 68.4809C104.701 68.094 104.883 67.6977 105.055 67.2921C104.85 65.2596 104.65 63.2224 104.454 61.1898V61.1944Z" fill="#C3BDAF"/>
<path d="M69.9937 40.4587C69.6021 33.6198 69.9564 26.7482 70.6976 19.9419C71.4202 13.2895 72.6043 6.71625 73.7651 0.138381C73.5367 0.105748 73.3129 0.0731139 73.0891 0.0498047C70.7116 11.8723 69.0706 23.9791 69.2245 36.03C69.313 42.8036 70.1568 49.5726 70.7209 56.323C71.285 63.092 71.7885 69.8657 72.1521 76.6487C72.278 79.0635 72.3852 81.4783 72.4691 83.8978C72.6323 83.8978 72.7954 83.8978 72.9586 83.8932C72.7068 76.1825 72.2313 68.4718 71.644 60.7797C71.1311 54.0107 70.3899 47.2464 69.9983 40.468L69.9937 40.4587Z" fill="#C3BDAF"/>
<path d="M96.7714 53.2883C96.9625 46.4307 97.3774 39.5825 97.7131 32.7342C97.8996 28.9954 97.9928 25.2519 98.0348 21.5085C97.8669 21.2334 97.6991 20.9584 97.5266 20.688C97.4334 26.0864 97.2236 31.4755 96.9206 36.8646C96.5337 43.7129 96.1421 50.5565 96.0162 57.414C95.8903 64.2017 96.0535 70.9614 96.3565 77.7444C96.3565 77.8003 96.3565 77.8516 96.3612 77.9075C96.6036 77.7444 96.8413 77.5719 97.0791 77.3994C97.0185 76.15 96.9532 74.9053 96.9019 73.6606C96.6036 66.8683 96.5803 60.0806 96.7667 53.2883H96.7714Z" fill="#C3BDAF"/>
<path d="M60.4648 62.0061C58.9777 48.6453 57.7796 35.1865 55.1876 21.9841C54.5909 18.9633 53.9569 15.9471 53.3368 12.9355C53.3368 12.9215 53.3322 12.9075 53.3275 12.8982C53.2203 13.0334 53.1131 13.1732 53.0059 13.3084C53.0385 13.4763 53.0758 13.6441 53.1038 13.8073C53.7378 17.1125 54.437 20.4084 55.0384 23.7184C56.2645 30.4454 57.1409 37.233 57.8682 44.03C59.2574 56.99 60.8424 69.9313 61.7608 82.9378C61.9986 82.9845 62.241 83.0311 62.4834 83.0777C62.4694 82.8679 62.4508 82.6535 62.4368 82.4437C61.9286 75.6141 61.22 68.8078 60.4648 62.0061Z" fill="#C3BDAF"/>
<path d="M64.185 58.5237C62.5533 45.1815 63.4344 31.746 63.2526 18.3385C63.1873 13.4482 63.0195 8.55796 62.6885 3.677C62.5813 3.75159 62.474 3.83084 62.3668 3.91009C63.0428 14.8748 62.847 25.8814 62.7025 36.8694C62.6139 43.4985 62.7258 50.0578 63.4018 56.6589C64.0311 62.7799 65.0334 68.9009 66.5252 74.8774C67.2571 77.8051 68.0496 80.784 68.5811 83.7909C68.8048 83.8049 69.0239 83.8142 69.2477 83.8235C68.8328 81.5066 68.2594 79.2176 67.7046 76.9986C66.1802 70.8962 64.9495 64.7705 64.185 58.5237Z" fill="#C3BDAF"/>
<path d="M82.6506 62.2061C83.3032 55.2879 84.5713 48.4164 85.499 41.5262C86.4127 34.7385 87.2238 27.9369 87.9558 21.1259C88.366 17.3172 88.6457 13.4991 88.9441 9.68106C88.8368 9.57383 88.7343 9.46196 88.6271 9.35474C88.4313 11.6763 88.2681 14.0073 88.0583 16.3289C87.4383 23.2098 86.5059 30.0766 85.5969 36.9202C84.6925 43.7219 83.6156 50.4956 82.6506 57.2832C81.7135 63.8518 81.4012 70.4902 81.2707 77.1101C81.2287 79.1659 81.2054 81.2265 81.1914 83.287C81.4105 83.2544 81.625 83.2217 81.8441 83.1891C81.8441 82.9001 81.8441 82.6064 81.8487 82.3173C81.886 75.6043 82.0166 68.8912 82.6506 62.2015V62.2061Z" fill="#C3BDAF"/>
<path d="M43.4631 45.6569C42.8337 42.6361 42.1485 39.5965 41.1228 36.6782C41.0529 36.9206 40.9877 37.1631 40.9177 37.4101C41.8175 40.1466 42.4375 42.981 43.0202 45.7921C43.9806 50.44 44.9875 55.0832 45.7381 59.773C46.5912 65.1202 47.1553 70.5279 47.3324 75.945C47.5236 76.1268 47.7194 76.3039 47.9105 76.4764C47.7567 70.8496 47.132 65.2321 46.2322 59.6891C45.4677 54.9806 44.4374 50.3235 43.4631 45.6569Z" fill="#C3BDAF"/>
<path d="M84.5992 64.8355L91.9696 58.8823L91.1864 57.8613L76.6508 68.3319L75.7604 53.5631L84.506 44.2348L83.5503 43.3071L75.5832 50.5749L74.6555 35.1721L69.7512 35.3073L69.6767 47.4048L61.6816 40.743L60.7865 41.7313L69.6533 50.4537L69.5787 63.0407L55.7517 54.351L54.8753 55.6377L61.8121 60.7564L53.2716 61.3577L53.2996 62.3973L64.2176 62.5279L69.5554 66.4671L69.3317 102.485H78.688L76.8186 71.1196L82.3103 66.6816L93.8017 66.0243L93.7784 64.9847L84.5992 64.8355Z" fill="#C8BC93"/>
<path d="M47.7716 104.523L50.3693 104.861L55.4256 103.828L55.4595 103.151L50.6362 103.628L49.0874 103.425L53.9783 99.4706L53.8843 98.8315L45.031 104.741L45.0574 102.271L46.1476 97.309L45.5235 97.3428L43.8619 102.369L43.8318 105.324L35.8658 109.204L34.941 95.0646L39.0988 92.1511L45.1175 93.7L48.4784 93.2489L48.6814 92.5797L45.2942 92.7113L40.6514 91.2339L48.1475 85.2979L47.9182 84.6174L41.3995 89.0722L41.3845 87.1738L42.4258 83.3731L41.7754 83.3919L40.4973 87.2377L40.5161 89.5121L34.753 92.2301L33.8545 76.5574L31.3921 77.0536L30.5125 91.9669L25.0013 89.4557L25.0351 87.185L23.7832 83.3317L23.1329 83.3092L24.1479 87.1174L24.1178 89.0158L17.6292 84.5121L17.3961 85.1926L24.8546 91.1812L20.2006 92.6248L16.8134 92.4707L17.0126 93.1398L20.3697 93.6173L26.396 92.106L30.3395 94.5458L29.3809 108.7L21.5765 105.249L21.5652 102.294L19.9374 97.2563L19.3134 97.2187L20.3697 102.185L20.381 104.658L11.5654 98.6886L11.4676 99.3277L16.336 103.313L14.7834 103.504L9.96387 102.997L9.99395 103.674L15.039 104.741L17.6442 104.422L21.6893 107.365L20.2532 108.034L15.2194 109.29L10.6744 109.034L10.8999 109.583L15.3623 110.222L20.7945 109.252L23.0501 108.2L29.1403 112.241L27.0576 143H38.08L36.0613 112.173L42.3356 108.264L44.5837 109.335L50.0122 110.339L54.4783 109.734L54.7076 109.185L50.1588 109.41L45.1363 108.121L43.704 107.437L47.7716 104.523Z" fill="#C8BC93"/>
<path d="M21.2796 110.482C20.3924 110.79 19.133 112.083 19.8473 114.151C20.5615 116.215 23.2871 117.816 23.7645 117.647C24.2419 117.482 25.3923 114.542 24.6743 112.474C23.96 110.41 22.163 110.173 21.2796 110.478V110.482ZM24.2946 113.297C24.2645 113.369 24.1743 113.403 24.1066 113.373L22.1329 112.497L22.648 113.978L24.1442 114.707C24.178 114.722 24.2043 114.752 24.2156 114.79C24.2307 114.827 24.2269 114.865 24.2081 114.899C24.1743 114.97 24.084 115 24.0164 114.966L22.7795 114.365L23.6066 116.752C23.6329 116.827 23.5916 116.91 23.5164 116.933C23.4412 116.959 23.3585 116.918 23.3322 116.846L22.3397 113.989L21.7345 115.237C21.7006 115.309 21.6104 115.335 21.5427 115.305C21.5089 115.286 21.4826 115.256 21.4675 115.222C21.4563 115.185 21.4563 115.147 21.4751 115.113L22.2044 113.609L21.6931 112.128L20.6781 114.045C20.6442 114.113 20.5503 114.143 20.4863 114.106C20.4149 114.068 20.3886 113.982 20.4262 113.91L21.5653 111.752L21.336 111.091C21.3096 111.015 21.351 110.933 21.4262 110.91C21.5014 110.884 21.5841 110.925 21.6104 111L22.0014 112.136L24.2231 113.121C24.2946 113.154 24.3284 113.237 24.2946 113.309V113.297Z" fill="#B2D982"/>
<path d="M22.7494 82.2414C23.4599 81.8579 24.3584 80.5835 23.4675 78.9257C22.5765 77.2678 20.0427 76.2791 19.6592 76.4821C19.2758 76.6888 18.6968 79.3467 19.5878 81.0046C20.4788 82.6624 22.0352 82.6211 22.7494 82.2414ZM19.7946 80.2565C19.8134 80.1926 19.881 80.1512 19.9449 80.1662L21.7457 80.6437L21.1066 79.452L19.7344 79.0384C19.7043 79.0272 19.678 79.0084 19.663 78.9783C19.648 78.9482 19.6442 78.9144 19.6517 78.8843C19.6705 78.8204 19.7419 78.7828 19.8059 78.8016L20.9412 79.1437L19.9111 77.2264C19.8773 77.1663 19.8998 77.0911 19.9637 77.0573C20.0239 77.0234 20.0991 77.0497 20.1329 77.1099L21.366 79.4069L21.7118 78.264C21.7306 78.2001 21.8021 78.1625 21.866 78.1813C21.8961 78.1926 21.9261 78.2114 21.9412 78.2415C21.9562 78.2715 21.96 78.3054 21.9524 78.3354L21.5352 79.7151L22.1742 80.9031L22.7757 79.1324C22.7983 79.0685 22.8697 79.0347 22.9336 79.0535C22.9975 79.076 23.0314 79.1475 23.0126 79.2114L22.3359 81.2001L22.6216 81.7301C22.6554 81.7903 22.6329 81.8655 22.5727 81.8993C22.5126 81.9331 22.4374 81.9068 22.4036 81.8467L21.9149 80.9369L19.8923 80.3993C19.8284 80.3805 19.7871 80.3129 19.8059 80.2489L19.7946 80.2565Z" fill="#B2D982"/>
<path d="M16.3548 86.3392C14.5992 86.5686 12.8812 88.4633 12.9338 88.873C12.9864 89.279 15.133 90.6738 16.8886 90.4482C18.6443 90.2189 19.1292 88.8354 19.0315 88.0836C18.9337 87.3279 18.1142 86.1174 16.3548 86.343V86.3392ZM18.5728 88.2603L17.6104 88.3843L16.4638 89.9858C16.4262 90.0384 16.3548 90.0497 16.3022 90.0121C16.2533 89.9745 16.2383 89.8993 16.2759 89.8505L17.2946 88.4294L16.0353 88.5948L15.212 89.6625C15.1932 89.6888 15.1669 89.7039 15.133 89.7076C15.1029 89.7076 15.0729 89.7039 15.0465 89.6851C14.9977 89.6475 14.9864 89.5723 15.024 89.5196L15.7044 88.6362L13.6744 88.8993C13.6105 88.9069 13.5503 88.8618 13.5428 88.7978C13.5353 88.7339 13.5804 88.6776 13.6443 88.6663L16.0766 88.3505L15.1857 87.6663C15.1368 87.6287 15.1255 87.5535 15.1631 87.5046C15.1819 87.4821 15.2082 87.4633 15.2383 87.4595C15.2684 87.4595 15.3022 87.4633 15.3247 87.4821L16.3999 88.3091L17.6593 88.1437L16.3022 87.0234C16.2571 86.9858 16.2495 86.9069 16.2871 86.858C16.3285 86.8092 16.3999 86.8016 16.4526 86.843L17.9751 88.1024L18.539 88.0309C18.6029 88.0234 18.6593 88.0685 18.6706 88.1324C18.6781 88.1964 18.633 88.2565 18.5691 88.264L18.5728 88.2603Z" fill="#B2D982"/>
<path d="M15.3849 95.3279C15.0165 95.4369 14.0353 97.6361 14.509 99.2376C14.9826 100.835 16.3398 101.08 17.0277 100.877C17.7119 100.674 18.7194 99.7301 18.2457 98.1323C17.7721 96.5346 15.7571 95.2188 15.3849 95.3279ZM17.7909 98.3015L16.8473 99.903L16.9976 100.414C17.0127 100.474 16.9826 100.535 16.9225 100.55C16.8661 100.565 16.8059 100.535 16.7871 100.474L16.5277 99.5985L14.8698 98.7677C14.8135 98.7413 14.7947 98.6737 14.821 98.621C14.8473 98.5684 14.915 98.5459 14.9676 98.5722L16.4413 99.309L16.1029 98.1624L14.9864 97.5571C14.9601 97.5421 14.9413 97.5196 14.9338 97.4932C14.9262 97.4669 14.93 97.4368 14.9413 97.4105C14.9676 97.3579 15.039 97.3391 15.0917 97.3654L16.0127 97.8692L15.4638 96.0196C15.445 95.9632 15.4789 95.8993 15.539 95.8842C15.5954 95.8654 15.6593 95.8993 15.6744 95.9594L16.3285 98.1699L16.8322 97.2414C16.8623 97.1887 16.93 97.1699 16.9788 97.1963C17.0052 97.2113 17.024 97.2338 17.0315 97.2602C17.039 97.2902 17.039 97.3203 17.024 97.3429L16.4149 98.4632L16.7533 99.6098L17.5916 98.1812C17.6217 98.1323 17.6931 98.1135 17.742 98.1436C17.7946 98.1737 17.8134 98.2414 17.7796 98.294L17.7909 98.3015Z" fill="#B2D982"/>
<path d="M6.96019 108.162C5.34743 108.673 4.05421 110.752 4.17451 111.125C4.29481 111.497 6.54665 112.444 8.16317 111.933C9.77593 111.418 9.99398 110.034 9.77594 109.343C9.55413 108.651 8.5767 107.647 6.96394 108.162H6.96019ZM9.37368 109.587L8.49025 109.869L7.68198 111.568C7.65566 111.625 7.59176 111.647 7.53537 111.621C7.48274 111.594 7.45642 111.527 7.48273 111.474L8.20077 109.963L7.0429 110.331L6.44891 111.478C6.43388 111.504 6.41133 111.523 6.38501 111.534C6.35869 111.542 6.32486 111.542 6.3023 111.527C6.24967 111.5 6.22712 111.429 6.25343 111.376L6.74214 110.429L4.87751 111.023C4.82112 111.042 4.75721 111.008 4.73842 110.952C4.71962 110.891 4.75345 110.831 4.80984 110.812L7.0429 110.102L6.09178 109.61C6.03915 109.583 6.01659 109.512 6.04291 109.459C6.05795 109.433 6.0805 109.414 6.10681 109.403C6.13313 109.395 6.16696 109.399 6.18952 109.41L7.34364 110.004L8.50152 109.636L7.03537 108.813C6.98274 108.782 6.96394 108.711 6.99026 108.658C7.02033 108.606 7.088 108.587 7.14063 108.617L8.78723 109.542L9.30602 109.376C9.36617 109.358 9.42631 109.391 9.44511 109.452C9.46391 109.508 9.43007 109.572 9.37368 109.591V109.587Z" fill="#B2D982"/>
<path d="M5.95273 94.3881C5.65198 94.6889 5.84746 97.3317 7.14067 98.6324C8.43389 99.9369 9.87748 99.4633 10.4376 98.9106C10.9978 98.358 11.4827 96.9144 10.1895 95.6137C8.90005 94.3092 6.25723 94.0874 5.95273 94.3881ZM10.1745 98.6437C10.1256 98.6926 10.0504 98.6926 10.0053 98.6437L9.59177 98.2264L7.54669 98.2866C7.47902 98.2866 7.42262 98.2377 7.42262 98.17C7.42262 98.1061 7.47525 98.0497 7.53916 98.046L9.35869 97.9896L8.43389 97.0573L7.02789 97.0498C6.99406 97.0498 6.96398 97.0385 6.94143 97.0159C6.91887 96.9934 6.90759 96.9633 6.90759 96.9295C6.90759 96.8656 6.96399 96.8092 7.02789 96.8092L8.18953 96.8167L6.40008 95.0122C6.35497 94.9633 6.35497 94.8881 6.40008 94.8393C6.44895 94.7942 6.52414 94.7942 6.56925 94.8393L8.06548 96.3468V95.1926C8.06924 95.1287 8.12562 95.0723 8.18953 95.0723C8.22337 95.0723 8.25344 95.0836 8.276 95.1062C8.29856 95.1287 8.30983 95.1588 8.30983 95.1926L8.30232 96.5911L9.22711 97.5272L9.29854 95.7152C9.29854 95.6513 9.35869 95.5986 9.4226 95.5986C9.49026 95.5986 9.53913 95.6588 9.53913 95.7227L9.46019 97.7603L10.167 98.4746C10.2158 98.5234 10.2121 98.5986 10.167 98.6437H10.1745Z" fill="#B2D982"/>
<path d="M36.7455 78.2603C37.3395 78.764 38.8019 79.1137 39.9748 77.7227C41.1439 76.3317 41.1289 73.7115 40.8093 73.437C40.486 73.1664 37.8996 73.5987 36.7305 74.9859C35.5613 76.3731 36.1515 77.7565 36.7493 78.2565L36.7455 78.2603ZM36.9711 77.8092L37.347 77.3656L37.1064 75.3543C37.0989 75.2904 37.144 75.2303 37.2117 75.2227C37.2756 75.2152 37.3357 75.2641 37.3432 75.328L37.5575 77.1174L38.3959 76.1212L38.2755 74.734C38.2755 74.7002 38.2831 74.6701 38.3019 74.6476C38.3244 74.6212 38.3507 74.6062 38.3846 74.6062C38.4485 74.6024 38.5086 74.6513 38.5124 74.7152L38.6101 75.8618L40.2304 73.9408C40.2718 73.8882 40.3469 73.8844 40.3996 73.9258C40.4484 73.9671 40.456 74.0461 40.4146 74.0949L39.0613 75.7002L40.2003 75.6024C40.2642 75.5987 40.3244 75.6475 40.3281 75.7115C40.3281 75.7453 40.3206 75.7754 40.3018 75.7979C40.2793 75.8205 40.253 75.8355 40.2191 75.8393L38.8395 75.9558L38.0011 76.952L39.7943 76.8618C39.8582 76.8618 39.9184 76.9107 39.9221 76.9746C39.9221 77.0385 39.8733 77.0986 39.8094 77.0986L37.7944 77.2002L37.1515 77.9595C37.1102 78.0122 37.035 78.0159 36.9823 77.9746C36.9335 77.9332 36.926 77.858 36.9673 77.8054L36.9711 77.8092Z" fill="#B2D982"/>
<path d="M44.0951 110.561C43.2116 110.249 41.4146 110.471 40.6853 112.531C39.956 114.591 41.0838 117.538 41.5613 117.707C42.0387 117.876 44.7717 116.298 45.5011 114.237C46.2304 112.177 44.9785 110.873 44.0951 110.561ZM44.8582 114.181C44.7905 114.215 44.7003 114.189 44.6665 114.117L43.6665 112.192L43.1439 113.67L43.8657 115.181C43.8845 115.215 43.8845 115.256 43.8733 115.294C43.8582 115.328 43.8319 115.358 43.7981 115.376C43.7304 115.41 43.6402 115.376 43.6063 115.309L43.0086 114.057L41.9973 116.907C41.971 116.982 41.8883 117.023 41.8131 116.997C41.738 116.97 41.7004 116.888 41.7267 116.813L42.5688 114.433L41.3282 115.027C41.2605 115.061 41.1703 115.027 41.1365 114.959C41.1177 114.925 41.1177 114.884 41.1289 114.85C41.1402 114.816 41.1665 114.786 41.2041 114.767L42.7079 114.053L43.2304 112.576L41.2492 113.437C41.1816 113.467 41.0913 113.433 41.0613 113.361C41.0312 113.29 41.0613 113.204 41.1365 113.174L43.362 112.204L43.7642 111.072C43.7906 110.997 43.8733 110.959 43.9484 110.986C44.0236 111.012 44.0612 111.095 44.0349 111.17L43.8018 111.831L44.9259 113.993C44.9635 114.064 44.9334 114.151 44.8657 114.189L44.8582 114.181Z" fill="#B2D982"/>
<path d="M48.6175 90.5535C50.3731 90.794 52.5272 89.4144 52.5798 89.0084C52.6362 88.6023 50.9332 86.6926 49.1776 86.452C47.422 86.2114 46.5949 87.4219 46.4897 88.1738C46.3882 88.9257 46.8618 90.3129 48.6137 90.5535H48.6175ZM46.8506 88.2264C46.8581 88.1625 46.9182 88.1174 46.9821 88.1249L47.546 88.2001L49.0799 86.952C49.1287 86.9106 49.2039 86.9182 49.2415 86.967C49.2791 87.0159 49.2716 87.0911 49.2227 87.1324L47.8618 88.2415L49.1212 88.4144L50.2001 87.5948C50.2265 87.576 50.2565 87.5685 50.2866 87.5723C50.3167 87.576 50.3468 87.5911 50.3618 87.6174C50.3994 87.6663 50.3881 87.7452 50.3392 87.7828L49.4445 88.4633L51.8731 88.7978C51.937 88.8054 51.9821 88.8655 51.9746 88.9294C51.967 88.9933 51.9069 89.0384 51.843 89.0309L49.8129 88.7527L50.4896 89.6399C50.5272 89.6888 50.5159 89.7677 50.4671 89.8053C50.4407 89.8241 50.4107 89.8317 50.3806 89.8279C50.3505 89.8241 50.3204 89.8091 50.3016 89.7828L49.4859 88.7076L48.2265 88.5347L49.2378 89.9632C49.2716 90.0121 49.2603 90.0911 49.2077 90.1249C49.1551 90.1625 49.0836 90.1512 49.046 90.0986L47.9107 88.4896L46.9483 88.358C46.8844 88.3505 46.8393 88.2903 46.8468 88.2264H46.8506Z" fill="#B2D982"/>
<path d="M38.9635 93.7563C38.4297 94.3353 38.0087 95.7939 39.3583 97.0383C40.7079 98.2826 43.3582 98.3841 43.6477 98.0721C43.9372 97.76 43.6176 95.1285 42.268 93.8842C40.9184 92.6398 39.4974 93.1774 38.9635 93.7563ZM42.0124 94.3578C42.0161 94.4217 41.9635 94.4819 41.8996 94.4894L40.0838 94.6248L41.0537 95.5157L42.4597 95.4593C42.4936 95.4593 42.5236 95.4668 42.5462 95.4894C42.5688 95.512 42.5838 95.542 42.5838 95.5721C42.5838 95.636 42.5312 95.6962 42.4672 95.6962L41.3056 95.745L43.174 97.4668C43.2229 97.5119 43.2266 97.5871 43.1815 97.6397C43.1364 97.6886 43.0612 97.6924 43.0086 97.6473L41.4485 96.2112L41.4936 97.3653C41.4936 97.4292 41.441 97.4894 41.377 97.4931C41.347 97.4931 41.3131 97.4819 41.2906 97.4631C41.268 97.4405 41.253 97.4104 41.253 97.3804L41.1966 95.9856L40.2267 95.0947L40.238 96.9104C40.238 96.9743 40.1816 97.0307 40.1177 97.0307C40.05 97.0307 39.9974 96.9781 39.9974 96.9104L39.9823 94.8691L39.2417 94.1849C39.1929 94.1398 39.1891 94.0646 39.2342 94.0157C39.2793 93.9669 39.3545 93.9631 39.4034 94.0082L39.8357 94.4067L41.877 94.2526C41.9447 94.2451 42.0011 94.2977 42.0049 94.3654L42.0124 94.3578Z" fill="#B2D982"/>
<path d="M58.4256 108.335C56.8166 107.813 55.8279 108.809 55.6061 109.497C55.3806 110.189 55.5911 111.572 57.2001 112.098C58.8091 112.625 61.0722 111.692 61.1925 111.316C61.3128 110.944 60.0346 108.858 58.4256 108.335ZM60.6324 111.14C60.6136 111.196 60.5497 111.23 60.4933 111.211L58.6324 110.606L59.1174 111.557C59.1437 111.61 59.1174 111.681 59.0685 111.707C59.0422 111.722 59.0121 111.722 58.982 111.715C58.9557 111.704 58.9294 111.685 58.9181 111.658L58.3317 110.508L57.1775 110.132L57.8843 111.651C57.9106 111.704 57.8843 111.775 57.8317 111.798C57.7753 111.824 57.7076 111.798 57.6851 111.745L56.8881 110.038L56.0046 109.752C55.9445 109.734 55.9144 109.67 55.9332 109.613C55.952 109.557 56.0159 109.523 56.0723 109.542L56.5873 109.711L58.2414 108.798C58.2941 108.768 58.3655 108.786 58.3956 108.839C58.4219 108.892 58.4031 108.963 58.3505 108.993L56.8805 109.805L58.0347 110.181L59.1926 109.591C59.2189 109.576 59.2489 109.576 59.279 109.583C59.3053 109.595 59.3316 109.613 59.3429 109.64C59.3692 109.692 59.3467 109.76 59.2941 109.79L58.3354 110.279L60.5647 111.004C60.6249 111.023 60.6549 111.087 60.6361 111.143L60.6324 111.14Z" fill="#B2D982"/>
<path d="M58.3091 98.8088C59.6098 97.5156 59.8278 94.8728 59.5271 94.5721C59.2263 94.2713 56.5835 94.4743 55.2828 95.7675C53.982 97.0608 54.4557 98.5043 55.0121 99.0645C55.5685 99.6209 57.0083 100.106 58.3091 98.8088ZM55.2753 98.6284L55.9895 97.9179L55.9256 95.8803C55.9256 95.8126 55.9745 95.7563 56.0422 95.7563C56.1061 95.7563 56.1662 95.8089 56.1662 95.8728L56.2226 97.6848L57.1549 96.7562V95.3578C57.1587 95.3239 57.17 95.2939 57.1925 95.2713C57.2151 95.2487 57.2452 95.2375 57.279 95.2375C57.3429 95.2375 57.3993 95.2939 57.3993 95.3578V96.5119L58.8993 95.0157C58.9481 94.9668 59.0233 94.9668 59.0722 95.0157C59.1173 95.0608 59.1173 95.1397 59.0722 95.1848L57.2715 96.978H58.4369C58.5008 96.978 58.5572 97.0382 58.5572 97.1021C58.5572 97.1359 58.5459 97.166 58.5233 97.1886C58.5008 97.2111 58.4707 97.2224 58.4369 97.2224H57.0309L56.0986 98.1472L57.9181 98.2149C57.982 98.2149 58.0384 98.275 58.0346 98.3389C58.0346 98.4066 57.9745 98.4592 57.9106 98.4555L55.8655 98.3803L55.4482 98.7938C55.4031 98.8389 55.3241 98.8389 55.279 98.7938C55.2339 98.7487 55.2301 98.6698 55.279 98.6209L55.2753 98.6284Z" fill="#B2D982"/>
<path d="M26.9561 68.9108C27.6403 68.5386 28.4975 67.3018 27.6253 65.7078C26.7531 64.1138 24.3058 63.1778 23.9336 63.3808C23.5652 63.5838 23.0276 66.1514 23.896 67.7454C24.7682 69.3393 26.2682 69.2867 26.9524 68.9145L26.9561 68.9108ZM24.0953 65.6138L25.193 65.9371L24.1855 64.095C24.1517 64.0386 24.1742 63.9635 24.2344 63.9334C24.2907 63.8995 24.3659 63.9221 24.396 63.9823L25.599 66.189L25.9223 65.0837C25.9411 65.0236 26.0088 64.986 26.0689 65.001C26.099 65.0086 26.1253 65.0311 26.1403 65.0574C26.1554 65.0837 26.1591 65.1176 26.1479 65.1476L25.7569 66.4822L26.381 67.6251L26.9486 65.9146C26.9674 65.8544 27.0388 65.8168 27.099 65.8394C27.1629 65.8619 27.1967 65.9258 27.1742 65.9897L26.5351 67.9145L26.8133 68.4258C26.8434 68.4859 26.8246 68.5574 26.7644 68.5875C26.708 68.6213 26.6328 68.5987 26.6028 68.5423L26.1253 67.6664L24.1705 67.1627C24.1065 67.1476 24.0689 67.08 24.084 67.016C24.099 66.9559 24.1667 66.9145 24.2306 66.9296L25.9712 67.3769L25.3471 66.2341L24.0201 65.8431C23.99 65.8356 23.9637 65.8131 23.9487 65.7867C23.9336 65.7567 23.9299 65.7266 23.9374 65.6965C23.9562 65.6364 24.0238 65.5988 24.084 65.6176L24.0953 65.6138Z" fill="#B2D982"/>
<path d="M6.82478 84.1401C8.39995 84.9521 9.58415 84.0875 9.93377 83.4108C10.2834 82.7341 10.2984 81.2679 8.72326 80.4559C7.14809 79.6439 4.6594 80.2266 4.47143 80.595C4.28346 80.9597 5.25338 83.3281 6.82854 84.1363L6.82478 84.1401ZM5.80224 82.5311C5.77592 82.5161 5.75337 82.4935 5.74209 82.4634C5.72329 82.4033 5.75713 82.3356 5.81728 82.3168L6.87742 81.9747L5.05789 81.0386C5.0015 81.0086 4.97895 80.9371 5.00902 80.8807C5.0391 80.8243 5.11052 80.8018 5.16691 80.8319L7.34733 81.9559L7.00523 80.8845C6.98644 80.8243 7.02028 80.7567 7.08042 80.7379C7.10674 80.7266 7.14057 80.7304 7.17065 80.7454C7.19696 80.7604 7.21952 80.783 7.2308 80.8131L7.64433 82.1025L8.77213 82.6852L8.29469 80.9935C8.27965 80.9334 8.31348 80.8657 8.37363 80.8507C8.43378 80.8319 8.50145 80.8695 8.51649 80.9296L9.05408 82.8318L9.55783 83.0912C9.61422 83.1213 9.63677 83.189 9.60669 83.2491C9.57662 83.3055 9.5052 83.3281 9.44881 83.298L8.58416 82.8506L6.7308 83.516C6.67065 83.5386 6.60299 83.5048 6.58419 83.4446C6.56163 83.3845 6.59547 83.3168 6.65562 83.2942L8.30596 82.704L7.17441 82.1213L5.88871 82.5311C5.85863 82.5424 5.8248 82.5386 5.79849 82.5236L5.80224 82.5311Z" fill="#B2D982"/>
<path d="M37.4259 69.3055C38.0199 69.8093 39.4823 70.1589 40.6552 68.7679C41.8244 67.3807 41.8093 64.7567 41.4898 64.4823C41.1665 64.2116 38.58 64.6402 37.4109 66.0311C36.238 67.4221 36.8319 68.8018 37.4297 69.3055H37.4259ZM37.6515 68.8544L38.0274 68.4108L37.7868 66.3996C37.7793 66.3356 37.8244 66.2755 37.8921 66.268C37.956 66.2605 38.0161 66.3093 38.0237 66.3732L38.2379 68.1627L39.0763 67.1665L38.956 65.7793C38.956 65.7454 38.9635 65.7154 38.9823 65.6928C39.0048 65.6665 39.0312 65.6514 39.065 65.6514C39.1289 65.6439 39.1891 65.6966 39.1928 65.7605L39.2906 66.9071L40.9108 64.986C40.9522 64.9372 41.0274 64.9297 41.08 64.971C41.1289 65.0124 41.1364 65.0875 41.095 65.1402L39.7417 66.7454L40.8808 66.6477C40.9447 66.6439 41.0048 66.6928 41.0086 66.7567C41.0086 66.7905 41.0011 66.8206 40.9823 66.8432C40.9597 66.8695 40.9334 66.8808 40.8996 66.8845L39.5236 67.0011L38.6853 67.9973L40.4785 67.9071C40.5424 67.9071 40.6026 67.9559 40.6026 68.0198C40.6063 68.0875 40.5537 68.1439 40.4898 68.1477L38.4748 68.2492L37.8319 69.0123C37.7906 69.0612 37.7154 69.0687 37.6628 69.0273C37.6139 68.986 37.6064 68.9108 37.6477 68.8582L37.6515 68.8544Z" fill="#B2D982"/>
<path d="M49.031 78.2904C49.625 78.7941 51.0874 79.1438 52.2603 77.7528C53.4294 76.3656 53.4144 73.7416 53.0949 73.4672C52.7715 73.1965 50.1851 73.625 49.0122 75.016C47.843 76.4032 48.4333 77.7866 49.031 78.2904ZM49.2566 77.8393L49.6325 77.3957L49.3919 75.3844C49.3844 75.3205 49.4295 75.2604 49.4972 75.2528C49.5611 75.2453 49.6212 75.2942 49.6287 75.3581L49.843 77.1476L50.6813 76.1513L50.5648 74.7679C50.5648 74.7341 50.5723 74.704 50.5911 74.6777C50.6137 74.6551 50.64 74.6401 50.6738 74.6363C50.7377 74.6288 50.7979 74.6814 50.8016 74.7453L50.8994 75.8919L52.5197 73.9709C52.561 73.9183 52.6362 73.9145 52.6888 73.9559C52.7377 73.9972 52.7452 74.0724 52.7039 74.125L51.3505 75.7303L52.4896 75.6325C52.5535 75.6288 52.6136 75.6776 52.6174 75.7416C52.6174 75.7716 52.6099 75.8055 52.5911 75.828C52.5685 75.8506 52.5422 75.8656 52.5084 75.8694L51.1325 75.9859L50.2941 76.9821L52.0873 76.8919C52.1512 76.8919 52.2076 76.9408 52.2114 77.0047C52.2152 77.0686 52.1625 77.125 52.0986 77.1288L50.0836 77.2303L49.4408 77.9934C49.3994 78.0423 49.3242 78.0498 49.2716 78.0084C49.2227 77.9671 49.2152 77.8881 49.2566 77.8393Z" fill="#B2D982"/>
<path d="M55.4106 87.1511C54.1099 88.4481 54.5835 89.8879 55.1399 90.448C55.6925 91.0044 57.1361 91.4894 58.4369 90.1924C59.7376 88.8992 59.9556 86.2564 59.6549 85.9556C59.3541 85.6549 56.7113 85.8579 55.4106 87.1511ZM59.2 86.403C59.2451 86.4518 59.2451 86.527 59.2 86.5721L57.3993 88.3654H58.5647C58.6286 88.3654 58.685 88.4255 58.685 88.4894C58.685 88.5232 58.6737 88.5533 58.6511 88.5759C58.6286 88.5984 58.5985 88.6097 58.5647 88.6097H57.1587L56.2264 89.5345L58.0459 89.6022C58.1098 89.6022 58.1662 89.6623 58.1624 89.7262C58.1624 89.7939 58.1023 89.8465 58.0384 89.8428L55.9933 89.7676L55.576 90.1811C55.5309 90.2262 55.4519 90.2262 55.4068 90.1811C55.3617 90.136 55.3617 90.0571 55.4068 90.0119L56.1211 89.3014L56.0572 87.2639C56.0572 87.1962 56.1061 87.1398 56.1737 87.1398C56.2376 87.1398 56.2978 87.1924 56.2978 87.2563L56.3542 89.0683L57.2865 88.1398V86.7413C57.2903 86.7075 57.3015 86.6774 57.3241 86.6548C57.3466 86.6323 57.3767 86.621 57.4105 86.621C57.4745 86.621 57.5308 86.6774 57.5308 86.7413V87.8954L59.0308 86.3992C59.0797 86.3541 59.1549 86.3503 59.2038 86.3992L59.2 86.403Z" fill="#B2D982"/>
<path d="M32.2267 68.0651C31.7756 68.1215 30.223 70.5012 30.4748 72.4523C30.7267 74.4034 32.2643 74.941 33.0989 74.8319C33.9334 74.7229 35.283 73.8131 35.0312 71.862C34.7793 69.9109 32.6741 68.005 32.2229 68.0651H32.2267ZM34.4785 71.9748L33.0801 73.6665L33.159 74.2906C33.1665 74.362 33.1177 74.4259 33.0462 74.4372C32.9748 74.4447 32.9109 74.3958 32.8996 74.3244L32.7605 73.253L30.9861 71.9786C30.926 71.9372 30.9147 71.8583 30.956 71.7981C30.9974 71.7417 31.0801 71.7305 31.1365 71.7681L32.7154 72.9034L32.535 71.5049L31.3508 70.5914C31.3245 70.5688 31.3057 70.5388 31.3019 70.5049C31.2981 70.4711 31.3057 70.4373 31.3282 70.4072C31.3696 70.3508 31.456 70.3395 31.5087 70.3846L32.4899 71.1403L32.2004 68.8846C32.1929 68.8132 32.2417 68.7493 32.3132 68.738C32.3846 68.7305 32.4485 68.7794 32.456 68.8508L32.8056 71.55L33.5688 70.5613C33.6101 70.5049 33.6966 70.4974 33.7492 70.5388C33.7755 70.5613 33.7943 70.5914 33.7981 70.6252C33.8019 70.6591 33.7943 70.6929 33.7718 70.723L32.8507 71.9147L33.0312 73.3132L34.2755 71.8094C34.3207 71.7568 34.4034 71.7493 34.456 71.7906C34.5124 71.8357 34.5199 71.9184 34.4748 71.9711L34.4785 71.9748Z" fill="#B2D982"/>
<path d="M24.817 73.3845C24.4937 73.6552 24.4599 76.2754 25.6215 77.6739C26.7832 79.0724 28.2456 78.7303 28.8471 78.2341C29.4448 77.7378 30.05 76.3581 28.8884 74.9634C27.7268 73.565 25.1441 73.1176 24.8208 73.3883L24.817 73.3845ZM28.6065 77.9521C28.5538 77.9935 28.4786 77.9859 28.4373 77.9371L27.802 77.1702L25.7869 77.0536C25.723 77.0499 25.6704 76.9935 25.6742 76.9296C25.6779 76.8657 25.7381 76.813 25.802 76.8168L27.5952 76.9221L26.7606 75.9221L25.3847 75.7942C25.3546 75.7942 25.3245 75.7754 25.302 75.7529C25.2832 75.7303 25.2719 75.6965 25.2757 75.6664C25.2832 75.6025 25.3434 75.5536 25.4073 75.5574L26.5463 75.6627L25.2043 74.0462C25.1629 73.9973 25.1704 73.9221 25.2193 73.877C25.2682 73.8356 25.3471 73.8431 25.3885 73.892L26.9975 75.8243L27.1027 74.6777C27.1065 74.6138 27.1704 74.5649 27.2305 74.5687C27.2606 74.5687 27.2907 74.5875 27.3132 74.6101C27.3358 74.6326 27.3433 74.6664 27.3396 74.6965L27.2117 76.08L28.0426 77.0799L28.2681 75.2905C28.2756 75.2266 28.3395 75.1777 28.4034 75.189C28.4674 75.1965 28.5162 75.2567 28.5087 75.3206L28.2531 77.3318L28.6253 77.7792C28.6666 77.8318 28.6591 77.907 28.6102 77.9484L28.6065 77.9521Z" fill="#B2D982"/>
<path d="M15.6255 111.339C14.8999 110.865 13.242 110.681 12.1406 112.373C11.0428 114.064 11.4188 116.951 11.8097 117.207C12.2007 117.463 14.9939 116.632 16.0916 114.94C17.1893 113.249 16.3473 111.809 15.6217 111.335L15.6255 111.339ZM15.445 111.869L14.8435 112.797L15.3849 114.974C15.4037 115.046 15.3585 115.117 15.2871 115.136C15.2195 115.151 15.1443 115.106 15.1255 115.038L14.6443 113.102L13.8548 114.316L14.1744 115.816C14.1819 115.85 14.1744 115.888 14.1556 115.918C14.1368 115.948 14.1067 115.967 14.0728 115.974C14.0014 115.989 13.93 115.94 13.915 115.873L13.6518 114.632L12.3811 116.587C12.3398 116.647 12.2571 116.666 12.1969 116.624C12.133 116.587 12.118 116.504 12.1593 116.44L13.6819 114.098L12.43 114.365C12.3586 114.38 12.2872 114.331 12.2721 114.264C12.2646 114.23 12.2721 114.192 12.2909 114.166C12.3097 114.136 12.3398 114.117 12.3736 114.109L13.8849 113.79L14.6743 112.579L12.7007 112.929C12.633 112.94 12.5578 112.891 12.5466 112.824C12.5353 112.752 12.5804 112.681 12.6518 112.67L14.8698 112.279L15.2232 111.737C15.2646 111.677 15.3473 111.658 15.4074 111.696C15.4713 111.737 15.4864 111.82 15.4488 111.88L15.445 111.869Z" fill="#B2D982"/>
<path d="M9.04286 103.377C9.15188 102.659 8.71956 101.324 7.04289 101.072C5.36998 100.82 3.29106 102.11 3.23467 102.497C3.17453 102.884 4.77601 104.734 6.45267 104.986C8.12558 105.241 8.9376 104.095 9.04286 103.377ZM6.0241 104.433C5.98651 104.384 5.99779 104.313 6.04291 104.275L7.35491 103.238L6.15568 103.057L5.1181 103.82C5.09555 103.839 5.06547 103.847 5.0354 103.843C5.00532 103.839 4.97901 103.82 4.96397 103.798C4.93014 103.749 4.93766 103.677 4.98653 103.644L5.84366 103.012L3.9076 102.719C3.84745 102.707 3.80233 102.651 3.81361 102.591C3.82113 102.531 3.88128 102.489 3.94143 102.497L6.25719 102.847L5.6181 101.982C5.58426 101.933 5.59178 101.862 5.64065 101.824C5.66321 101.805 5.69328 101.798 5.72336 101.805C5.75343 101.805 5.77975 101.824 5.79855 101.85L6.56545 102.895L7.76844 103.076L6.81733 101.689C6.7835 101.64 6.79853 101.568 6.8474 101.535C6.90003 101.501 6.9677 101.512 7.00153 101.561L8.06919 103.121L8.60678 103.204C8.66693 103.211 8.70829 103.271 8.70077 103.332C8.68949 103.392 8.63309 103.433 8.57294 103.425L7.65567 103.286L6.182 104.456C6.13313 104.493 6.0617 104.486 6.0241 104.437V104.433Z" fill="#B2D982"/>
<path d="M23.7419 101.358C22.2833 102.659 22.7043 104.219 23.2607 104.843C23.8171 105.467 25.3208 106.061 26.7794 104.764C28.2343 103.463 28.6178 100.674 28.317 100.332C28.0163 99.9932 25.2005 100.057 23.7419 101.354V101.358ZM27.7982 100.963L25.7832 102.76L27.0163 102.831C27.0839 102.831 27.1403 102.895 27.1366 102.967C27.1366 103.001 27.1178 103.031 27.0952 103.057C27.0689 103.08 27.0351 103.091 27.0012 103.087L25.5088 103.004L24.4637 103.937L26.3922 104.113C26.4599 104.117 26.5163 104.185 26.5088 104.253C26.5012 104.324 26.4411 104.377 26.3697 104.369L24.2005 104.17L23.7344 104.587C23.6817 104.632 23.599 104.628 23.5539 104.576C23.5088 104.523 23.5126 104.44 23.5652 104.392L24.3622 103.681L24.411 101.512C24.411 101.441 24.4712 101.384 24.5426 101.388C24.6103 101.388 24.6704 101.452 24.6704 101.519L24.6253 103.448L25.6704 102.516L25.7531 101.031C25.7531 100.997 25.7719 100.967 25.7945 100.941C25.8208 100.918 25.8546 100.907 25.8885 100.907C25.9561 100.907 26.0125 100.974 26.0088 101.042L25.9373 102.268L27.6215 100.768C27.6742 100.719 27.7569 100.726 27.802 100.779C27.8471 100.831 27.8433 100.914 27.7907 100.959L27.7982 100.963Z" fill="#B2D982"/>
<path d="M25.7306 84.0348C24.6028 85.1287 24.9937 86.3693 25.4637 86.8505C25.9336 87.3317 27.1629 87.7603 28.2869 86.6663C29.4147 85.5723 29.6252 83.313 29.3734 83.0536C29.1215 82.7904 26.8584 82.937 25.7306 84.0348ZM28.9786 83.5799L27.4185 85.0949L28.4147 85.1099C28.4711 85.1099 28.5162 85.1588 28.5162 85.2152C28.5162 85.2415 28.505 85.2678 28.4862 85.2866C28.4674 85.3054 28.4411 85.3167 28.411 85.3167L27.208 85.2979L26.3997 86.0836L27.9561 86.1588C28.0125 86.1588 28.0576 86.2114 28.0538 86.2678C28.0538 86.3242 28.0012 86.3693 27.9448 86.3655L26.1967 86.2791L25.8358 86.6287C25.7982 86.6701 25.7306 86.6701 25.6892 86.6287C25.6516 86.5873 25.6516 86.5234 25.6892 86.4821L26.3057 85.8806L26.2719 84.1363C26.2719 84.0799 26.317 84.031 26.3734 84.031C26.4298 84.031 26.4787 84.0799 26.4787 84.1325L26.5088 85.6851L27.317 84.8994L27.3358 83.7039C27.3358 83.6776 27.3471 83.6513 27.3659 83.6325C27.3847 83.6137 27.411 83.6024 27.4411 83.6024C27.4937 83.6024 27.5426 83.6513 27.5426 83.7077L27.5275 84.6964L28.8283 83.4333C28.8696 83.3919 28.9335 83.3957 28.9749 83.4333C29.0162 83.4746 29.0125 83.5385 28.9749 83.5799H28.9786Z" fill="#B2D982"/>
<path d="M14.8548 107.91C15.2082 107.305 15.2947 105.948 13.8774 105.125C12.4601 104.298 10.1293 104.719 9.93758 105.046C9.74586 105.373 10.5278 107.61 11.9451 108.433C13.3623 109.26 14.4977 108.516 14.851 107.91H14.8548ZM11.7609 107.782C11.7458 107.726 11.7797 107.662 11.8323 107.647L13.3849 107.181L12.3699 106.587L11.1631 106.907C11.1368 106.914 11.1067 106.907 11.0804 106.895C11.0541 106.88 11.0391 106.858 11.0316 106.828C11.0165 106.771 11.0541 106.711 11.1067 106.696L12.1067 106.433L10.4677 105.478C10.415 105.448 10.4 105.38 10.4301 105.331C10.4601 105.279 10.524 105.264 10.5767 105.294L12.5391 106.437L12.2759 105.429C12.2609 105.373 12.2947 105.313 12.3511 105.298C12.3774 105.29 12.4075 105.298 12.4338 105.309C12.4601 105.324 12.4751 105.346 12.4827 105.376L12.8022 106.591L13.8172 107.185L13.4563 105.598C13.4451 105.542 13.4827 105.482 13.539 105.47C13.5954 105.455 13.6556 105.493 13.6669 105.553L14.0729 107.335L14.5278 107.602C14.5804 107.632 14.5954 107.7 14.5691 107.749C14.539 107.801 14.4714 107.816 14.4225 107.786L13.6443 107.335L11.9 107.858C11.8436 107.876 11.7834 107.843 11.7646 107.786L11.7609 107.782Z" fill="#B2D982"/>
<path d="M13.6744 94.4894C15.3097 94.3804 15.8361 93.1285 15.7909 92.4255C15.7458 91.7225 15.0579 90.5534 13.4188 90.6624C11.7797 90.7714 10.088 92.4255 10.1106 92.8052C10.1369 93.1849 12.0354 94.5984 13.6744 94.4894ZM13.1556 94.0533C13.1105 94.0157 13.103 93.9481 13.1406 93.9029L14.1669 92.6473L12.994 92.7263L12.1745 93.6661C12.1557 93.6887 12.1293 93.6999 12.0993 93.7037C12.0692 93.7037 12.0429 93.6962 12.0203 93.6774C11.9752 93.6398 11.9714 93.5684 12.009 93.527L12.6895 92.7488L10.7985 92.8766C10.7384 92.8804 10.6858 92.8353 10.682 92.7751C10.682 92.715 10.7233 92.6661 10.7835 92.6624L13.0504 92.512L12.2684 91.8278C12.2271 91.7902 12.2196 91.7188 12.2572 91.6737C12.276 91.6511 12.3023 91.6398 12.3323 91.6361C12.3587 91.6361 12.3887 91.6436 12.4113 91.6624L13.3549 92.4894L14.5278 92.4105L13.3399 91.2977C13.2985 91.2601 13.2947 91.1849 13.3361 91.1436C13.3774 91.0985 13.4451 91.0985 13.4865 91.1361L14.821 92.3879L15.3473 92.3541C15.4075 92.3503 15.4601 92.3954 15.4601 92.4556C15.4639 92.5157 15.4188 92.5684 15.3586 92.5721L14.4601 92.6323L13.3098 94.0458C13.2722 94.0909 13.2045 94.0984 13.1594 94.0608L13.1556 94.0533Z" fill="#B2D982"/>
<path d="M21.8096 97.9968C22.0953 98.3126 24.7457 98.2261 26.1028 96.9931C27.4599 95.76 27.0502 94.2939 26.5238 93.7112C25.9938 93.1285 24.5765 92.5834 23.2156 93.8164C21.8585 95.0495 21.5202 97.681 21.8096 97.9968ZM23.5991 94.1848L25.6404 94.354L26.0765 93.9593C26.1254 93.9142 26.2043 93.9179 26.2494 93.9668C26.2945 94.0157 26.2908 94.0908 26.2419 94.136L25.4975 94.8126L25.4712 96.854C25.4712 96.9216 25.4148 96.9743 25.3472 96.9743C25.2833 96.9743 25.2269 96.9179 25.2269 96.854L25.2494 95.042L24.2758 95.9292L24.2081 97.3239C24.2081 97.3577 24.1931 97.3878 24.1705 97.4066C24.1479 97.4291 24.1141 97.4404 24.084 97.4367C24.0201 97.4367 23.9675 97.3728 23.9713 97.3088L24.0276 96.1547L22.4562 97.5833C22.4074 97.6284 22.3322 97.6246 22.2833 97.5758C22.2382 97.5269 22.242 97.4479 22.2908 97.4028L24.1705 95.6961L23.0089 95.6397C22.945 95.6397 22.8886 95.5758 22.8923 95.5119C22.8923 95.478 22.9074 95.448 22.9299 95.4292C22.9562 95.4066 22.9863 95.3953 23.0164 95.3991L24.4186 95.4668L25.3923 94.5833L23.5765 94.4329C23.5126 94.4254 23.46 94.3653 23.4675 94.3014C23.4713 94.2337 23.5314 94.1848 23.5991 94.1886V94.1848Z" fill="#B2D982"/>
<path d="M12.1669 79.6513C11.8661 79.9521 12.0654 82.5949 13.3548 83.8956C14.648 85.2001 16.0916 84.7264 16.6518 84.1738C17.2119 83.6212 17.6969 82.1814 16.4037 80.8769C15.1104 79.5724 12.4714 79.3506 12.1669 79.6513ZM16.3886 83.9069C16.3435 83.952 16.2646 83.952 16.2195 83.9069L15.8059 83.4896L13.7608 83.5498C13.6932 83.5498 13.6368 83.5009 13.6368 83.4332C13.6368 83.3693 13.6894 83.3092 13.7571 83.3092L15.5766 83.2528L14.6518 82.3205L13.2458 82.3129C13.212 82.3129 13.1819 82.3017 13.1593 82.2791C13.1368 82.2566 13.1255 82.2265 13.1255 82.1926C13.1255 82.1287 13.1819 82.0723 13.2458 82.0723H14.4112L12.6218 80.2716C12.5766 80.2227 12.5766 80.1476 12.6218 80.1024C12.6706 80.0573 12.7458 80.0573 12.7909 80.1024L14.2834 81.6099V80.4521C14.2909 80.3882 14.3473 80.3318 14.4112 80.3318C14.445 80.3318 14.4751 80.343 14.4977 80.3656C14.5202 80.3882 14.5315 80.4182 14.5315 80.4521V81.8505L15.4525 82.7866L15.524 80.9746C15.524 80.9107 15.5841 80.8581 15.6518 80.8581C15.7195 80.8581 15.7683 80.9182 15.7683 80.9821L15.6894 83.0197L16.3999 83.734C16.445 83.7828 16.445 83.858 16.3999 83.9069H16.3886Z" fill="#B2D982"/>
<path d="M49.7378 111.455C49.0085 111.921 48.1551 113.358 49.2454 115.057C50.3318 116.756 53.1212 117.602 53.5122 117.35C53.9069 117.098 54.3017 114.215 53.2152 112.515C52.1288 110.816 50.4671 110.989 49.7378 111.459V111.455ZM53.1325 116.763C53.0724 116.801 52.9897 116.786 52.9483 116.722L51.6927 114.76L51.4183 116C51.4032 116.072 51.328 116.117 51.2604 116.102C51.2265 116.094 51.1965 116.076 51.1777 116.045C51.1589 116.015 51.1514 115.978 51.1589 115.944L51.4897 114.444L50.7115 113.226L50.2153 115.158C50.2002 115.226 50.1213 115.271 50.0536 115.252C49.9822 115.233 49.9408 115.162 49.9596 115.091L50.516 112.918L49.9183 111.985C49.8807 111.921 49.8957 111.842 49.9596 111.801C50.0198 111.764 50.1025 111.779 50.1438 111.842L50.4935 112.388L52.7077 112.794C52.7791 112.809 52.828 112.876 52.813 112.948C52.8017 113.015 52.7265 113.068 52.6588 113.053L50.689 112.692L51.4671 113.91L52.9746 114.241C53.0122 114.248 53.0385 114.271 53.0611 114.297C53.0799 114.327 53.0837 114.361 53.0799 114.399C53.0649 114.467 52.9897 114.515 52.922 114.5L51.6739 114.226L53.1776 116.576C53.2152 116.639 53.2002 116.718 53.1363 116.76L53.1325 116.763Z" fill="#B2D982"/>
<path d="M45.9446 76.5686C45.5611 76.3618 43.0198 77.3318 42.1176 78.9859C41.2153 80.64 42.1063 81.9182 42.8131 82.3054C43.5236 82.6926 45.0799 82.7452 45.9822 81.0911C46.8844 79.437 46.3243 76.7754 45.9408 76.5648L45.9446 76.5686ZM45.922 79.0686C45.907 79.0986 45.8807 79.1174 45.8469 79.1287L44.4709 79.5347L43.8243 80.7189L45.6288 80.2565C45.6927 80.2377 45.7641 80.2828 45.7792 80.3468C45.798 80.4144 45.7566 80.4783 45.689 80.4971L43.6627 81.0197L43.1664 81.9257C43.1326 81.9858 43.0574 82.0084 42.9973 81.9745C42.9371 81.9407 42.9146 81.8693 42.9484 81.8054L43.2379 81.2753L42.5762 79.2829C42.5537 79.2189 42.5913 79.1475 42.6552 79.125C42.7191 79.1024 42.7905 79.14 42.8131 79.2039L43.4033 80.9783L44.0499 79.7941L43.6439 78.4107C43.6364 78.3769 43.6401 78.3468 43.6552 78.3167C43.6702 78.2904 43.6965 78.2678 43.7303 78.2566C43.7943 78.2378 43.8657 78.2754 43.8845 78.3393L44.2191 79.4859L45.4672 77.1964C45.501 77.1363 45.5762 77.1137 45.6363 77.1475C45.6965 77.1814 45.719 77.2566 45.6852 77.3167L44.6439 79.2265L45.7829 78.8919C45.8469 78.8731 45.9183 78.9107 45.9371 78.9746C45.9446 79.0084 45.9408 79.0423 45.9258 79.0686H45.922Z" fill="#B2D982"/>
<path d="M58.3918 101.245C56.7151 101.489 56.2715 102.816 56.3768 103.538C56.482 104.256 57.2828 105.407 58.9594 105.162C60.6361 104.922 62.2489 103.083 62.1925 102.696C62.1361 102.305 60.0685 101.004 58.3918 101.245ZM61.5158 102.91L59.5797 103.192L60.4331 103.831C60.482 103.869 60.4895 103.94 60.4557 103.989C60.4369 104.012 60.4106 104.027 60.3805 104.034C60.3504 104.038 60.3203 104.031 60.2978 104.012L59.264 103.241L58.0647 103.414L59.3692 104.459C59.4143 104.497 59.4218 104.572 59.388 104.617C59.3504 104.666 59.279 104.674 59.2301 104.636L57.764 103.459L56.8429 103.591C56.7828 103.598 56.7264 103.557 56.7151 103.497C56.7076 103.437 56.749 103.38 56.8091 103.369L57.3467 103.29L58.4256 101.741C58.4595 101.692 58.5309 101.677 58.5798 101.715C58.6286 101.749 58.6399 101.82 58.6061 101.869L57.6474 103.249L58.8504 103.076L59.6248 102.038C59.6436 102.016 59.67 101.997 59.7 101.993C59.7301 101.989 59.7602 101.993 59.7827 102.012C59.8316 102.046 59.8391 102.121 59.8053 102.17L59.1624 103.031L61.482 102.696C61.5421 102.689 61.6023 102.73 61.6098 102.794C61.6173 102.854 61.5759 102.91 61.5158 102.918V102.91Z" fill="#B2D982"/>
<path d="M50.9407 99.3615C51.4219 97.7637 50.4595 95.5608 50.0911 95.448C49.7227 95.3352 47.6964 96.6359 47.2114 98.2299C46.7265 99.8276 47.7265 100.775 48.4144 100.982C49.0986 101.189 50.4595 100.955 50.9445 99.3577L50.9407 99.3615ZM48.5122 100.658C48.4558 100.64 48.4219 100.579 48.4407 100.519L48.5949 100.008L47.6626 98.3991C47.6325 98.3464 47.6513 98.2788 47.7039 98.2487C47.7528 98.2224 47.8242 98.2412 47.8543 98.29L48.6851 99.7224L49.031 98.5758L48.4295 97.448C48.4144 97.4216 48.4107 97.3916 48.4219 97.3652C48.4295 97.3389 48.4483 97.3164 48.4746 97.3013C48.5272 97.275 48.5949 97.2976 48.6212 97.3465L49.1174 98.2788L49.7866 96.072C49.8054 96.0156 49.8655 95.9818 49.9257 95.9968C49.9821 96.0156 50.0159 96.0758 49.9971 96.1359L49.437 97.9818L50.3618 97.4855C50.4144 97.4592 50.4821 97.478 50.5121 97.5307C50.5272 97.557 50.5272 97.587 50.5197 97.6134C50.5121 97.6434 50.4896 97.666 50.467 97.6773L49.3467 98.275L49.0009 99.4179L50.4783 98.6885C50.5309 98.6622 50.5986 98.6885 50.6249 98.7374C50.6512 98.7938 50.6287 98.8577 50.5723 98.884L48.9107 99.6998L48.6475 100.576C48.6287 100.632 48.5686 100.666 48.5084 100.651L48.5122 100.658Z" fill="#B2D982"/>
<path d="M42.1476 104.906C42.7078 104.286 43.1401 102.73 41.6927 101.418C40.2454 100.109 37.4296 100.027 37.1251 100.361C36.8244 100.7 37.1853 103.493 38.6326 104.801C40.08 106.109 41.5875 105.523 42.1476 104.903V104.906ZM38.8995 104.294C38.8958 104.226 38.9484 104.162 39.0161 104.155L40.9446 103.989L39.907 103.049L38.4146 103.124C38.3807 103.124 38.3469 103.113 38.3206 103.091C38.2943 103.068 38.2792 103.038 38.2792 103C38.2792 102.933 38.3319 102.869 38.4033 102.865L39.6401 102.801L37.6364 100.989C37.5838 100.94 37.58 100.861 37.6251 100.809C37.674 100.756 37.7567 100.752 37.8056 100.801L39.4785 102.312L39.4183 101.087C39.4146 101.019 39.471 100.955 39.5386 100.952C39.5725 100.952 39.6063 100.963 39.6326 100.985C39.6589 101.008 39.674 101.042 39.674 101.076L39.7491 102.561L40.7867 103.497L40.7566 101.568C40.7566 101.5 40.813 101.44 40.8845 101.437C40.9559 101.437 41.0123 101.493 41.016 101.561L41.0499 103.73L41.8431 104.448C41.8957 104.497 41.8995 104.579 41.8544 104.628C41.8055 104.681 41.7228 104.685 41.6739 104.639L41.2078 104.218L39.0386 104.403C38.9672 104.41 38.907 104.358 38.8995 104.286V104.294Z" fill="#B2D982"/>
<path d="M40.065 86.903C40.5387 86.4218 40.9372 85.185 39.8169 84.0835C38.7004 82.982 36.4372 82.8204 36.1816 83.0798C35.926 83.3392 36.1252 85.5985 37.2417 86.7C38.362 87.8015 39.5913 87.3842 40.065 86.903ZM37.0538 85.3166C37.035 85.2978 37.0237 85.2715 37.0237 85.2452C37.0237 85.1888 37.0726 85.1399 37.1252 85.1399L38.1214 85.1324L36.5726 83.6061C36.5312 83.5647 36.5312 83.5008 36.5726 83.4595C36.6102 83.4181 36.6779 83.4181 36.7192 83.4595L38.0124 84.7339L38.0049 83.7452C38.0049 83.6888 38.0538 83.6399 38.1064 83.6399C38.1327 83.6399 38.159 83.6512 38.1816 83.67C38.2004 83.6888 38.2117 83.7151 38.2117 83.7414L38.2192 84.9369L39.0199 85.7264L39.0613 84.1738C39.0613 84.1211 39.1101 84.0723 39.1665 84.0723C39.2229 84.0723 39.268 84.1211 39.268 84.1775L39.2229 85.9219L39.8357 86.5271C39.877 86.5685 39.877 86.6324 39.8357 86.6737C39.7943 86.7151 39.7304 86.7151 39.6891 86.6737L39.3282 86.3203L37.5763 86.3918C37.5199 86.3918 37.4711 86.3504 37.4673 86.294C37.4673 86.2376 37.5124 86.1888 37.5688 86.185L39.1252 86.1211L38.3244 85.3316L37.1214 85.3429C37.0951 85.3429 37.0688 85.3316 37.0463 85.3128L37.0538 85.3166Z" fill="#B2D982"/>
<path d="M51.531 105.249C50.1099 106.064 50.1851 107.422 50.5347 108.031C50.8843 108.64 52.0159 109.388 53.4407 108.576C54.8655 107.76 55.6625 105.531 55.4707 105.2C55.2828 104.869 52.952 104.433 51.531 105.249ZM54.9369 105.632L53.2941 106.576L54.2903 106.843C54.3467 106.858 54.3805 106.918 54.3655 106.974C54.358 107.001 54.3392 107.027 54.3166 107.038C54.2903 107.053 54.264 107.057 54.2339 107.049L53.0309 106.722L52.0121 107.309L53.561 107.786C53.6136 107.801 53.6475 107.865 53.6324 107.922C53.6136 107.978 53.5535 108.012 53.4971 107.993L51.7528 107.455L50.9708 107.903C50.9182 107.933 50.8543 107.914 50.8242 107.865C50.7941 107.813 50.8129 107.749 50.8655 107.719L51.3204 107.455L51.7377 105.673C51.7528 105.617 51.8091 105.579 51.8655 105.595C51.9219 105.61 51.9595 105.67 51.9482 105.726L51.5761 107.313L52.5948 106.726L52.9257 105.516C52.9332 105.489 52.952 105.463 52.9783 105.452C53.0009 105.437 53.0309 105.433 53.061 105.44C53.1174 105.455 53.1512 105.516 53.1362 105.572L52.8655 106.576L54.8354 105.444C54.8881 105.414 54.952 105.433 54.982 105.486C55.0121 105.538 54.9933 105.606 54.9407 105.632H54.9369Z" fill="#B2D982"/>
<path d="M52.0873 90.794C50.452 90.6737 49.7565 91.8391 49.7039 92.5384C49.6513 93.2376 50.1701 94.4932 51.8054 94.6173C53.4407 94.7376 55.3504 93.3391 55.3768 92.9594C55.4068 92.5797 53.7226 90.9143 52.0873 90.794ZM54.6926 93.0196L52.8016 92.8805L53.4745 93.6624C53.5121 93.7075 53.5084 93.7752 53.4632 93.8128C53.4407 93.8316 53.4144 93.8429 53.3843 93.8391C53.3542 93.8391 53.3279 93.8241 53.3091 93.8015L52.4933 92.8579L51.3204 92.7714L52.3354 94.0346C52.373 94.0797 52.3655 94.1511 52.3204 94.185C52.2753 94.2226 52.2039 94.215 52.17 94.1699L51.0272 92.7489L50.1287 92.685C50.0686 92.6812 50.0235 92.6286 50.031 92.5684C50.0347 92.5083 50.0874 92.4632 50.1475 92.4707L50.6701 92.5083L52.0121 91.2677C52.0535 91.2264 52.1249 91.2301 52.1625 91.2752C52.2039 91.3166 52.2001 91.388 52.1588 91.4294L50.9633 92.5346L52.1362 92.6211L53.0873 91.8015C53.1099 91.7827 53.1362 91.7752 53.1663 91.7752C53.1963 91.7752 53.2227 91.7903 53.2414 91.8128C53.279 91.8579 53.2753 91.9294 53.2302 91.9669L52.4407 92.6474L54.7038 92.8128C54.764 92.8166 54.8091 92.8692 54.8053 92.9293C54.8016 92.9895 54.7489 93.0346 54.6888 93.0271L54.6926 93.0196Z" fill="#B2D982"/>
<path d="M52.1964 84.031C53.4971 82.7378 53.7152 80.095 53.4144 79.7942C53.1137 79.4935 50.4708 79.6965 49.1701 80.9897C47.8694 82.2867 48.343 83.7265 48.8994 84.2867C49.4558 84.843 50.8956 85.3242 52.1964 84.031ZM49.1626 83.8468L49.8769 83.1363L49.813 81.0987C49.813 81.0311 49.8618 80.9747 49.9295 80.9747C49.9934 80.9747 50.0536 81.0273 50.0536 81.0912L50.1099 82.9032L51.0423 81.9747V80.5762C51.046 80.5423 51.0573 80.5123 51.0836 80.4897C51.1062 80.4672 51.1362 80.4559 51.1663 80.4559C51.2302 80.4559 51.2866 80.5123 51.2866 80.5762V81.7303L52.7866 80.2341C52.8355 80.189 52.9107 80.189 52.9595 80.2341C53.0046 80.2792 53.0046 80.3581 52.9595 80.4032L51.1588 82.1965H52.3242C52.3881 82.1965 52.4445 82.2566 52.4445 82.3205C52.4445 82.3543 52.4332 82.3844 52.4069 82.407C52.3843 82.4295 52.3543 82.4408 52.3204 82.4408H50.9144L49.9821 83.3656L51.8016 83.4333C51.8656 83.4333 51.9219 83.4934 51.9182 83.5573C51.9182 83.625 51.858 83.6776 51.7941 83.6739L49.749 83.5987L49.3318 84.0122C49.2829 84.0611 49.2077 84.0611 49.1626 84.0122C49.1137 83.9633 49.1137 83.8882 49.1626 83.8431V83.8468Z" fill="#B2D982"/>
<path d="M34.317 60.0012C33.9072 59.9485 31.9937 61.6816 31.7644 63.456C31.5351 65.2304 32.7644 66.0575 33.5238 66.1552C34.2832 66.253 35.6816 65.7642 35.9109 63.9898C36.1403 62.2192 34.7305 60.0538 34.317 60.0012ZM35.1328 62.1327C35.1516 62.1553 35.1591 62.1891 35.1553 62.2192C35.1553 62.2493 35.1365 62.2793 35.1102 62.2981L34.0313 63.1289L33.8659 64.3996L35.3019 63.3695C35.3508 63.3357 35.4298 63.347 35.4673 63.3959C35.5049 63.4485 35.4937 63.5199 35.441 63.5613L33.8283 64.7191L33.7042 65.6928C33.6967 65.7567 33.6365 65.8018 33.5726 65.7943C33.5087 65.7868 33.4636 65.7267 33.4711 65.6627L33.5426 65.0951L32.2719 63.5575C32.2305 63.5086 32.2381 63.4335 32.2869 63.3921C32.3358 63.3545 32.4148 63.362 32.4524 63.4071L33.5839 64.7718L33.7493 63.5011L32.9147 62.4184C32.8959 62.3921 32.8884 62.362 32.8884 62.332C32.8922 62.3019 32.911 62.2718 32.9335 62.253C32.9824 62.2154 33.0614 62.2267 33.099 62.2756L33.7907 63.1741L34.1065 60.7192C34.114 60.6553 34.1741 60.6102 34.238 60.6177C34.302 60.6252 34.3471 60.6854 34.3395 60.7493L34.0764 62.7981L34.9674 62.1102C35.0162 62.0726 35.0952 62.0838 35.1328 62.1327Z" fill="#B2D982"/>
<path d="M22.3397 74.7078C22.9375 74.2116 23.5427 72.8319 22.3811 71.4334C21.2194 70.0387 18.6368 69.5913 18.3097 69.8583C17.9864 70.1289 17.9526 72.7492 19.1142 74.1477C20.2758 75.5462 21.7382 75.2041 22.3397 74.7078ZM19.1706 73.3996C19.1706 73.3357 19.2345 73.283 19.2984 73.2868L21.0916 73.392L20.2571 72.3921L18.8811 72.2642C18.8511 72.2642 18.821 72.2454 18.8022 72.2229C18.7834 72.2003 18.7721 72.1665 18.7759 72.1364C18.7834 72.0725 18.8435 72.0236 18.9075 72.0274L20.0465 72.1327L18.7044 70.5161C18.6631 70.4673 18.6706 70.3883 18.7195 70.347C18.7721 70.3056 18.8473 70.3094 18.8886 70.362L20.4939 72.2943L20.5992 71.1477C20.6029 71.0838 20.6668 71.0349 20.7307 71.0387C20.7608 71.0387 20.7909 71.0575 20.8134 71.0801C20.8322 71.1026 20.8435 71.1364 20.8397 71.1665L20.7119 72.55L21.5427 73.5499L21.7683 71.7605C21.7758 71.6966 21.8397 71.6477 21.9037 71.6552C21.9676 71.6627 22.0164 71.7229 22.0089 71.7906L21.7533 73.8018L22.1255 74.2492C22.1668 74.2981 22.1593 74.377 22.1104 74.4184C22.0578 74.4597 21.9826 74.4522 21.9412 74.4033L21.3059 73.6364L19.2909 73.5199C19.2232 73.5199 19.1744 73.4597 19.1781 73.392L19.1706 73.3996Z" fill="#B2D982"/>
<path d="M16.43 77.516C17.0239 76.9671 17.5728 75.5085 16.2946 74.125C15.0164 72.7416 12.3172 72.4183 11.9939 72.7153C11.6744 73.0123 11.7834 75.7303 13.0578 77.1137C14.336 78.4972 15.8322 78.0648 16.4262 77.516H16.43ZM12.6255 75.1363C12.6029 75.11 12.5917 75.0799 12.5917 75.0461C12.5917 74.9784 12.6556 74.9258 12.7232 74.9258L13.9074 74.9747L12.43 73.3732C12.3811 73.3243 12.3887 73.2454 12.4375 73.1965C12.4864 73.1514 12.5653 73.1514 12.6142 73.204L14.3849 75.1175L14.43 73.9258C14.43 73.8581 14.4939 73.8055 14.5578 73.8055C14.5916 73.8055 14.6217 73.8205 14.6443 73.8431C14.6668 73.8694 14.6781 73.8995 14.6781 73.9333L14.6217 75.3731L15.539 76.3656L15.6781 74.501C15.6856 74.4333 15.7457 74.3807 15.8097 74.3844C15.8773 74.3882 15.93 74.4483 15.9224 74.516L15.7683 76.61L16.1781 77.0536C16.2232 77.1024 16.2232 77.1814 16.1706 77.2303C16.1217 77.2754 16.0427 77.2716 15.9939 77.2227L15.2946 76.4634L13.2007 76.4521C13.133 76.4521 13.0766 76.3957 13.0766 76.328C13.0766 76.2641 13.1368 76.204 13.2007 76.204L15.0615 76.2115L14.1443 75.219L12.712 75.1626C12.6781 75.1626 12.6481 75.1476 12.6255 75.1213V75.1363Z" fill="#B2D982"/>
<path d="M5.81359 99.0946C5.92261 98.3766 5.49029 97.042 3.81362 96.7902C2.14071 96.5383 0.0617921 97.8277 0.00164255 98.215C-0.058507 98.6022 1.54297 100.448 3.21964 100.704C4.89255 100.959 5.70457 99.8127 5.80984 99.0946H5.81359ZM2.95273 100.166C2.90386 100.204 2.83243 100.196 2.79484 100.147C2.75725 100.102 2.76852 100.027 2.81363 99.9894L4.12565 98.9518L2.92641 98.7713L1.88884 99.5345C1.86252 99.5533 1.8362 99.5608 1.80613 99.557C1.77605 99.5533 1.74974 99.5382 1.7347 99.5119C1.70087 99.4631 1.70838 99.3916 1.75726 99.3578L2.61439 98.7262L0.678326 98.433C0.618176 98.4255 0.576824 98.3653 0.584342 98.3052C0.591861 98.245 0.652009 98.2037 0.712159 98.2112L3.02792 98.5608L2.39259 97.6962C2.35875 97.6473 2.37003 97.5759 2.41514 97.5383C2.44146 97.5195 2.46777 97.512 2.49785 97.5157C2.52792 97.5195 2.55424 97.5383 2.57303 97.5608L3.33994 98.6022L4.53918 98.7826L3.58806 97.3954C3.55423 97.3465 3.56926 97.2751 3.61813 97.2413C3.67076 97.2075 3.73843 97.2187 3.77227 97.2676L4.83992 98.8277L5.37751 98.9104C5.43766 98.918 5.479 98.9743 5.47149 99.0383C5.46021 99.0984 5.40382 99.1398 5.34368 99.1322L4.42639 98.9931L2.94897 100.162L2.95273 100.166Z" fill="#B2D982"/>
<path d="M5.95273 85.9106C5.65198 86.2113 5.84746 88.8541 7.14067 90.1549C8.43389 91.4556 9.87748 90.9857 10.4376 90.433C10.9978 89.8804 11.4827 88.4406 10.1895 87.1361C8.90005 85.8354 6.25723 85.6098 5.95273 85.9106ZM8.06923 87.8654V86.7113C8.07299 86.6474 8.12939 86.591 8.19329 86.591C8.22713 86.591 8.2572 86.6023 8.27975 86.6248C8.30231 86.6474 8.3136 86.6775 8.3136 86.7113L8.30607 88.1098L9.23087 89.0458L9.30229 87.2338C9.30229 87.1699 9.36245 87.1135 9.42636 87.1173C9.49403 87.1173 9.5429 87.1774 9.5429 87.2451L9.46395 89.2827L10.1707 89.997C10.2196 90.0458 10.2158 90.121 10.1707 90.1699C10.1218 90.215 10.0467 90.215 10.0015 90.1699L9.58801 89.7526L7.54292 89.8128C7.47526 89.8128 7.41887 89.7639 7.41887 89.6962C7.41887 89.6323 7.4715 89.5759 7.53541 89.5722L9.35493 89.5158L8.43013 88.5797L7.02413 88.5722C6.9903 88.5722 6.96023 88.5609 6.93767 88.5383C6.91512 88.5158 6.90384 88.4857 6.90384 88.4519C6.90384 88.388 6.96022 88.3316 7.02413 88.3316H8.18577L6.39633 86.5308C6.35122 86.482 6.35122 86.4068 6.39633 86.3579C6.4452 86.309 6.52038 86.3128 6.56549 86.3579L8.06171 87.8654H8.06923Z" fill="#B2D982"/>
<path d="M43.1552 75.5384C43.7529 76.0422 45.2153 76.3918 46.3844 75.0009C47.5536 73.6137 47.5386 70.9896 47.219 70.7152C46.8957 70.4445 44.3093 70.8731 43.1401 72.2641C41.971 73.655 42.5612 75.0347 43.1589 75.5384H43.1552ZM43.3807 75.0873L43.7567 74.6437L43.5161 72.6325C43.5085 72.5686 43.5537 72.5084 43.6213 72.5009C43.6852 72.4934 43.7454 72.5422 43.7529 72.6062L43.9672 74.3956L44.8055 73.3994L44.6852 72.0122C44.6852 71.9821 44.6927 71.9483 44.7115 71.9257C44.7341 71.8994 44.7604 71.8881 44.7942 71.8844C44.8582 71.8768 44.9183 71.9295 44.9221 71.9934L45.0198 73.14L46.6401 71.219C46.6814 71.1701 46.7566 71.1626 46.8093 71.2039C46.8581 71.2453 46.8656 71.3205 46.8243 71.3731L45.4709 72.9783L46.61 72.8806C46.6739 72.8768 46.7341 72.9257 46.7378 72.9896C46.7378 73.0234 46.7303 73.0535 46.7115 73.0761C46.689 73.1024 46.6626 73.1137 46.6288 73.1174L45.2529 73.234L44.4146 74.2302L46.2078 74.14C46.2717 74.14 46.3318 74.1888 46.3318 74.2527C46.3318 74.3167 46.2829 74.3768 46.219 74.3806L44.204 74.4821L43.5612 75.2452C43.5198 75.2941 43.4446 75.3016 43.392 75.2602C43.3431 75.2189 43.3356 75.1437 43.377 75.0911L43.3807 75.0873Z" fill="#B2D982"/>
<path d="M61.8016 96.9253C60.1249 97.1659 59.6813 98.4967 59.7866 99.2147C59.8918 99.9328 60.6926 101.083 62.3655 100.843C64.0421 100.602 65.6549 98.7636 65.5985 98.3764C65.5421 97.9854 63.4745 96.6809 61.7978 96.9253H61.8016ZM64.9256 98.5907L62.9895 98.8726L63.8429 99.5117C63.8918 99.5493 63.8993 99.6207 63.8655 99.6696C63.8467 99.6922 63.8203 99.7072 63.7903 99.7109C63.7602 99.7147 63.7301 99.7109 63.7076 99.6884L62.6737 98.9177L61.4707 99.0907L62.7752 100.14C62.8204 100.177 62.8279 100.249 62.794 100.297C62.7564 100.346 62.685 100.354 62.6361 100.316L61.17 99.1395L60.249 99.2711C60.1888 99.2786 60.1287 99.2373 60.1211 99.1771C60.1136 99.117 60.155 99.0606 60.2151 99.0531L60.7527 98.9741L61.8316 97.4253C61.8655 97.3764 61.9369 97.3614 61.9858 97.399C62.0346 97.4328 62.0459 97.5042 62.0121 97.5531L61.0535 98.9328L62.2565 98.7598L63.0309 97.7223C63.0497 97.6997 63.076 97.6809 63.1061 97.6809C63.1361 97.6771 63.1662 97.6809 63.1888 97.6997C63.2376 97.7335 63.2452 97.8087 63.2113 97.8576L62.5685 98.7185L64.888 98.3839C64.9481 98.3764 65.0083 98.4177 65.0158 98.4779C65.0233 98.538 64.982 98.5944 64.9218 98.6019L64.9256 98.5907Z" fill="#B2D982"/>
<path d="M58.3091 84.7114C59.6098 83.4182 59.8278 80.7754 59.5271 80.4747C59.2263 80.1739 56.5835 80.3769 55.2828 81.6701C53.9821 82.9633 54.4595 84.4069 55.0121 84.9671C55.5685 85.5235 57.0083 86.0047 58.3091 84.7114ZM55.2753 84.531L55.9895 83.8205L55.9256 81.7829C55.9256 81.719 55.9745 81.6588 56.0422 81.6588C56.1061 81.6588 56.1662 81.7115 56.1662 81.7754L56.2226 83.5874L57.1549 82.6588V81.2604C57.1549 81.2303 57.17 81.2002 57.1925 81.1739C57.2151 81.1513 57.2452 81.1401 57.279 81.1401C57.3429 81.1401 57.3993 81.1964 57.3993 81.2604V82.4145L58.8993 80.9183C58.9482 80.8731 59.0233 80.8731 59.0722 80.9183C59.1173 80.9671 59.1173 81.0423 59.0722 81.0912L57.2715 82.8806H58.4331C58.497 82.8806 58.5534 82.9408 58.5534 83.0047C58.5534 83.0385 58.5421 83.0686 58.5196 83.0912C58.497 83.1137 58.467 83.125 58.4331 83.125H57.0271L56.0948 84.0498L57.9143 84.1175C57.9782 84.1175 58.0346 84.1776 58.0309 84.2415C58.0271 84.3092 57.9707 84.3618 57.9068 84.3581L55.8617 84.2829L55.4444 84.6964C55.3956 84.7453 55.3204 84.7415 55.2715 84.6964C55.2226 84.6475 55.2226 84.5723 55.2715 84.5235L55.2753 84.531Z" fill="#B2D982"/>
</svg>
